G04 #@! TF.GenerationSoftware,KiCad,Pcbnew,(5.0.0)*
G04 #@! TF.CreationDate,2019-03-13T17:39:27+01:00*
G04 #@! TF.ProjectId,foam_cutting,666F616D5F63757474696E672E6B6963,100A*
G04 #@! TF.SameCoordinates,Original*
G04 #@! TF.FileFunction,Copper,L2,Bot,Signal*
G04 #@! TF.FilePolarity,Positive*
%FSLAX46Y46*%
G04 Gerber Fmt 4.6, Leading zero omitted, Abs format (unit mm)*
G04 Created by KiCad (PCBNEW (5.0.0)) date 03/13/19 17:39:27*
%MOMM*%
%LPD*%
G01*
G04 APERTURE LIST*
G04 #@! TA.AperFunction,ComponentPad*
%ADD10R,6.000000X4.500000*%
G04 #@! TD*
G04 #@! TA.AperFunction,ComponentPad*
%ADD11R,5.500000X4.500000*%
G04 #@! TD*
G04 #@! TA.AperFunction,SMDPad,CuDef*
%ADD12R,3.300000X1.500000*%
G04 #@! TD*
G04 #@! TA.AperFunction,ViaPad*
%ADD13C,0.800000*%
G04 #@! TD*
G04 #@! TA.AperFunction,Conductor*
%ADD14C,0.800000*%
G04 #@! TD*
G04 #@! TA.AperFunction,Conductor*
%ADD15C,2.000000*%
G04 #@! TD*
G04 #@! TA.AperFunction,Conductor*
%ADD16C,0.250000*%
G04 #@! TD*
G04 #@! TA.AperFunction,Conductor*
%ADD17C,0.254000*%
G04 #@! TD*
G04 APERTURE END LIST*
D10*
G04 #@! TO.P,J1,1*
G04 #@! TO.N,GND*
X124800000Y-56300000D03*
D11*
X130300000Y-56300000D03*
D10*
X124790000Y-60500000D03*
D11*
X130300000Y-60500000D03*
D10*
G04 #@! TO.P,J1,2*
G04 #@! TO.N,Net-(J1-Pad2)*
X124800000Y-65410000D03*
D11*
X130300000Y-65410000D03*
X130290000Y-69600000D03*
D10*
X124800000Y-69590000D03*
G04 #@! TD*
D12*
G04 #@! TO.P,J2,10*
G04 #@! TO.N,VCC*
X145300000Y-68050000D03*
G04 #@! TO.P,J2,8*
G04 #@! TO.N,Net-(J2-Pad8)*
X145300000Y-65500000D03*
G04 #@! TO.P,J2,6*
G04 #@! TO.N,Net-(J2-Pad6)*
X145300000Y-62950000D03*
G04 #@! TO.P,J2,4*
G04 #@! TO.N,Net-(J2-Pad4)*
X145300000Y-60400000D03*
G04 #@! TO.P,J2,2*
G04 #@! TO.N,GND*
X145300000Y-57850000D03*
G04 #@! TD*
D13*
G04 #@! TO.N,VCC*
X140000000Y-67200000D03*
G04 #@! TO.N,GND*
X139650000Y-59200000D03*
X135700000Y-58900000D03*
X135100000Y-57300000D03*
G04 #@! TO.N,Net-(J2-Pad8)*
X141800000Y-65250000D03*
G04 #@! TD*
D14*
G04 #@! TO.N,VCC*
X140850000Y-68050000D02*
X140000000Y-67200000D01*
X145300000Y-68050000D02*
X140850000Y-68050000D01*
D15*
G04 #@! TO.N,GND*
X130600000Y-60200000D02*
X133700000Y-60200000D01*
X130600000Y-56600000D02*
X133900000Y-56600000D01*
D16*
G04 #@! TO.N,Net-(J2-Pad8)*
X145050000Y-65250000D02*
X145300000Y-65500000D01*
X141800000Y-65250000D02*
X145050000Y-65250000D01*
G04 #@! TD*
D17*
G04 #@! TO.N,GND*
G36*
X146573000Y-56465000D02*
X145585750Y-56465000D01*
X145427000Y-56623750D01*
X145427000Y-57723000D01*
X145447000Y-57723000D01*
X145447000Y-57977000D01*
X145427000Y-57977000D01*
X145427000Y-57997000D01*
X145173000Y-57997000D01*
X145173000Y-57977000D01*
X143173750Y-57977000D01*
X143015000Y-58135750D01*
X143015000Y-58726309D01*
X143111673Y-58959698D01*
X143290301Y-59138327D01*
X143399503Y-59183560D01*
X143270055Y-59270055D01*
X143153577Y-59444375D01*
X143112676Y-59650000D01*
X143112676Y-61150000D01*
X143153577Y-61355625D01*
X143270055Y-61529945D01*
X143444375Y-61646423D01*
X143588043Y-61675000D01*
X143444375Y-61703577D01*
X143270055Y-61820055D01*
X143153577Y-61994375D01*
X143112676Y-62200000D01*
X143112676Y-63700000D01*
X143153577Y-63905625D01*
X143270055Y-64079945D01*
X143444375Y-64196423D01*
X143588043Y-64225000D01*
X143444375Y-64253577D01*
X143270055Y-64370055D01*
X143153577Y-64544375D01*
X143142910Y-64598000D01*
X142458976Y-64598000D01*
X142325103Y-64464127D01*
X141984392Y-64323000D01*
X141615608Y-64323000D01*
X141274897Y-64464127D01*
X141014127Y-64724897D01*
X140873000Y-65065608D01*
X140873000Y-65434392D01*
X141014127Y-65775103D01*
X141274897Y-66035873D01*
X141615608Y-66177000D01*
X141984392Y-66177000D01*
X142325103Y-66035873D01*
X142458976Y-65902000D01*
X143112676Y-65902000D01*
X143112676Y-66250000D01*
X143153577Y-66455625D01*
X143270055Y-66629945D01*
X143444375Y-66746423D01*
X143588043Y-66775000D01*
X143444375Y-66803577D01*
X143270055Y-66920055D01*
X143153577Y-67094375D01*
X143147883Y-67123000D01*
X141233976Y-67123000D01*
X140525103Y-66414127D01*
X140439094Y-66378501D01*
X140361697Y-66326786D01*
X140270400Y-66308626D01*
X140184392Y-66273000D01*
X140091300Y-66273000D01*
X140000000Y-66254839D01*
X139908700Y-66273000D01*
X139815608Y-66273000D01*
X139729600Y-66308626D01*
X139638303Y-66326786D01*
X139560906Y-66378501D01*
X139474897Y-66414127D01*
X139409068Y-66479956D01*
X139331671Y-66531671D01*
X139279956Y-66609068D01*
X139214127Y-66674897D01*
X139178501Y-66760906D01*
X139126786Y-66838303D01*
X139108626Y-66929600D01*
X139073000Y-67015608D01*
X139073000Y-67108700D01*
X139054839Y-67200000D01*
X139073000Y-67291300D01*
X139073000Y-67384392D01*
X139108626Y-67470400D01*
X139126786Y-67561697D01*
X139178501Y-67639094D01*
X139214127Y-67725103D01*
X140129951Y-68640927D01*
X140181670Y-68718330D01*
X140488303Y-68923215D01*
X140758698Y-68977000D01*
X140758699Y-68977000D01*
X140850000Y-68995161D01*
X140941301Y-68977000D01*
X143147883Y-68977000D01*
X143153577Y-69005625D01*
X143270055Y-69179945D01*
X143444375Y-69296423D01*
X143650000Y-69337324D01*
X146573001Y-69337324D01*
X146573001Y-70873000D01*
X133577324Y-70873000D01*
X133577324Y-67710274D01*
X133587324Y-67660000D01*
X133587324Y-63160000D01*
X133579145Y-63118881D01*
X133588327Y-63109699D01*
X133685000Y-62876310D01*
X133685000Y-60785750D01*
X133526250Y-60627000D01*
X130427000Y-60627000D01*
X130427000Y-60647000D01*
X130173000Y-60647000D01*
X130173000Y-60627000D01*
X124917000Y-60627000D01*
X124917000Y-60647000D01*
X124663000Y-60647000D01*
X124663000Y-60627000D01*
X124643000Y-60627000D01*
X124643000Y-60373000D01*
X124663000Y-60373000D01*
X124663000Y-59036250D01*
X124673000Y-59026250D01*
X124673000Y-57773750D01*
X124917000Y-57773750D01*
X124917000Y-60373000D01*
X130173000Y-60373000D01*
X130173000Y-56427000D01*
X130427000Y-56427000D01*
X130427000Y-60373000D01*
X133526250Y-60373000D01*
X133685000Y-60214250D01*
X133685000Y-56973691D01*
X143015000Y-56973691D01*
X143015000Y-57564250D01*
X143173750Y-57723000D01*
X145173000Y-57723000D01*
X145173000Y-56623750D01*
X145014250Y-56465000D01*
X143523690Y-56465000D01*
X143290301Y-56561673D01*
X143111673Y-56740302D01*
X143015000Y-56973691D01*
X133685000Y-56973691D01*
X133685000Y-56585750D01*
X133526250Y-56427000D01*
X130427000Y-56427000D01*
X130173000Y-56427000D01*
X124927000Y-56427000D01*
X124927000Y-57763750D01*
X124917000Y-57773750D01*
X124673000Y-57773750D01*
X124673000Y-56427000D01*
X124653000Y-56427000D01*
X124653000Y-56173000D01*
X124673000Y-56173000D01*
X124673000Y-56153000D01*
X124927000Y-56153000D01*
X124927000Y-56173000D01*
X130173000Y-56173000D01*
X130173000Y-56153000D01*
X130427000Y-56153000D01*
X130427000Y-56173000D01*
X133526250Y-56173000D01*
X133685000Y-56014250D01*
X133685000Y-54977000D01*
X146573000Y-54977000D01*
X146573000Y-56465000D01*
X146573000Y-56465000D01*
G37*
X146573000Y-56465000D02*
X145585750Y-56465000D01*
X145427000Y-56623750D01*
X145427000Y-57723000D01*
X145447000Y-57723000D01*
X145447000Y-57977000D01*
X145427000Y-57977000D01*
X145427000Y-57997000D01*
X145173000Y-57997000D01*
X145173000Y-57977000D01*
X143173750Y-57977000D01*
X143015000Y-58135750D01*
X143015000Y-58726309D01*
X143111673Y-58959698D01*
X143290301Y-59138327D01*
X143399503Y-59183560D01*
X143270055Y-59270055D01*
X143153577Y-59444375D01*
X143112676Y-59650000D01*
X143112676Y-61150000D01*
X143153577Y-61355625D01*
X143270055Y-61529945D01*
X143444375Y-61646423D01*
X143588043Y-61675000D01*
X143444375Y-61703577D01*
X143270055Y-61820055D01*
X143153577Y-61994375D01*
X143112676Y-62200000D01*
X143112676Y-63700000D01*
X143153577Y-63905625D01*
X143270055Y-64079945D01*
X143444375Y-64196423D01*
X143588043Y-64225000D01*
X143444375Y-64253577D01*
X143270055Y-64370055D01*
X143153577Y-64544375D01*
X143142910Y-64598000D01*
X142458976Y-64598000D01*
X142325103Y-64464127D01*
X141984392Y-64323000D01*
X141615608Y-64323000D01*
X141274897Y-64464127D01*
X141014127Y-64724897D01*
X140873000Y-65065608D01*
X140873000Y-65434392D01*
X141014127Y-65775103D01*
X141274897Y-66035873D01*
X141615608Y-66177000D01*
X141984392Y-66177000D01*
X142325103Y-66035873D01*
X142458976Y-65902000D01*
X143112676Y-65902000D01*
X143112676Y-66250000D01*
X143153577Y-66455625D01*
X143270055Y-66629945D01*
X143444375Y-66746423D01*
X143588043Y-66775000D01*
X143444375Y-66803577D01*
X143270055Y-66920055D01*
X143153577Y-67094375D01*
X143147883Y-67123000D01*
X141233976Y-67123000D01*
X140525103Y-66414127D01*
X140439094Y-66378501D01*
X140361697Y-66326786D01*
X140270400Y-66308626D01*
X140184392Y-66273000D01*
X140091300Y-66273000D01*
X140000000Y-66254839D01*
X139908700Y-66273000D01*
X139815608Y-66273000D01*
X139729600Y-66308626D01*
X139638303Y-66326786D01*
X139560906Y-66378501D01*
X139474897Y-66414127D01*
X139409068Y-66479956D01*
X139331671Y-66531671D01*
X139279956Y-66609068D01*
X139214127Y-66674897D01*
X139178501Y-66760906D01*
X139126786Y-66838303D01*
X139108626Y-66929600D01*
X139073000Y-67015608D01*
X139073000Y-67108700D01*
X139054839Y-67200000D01*
X139073000Y-67291300D01*
X139073000Y-67384392D01*
X139108626Y-67470400D01*
X139126786Y-67561697D01*
X139178501Y-67639094D01*
X139214127Y-67725103D01*
X140129951Y-68640927D01*
X140181670Y-68718330D01*
X140488303Y-68923215D01*
X140758698Y-68977000D01*
X140758699Y-68977000D01*
X140850000Y-68995161D01*
X140941301Y-68977000D01*
X143147883Y-68977000D01*
X143153577Y-69005625D01*
X143270055Y-69179945D01*
X143444375Y-69296423D01*
X143650000Y-69337324D01*
X146573001Y-69337324D01*
X146573001Y-70873000D01*
X133577324Y-70873000D01*
X133577324Y-67710274D01*
X133587324Y-67660000D01*
X133587324Y-63160000D01*
X133579145Y-63118881D01*
X133588327Y-63109699D01*
X133685000Y-62876310D01*
X133685000Y-60785750D01*
X133526250Y-60627000D01*
X130427000Y-60627000D01*
X130427000Y-60647000D01*
X130173000Y-60647000D01*
X130173000Y-60627000D01*
X124917000Y-60627000D01*
X124917000Y-60647000D01*
X124663000Y-60647000D01*
X124663000Y-60627000D01*
X124643000Y-60627000D01*
X124643000Y-60373000D01*
X124663000Y-60373000D01*
X124663000Y-59036250D01*
X124673000Y-59026250D01*
X124673000Y-57773750D01*
X124917000Y-57773750D01*
X124917000Y-60373000D01*
X130173000Y-60373000D01*
X130173000Y-56427000D01*
X130427000Y-56427000D01*
X130427000Y-60373000D01*
X133526250Y-60373000D01*
X133685000Y-60214250D01*
X133685000Y-56973691D01*
X143015000Y-56973691D01*
X143015000Y-57564250D01*
X143173750Y-57723000D01*
X145173000Y-57723000D01*
X145173000Y-56623750D01*
X145014250Y-56465000D01*
X143523690Y-56465000D01*
X143290301Y-56561673D01*
X143111673Y-56740302D01*
X143015000Y-56973691D01*
X133685000Y-56973691D01*
X133685000Y-56585750D01*
X133526250Y-56427000D01*
X130427000Y-56427000D01*
X130173000Y-56427000D01*
X124927000Y-56427000D01*
X124927000Y-57763750D01*
X124917000Y-57773750D01*
X124673000Y-57773750D01*
X124673000Y-56427000D01*
X124653000Y-56427000D01*
X124653000Y-56173000D01*
X124673000Y-56173000D01*
X124673000Y-56153000D01*
X124927000Y-56153000D01*
X124927000Y-56173000D01*
X130173000Y-56173000D01*
X130173000Y-56153000D01*
X130427000Y-56153000D01*
X130427000Y-56173000D01*
X133526250Y-56173000D01*
X133685000Y-56014250D01*
X133685000Y-54977000D01*
X146573000Y-54977000D01*
X146573000Y-56465000D01*
G04 #@! TD*
M02*
