G04 #@! TF.GenerationSoftware,KiCad,Pcbnew,(5.0.0)*
G04 #@! TF.CreationDate,2019-03-13T17:39:27+01:00*
G04 #@! TF.ProjectId,foam_cutting,666F616D5F63757474696E672E6B6963,100A*
G04 #@! TF.SameCoordinates,Original*
G04 #@! TF.FileFunction,Soldermask,Bot*
G04 #@! TF.FilePolarity,Negative*
%FSLAX46Y46*%
G04 Gerber Fmt 4.6, Leading zero omitted, Abs format (unit mm)*
G04 Created by KiCad (PCBNEW (5.0.0)) date 03/13/19 17:39:27*
%MOMM*%
%LPD*%
G01*
G04 APERTURE LIST*
%ADD10C,0.250000*%
%ADD11R,6.240000X4.740000*%
%ADD12R,5.740000X4.740000*%
%ADD13R,3.540000X1.740000*%
G04 APERTURE END LIST*
D10*
X137802380Y-59207142D02*
X136802380Y-59207142D01*
X137802380Y-59778571D02*
X137230952Y-59350000D01*
X136802380Y-59778571D02*
X137373809Y-59207142D01*
X137802380Y-60207142D02*
X136802380Y-60207142D01*
X136802380Y-60540476D02*
X136802380Y-61111904D01*
X137802380Y-60826190D02*
X136802380Y-60826190D01*
X137897619Y-61207142D02*
X137897619Y-61969047D01*
X137278571Y-62540476D02*
X137278571Y-62207142D01*
X137802380Y-62207142D02*
X136802380Y-62207142D01*
X136802380Y-62683333D01*
X136802380Y-63254761D02*
X136802380Y-63445238D01*
X136850000Y-63540476D01*
X136945238Y-63635714D01*
X137135714Y-63683333D01*
X137469047Y-63683333D01*
X137659523Y-63635714D01*
X137754761Y-63540476D01*
X137802380Y-63445238D01*
X137802380Y-63254761D01*
X137754761Y-63159523D01*
X137659523Y-63064285D01*
X137469047Y-63016666D01*
X137135714Y-63016666D01*
X136945238Y-63064285D01*
X136850000Y-63159523D01*
X136802380Y-63254761D01*
X137516666Y-64064285D02*
X137516666Y-64540476D01*
X137802380Y-63969047D02*
X136802380Y-64302380D01*
X137802380Y-64635714D01*
X137802380Y-64969047D02*
X136802380Y-64969047D01*
X137516666Y-65302380D01*
X136802380Y-65635714D01*
X137802380Y-65635714D01*
X137802380Y-66635714D02*
X137802380Y-66064285D01*
X137802380Y-66350000D02*
X136802380Y-66350000D01*
X136945238Y-66254761D01*
X137040476Y-66159523D01*
X137088095Y-66064285D01*
X136802380Y-67254761D02*
X136802380Y-67350000D01*
X136850000Y-67445238D01*
X136897619Y-67492857D01*
X136992857Y-67540476D01*
X137183333Y-67588095D01*
X137421428Y-67588095D01*
X137611904Y-67540476D01*
X137707142Y-67492857D01*
X137754761Y-67445238D01*
X137802380Y-67350000D01*
X137802380Y-67254761D01*
X137754761Y-67159523D01*
X137707142Y-67111904D01*
X137611904Y-67064285D01*
X137421428Y-67016666D01*
X137183333Y-67016666D01*
X136992857Y-67064285D01*
X136897619Y-67111904D01*
X136850000Y-67159523D01*
X136802380Y-67254761D01*
X136802380Y-68207142D02*
X136802380Y-68302380D01*
X136850000Y-68397619D01*
X136897619Y-68445238D01*
X136992857Y-68492857D01*
X137183333Y-68540476D01*
X137421428Y-68540476D01*
X137611904Y-68492857D01*
X137707142Y-68445238D01*
X137754761Y-68397619D01*
X137802380Y-68302380D01*
X137802380Y-68207142D01*
X137754761Y-68111904D01*
X137707142Y-68064285D01*
X137611904Y-68016666D01*
X137421428Y-67969047D01*
X137183333Y-67969047D01*
X136992857Y-68016666D01*
X136897619Y-68064285D01*
X136850000Y-68111904D01*
X136802380Y-68207142D01*
D11*
G04 #@! TO.C,J1*
X124800000Y-56300000D03*
D12*
X130300000Y-56300000D03*
D11*
X124790000Y-60500000D03*
D12*
X130300000Y-60500000D03*
D11*
X124800000Y-65410000D03*
D12*
X130300000Y-65410000D03*
X130290000Y-69600000D03*
D11*
X124800000Y-69590000D03*
G04 #@! TD*
D13*
G04 #@! TO.C,J2*
X145300000Y-68050000D03*
X145300000Y-65500000D03*
X145300000Y-62950000D03*
X145300000Y-60400000D03*
X145300000Y-57850000D03*
G04 #@! TD*
M02*
