G04 #@! TF.GenerationSoftware,KiCad,Pcbnew,(5.0.0)*
G04 #@! TF.CreationDate,2019-03-13T17:39:27+01:00*
G04 #@! TF.ProjectId,foam_cutting,666F616D5F63757474696E672E6B6963,100A*
G04 #@! TF.SameCoordinates,Original*
G04 #@! TF.FileFunction,Copper,L1,Top,Signal*
G04 #@! TF.FilePolarity,Positive*
%FSLAX46Y46*%
G04 Gerber Fmt 4.6, Leading zero omitted, Abs format (unit mm)*
G04 Created by KiCad (PCBNEW (5.0.0)) date 03/13/19 17:39:27*
%MOMM*%
%LPD*%
G01*
G04 APERTURE LIST*
G04 #@! TA.AperFunction,ComponentPad*
%ADD10R,6.000000X4.500000*%
G04 #@! TD*
G04 #@! TA.AperFunction,ComponentPad*
%ADD11R,5.500000X4.500000*%
G04 #@! TD*
G04 #@! TA.AperFunction,SMDPad,CuDef*
%ADD12R,1.300000X1.550000*%
G04 #@! TD*
G04 #@! TA.AperFunction,SMDPad,CuDef*
%ADD13R,3.300000X1.500000*%
G04 #@! TD*
G04 #@! TA.AperFunction,SMDPad,CuDef*
%ADD14R,0.800000X0.900000*%
G04 #@! TD*
G04 #@! TA.AperFunction,SMDPad,CuDef*
%ADD15R,0.800000X0.750000*%
G04 #@! TD*
G04 #@! TA.AperFunction,ViaPad*
%ADD16C,0.800000*%
G04 #@! TD*
G04 #@! TA.AperFunction,Conductor*
%ADD17C,0.800000*%
G04 #@! TD*
G04 #@! TA.AperFunction,Conductor*
%ADD18C,2.000000*%
G04 #@! TD*
G04 #@! TA.AperFunction,Conductor*
%ADD19C,0.250000*%
G04 #@! TD*
G04 APERTURE END LIST*
D10*
G04 #@! TO.P,J1,1*
G04 #@! TO.N,GND*
X124800000Y-56300000D03*
D11*
X130300000Y-56300000D03*
D10*
X124790000Y-60500000D03*
D11*
X130300000Y-60500000D03*
D10*
G04 #@! TO.P,J1,2*
G04 #@! TO.N,Net-(J1-Pad2)*
X124800000Y-65410000D03*
D11*
X130300000Y-65410000D03*
X130290000Y-69600000D03*
D10*
X124800000Y-69590000D03*
G04 #@! TD*
D12*
G04 #@! TO.P,SW1,2*
G04 #@! TO.N,GND*
X137300000Y-58950000D03*
G04 #@! TO.P,SW1,1*
G04 #@! TO.N,Net-(J2-Pad8)*
X141800000Y-58950000D03*
G04 #@! TO.P,SW1,2*
G04 #@! TO.N,GND*
X137300000Y-66950000D03*
G04 #@! TO.P,SW1,1*
G04 #@! TO.N,Net-(J2-Pad8)*
X141800000Y-66950000D03*
G04 #@! TD*
D13*
G04 #@! TO.P,J2,9*
G04 #@! TO.N,Net-(J1-Pad2)*
X145300000Y-68050000D03*
G04 #@! TO.P,J2,7*
G04 #@! TO.N,Net-(J2-Pad7)*
X145300000Y-65500000D03*
G04 #@! TO.P,J2,5*
G04 #@! TO.N,Net-(J2-Pad5)*
X145300000Y-62950000D03*
G04 #@! TO.P,J2,3*
G04 #@! TO.N,Net-(J2-Pad3)*
X145300000Y-60400000D03*
G04 #@! TO.P,J2,1*
G04 #@! TO.N,Net-(J2-Pad1)*
X145300000Y-57850000D03*
G04 #@! TD*
D14*
G04 #@! TO.P,U1,1*
G04 #@! TO.N,Net-(J2-Pad1)*
X140550000Y-55850000D03*
G04 #@! TO.P,U1,2*
G04 #@! TO.N,VCC*
X138650000Y-55850000D03*
G04 #@! TO.P,U1,3*
G04 #@! TO.N,GND*
X139600000Y-57850000D03*
G04 #@! TD*
D15*
G04 #@! TO.P,C1,2*
G04 #@! TO.N,GND*
X135150000Y-55850000D03*
G04 #@! TO.P,C1,1*
G04 #@! TO.N,VCC*
X136650000Y-55850000D03*
G04 #@! TD*
D16*
G04 #@! TO.N,VCC*
X140000000Y-67200000D03*
G04 #@! TO.N,GND*
X139650000Y-59200000D03*
X135700000Y-58900000D03*
X135100000Y-57300000D03*
G04 #@! TO.N,Net-(J2-Pad8)*
X141800000Y-65250000D03*
G04 #@! TD*
D17*
G04 #@! TO.N,VCC*
X136650000Y-55850000D02*
X138650000Y-55850000D01*
X138650000Y-57100000D02*
X138600000Y-57150000D01*
X138650000Y-55850000D02*
X138650000Y-57100000D01*
X138600000Y-57150000D02*
X138600000Y-65800000D01*
X138600000Y-65800000D02*
X140000000Y-67200000D01*
D18*
G04 #@! TO.N,GND*
X125100000Y-60190000D02*
X125090000Y-60200000D01*
X125100000Y-56600000D02*
X125100000Y-60190000D01*
X125100000Y-56600000D02*
X130600000Y-56600000D01*
X130600000Y-56600000D02*
X130600000Y-60200000D01*
D19*
X139600000Y-57850000D02*
X139600000Y-59150000D01*
X139600000Y-59150000D02*
X139650000Y-59200000D01*
X137300000Y-59975000D02*
X137300000Y-66950000D01*
X137300000Y-58950000D02*
X137300000Y-59975000D01*
X137300000Y-58950000D02*
X135750000Y-58950000D01*
X135750000Y-58950000D02*
X135700000Y-58900000D01*
X135150000Y-55850000D02*
X135150000Y-57250000D01*
X135150000Y-57250000D02*
X135100000Y-57300000D01*
G04 #@! TO.N,Net-(J2-Pad1)*
X145300000Y-56850000D02*
X145300000Y-57850000D01*
X144300000Y-55850000D02*
X145300000Y-56850000D01*
X140550000Y-55850000D02*
X144300000Y-55850000D01*
G04 #@! TO.N,Net-(J2-Pad8)*
X141800000Y-66950000D02*
X141800000Y-65250000D01*
X141800000Y-58950000D02*
X141800000Y-65250000D01*
D18*
G04 #@! TO.N,Net-(J1-Pad2)*
X131290000Y-70000000D02*
X130590000Y-69300000D01*
X145300000Y-68050000D02*
X143350000Y-70000000D01*
X143350000Y-70000000D02*
X131290000Y-70000000D01*
X130590000Y-65720000D02*
X130600000Y-65710000D01*
X130590000Y-69300000D02*
X130590000Y-65720000D01*
X125110000Y-69300000D02*
X125100000Y-69290000D01*
X130590000Y-69300000D02*
X125110000Y-69300000D01*
X125100000Y-69290000D02*
X125100000Y-65710000D01*
G04 #@! TD*
M02*
