G04 #@! TF.GenerationSoftware,KiCad,Pcbnew,no-vcs-found*
G04 #@! TF.CreationDate,2018-05-22T13:07:31+02:00*
G04 #@! TF.ProjectId,3dsimo_kit,336473696D6F5F6B69742E6B69636164,100A*
G04 #@! TF.SameCoordinates,Original
G04 #@! TF.FileFunction,Soldermask,Bot*
G04 #@! TF.FilePolarity,Negative*
%FSLAX46Y46*%
G04 Gerber Fmt 4.6, Leading zero omitted, Abs format (unit mm)*
G04 Created by KiCad (PCBNEW no-vcs-found) date 05/22/18 13:07:31*
%MOMM*%
%LPD*%
G01*
G04 APERTURE LIST*
%ADD10C,0.100000*%
%ADD11C,0.250000*%
%ADD12O,1.940000X1.940000*%
%ADD13R,1.940000X1.940000*%
%ADD14O,1.840000X1.840000*%
%ADD15R,1.840000X1.840000*%
%ADD16R,1.040000X0.990000*%
%ADD17C,2.000000*%
%ADD18C,2.240000*%
%ADD19C,1.940000*%
%ADD20R,1.140000X1.090000*%
%ADD21R,0.890000X0.590000*%
%ADD22R,3.240000X3.040000*%
%ADD23R,0.990000X1.040000*%
%ADD24R,1.140000X0.740000*%
G04 APERTURE END LIST*
D10*
D11*
X66527380Y-53790476D02*
X66527380Y-53885714D01*
X66575000Y-53980952D01*
X66622619Y-54028571D01*
X66717857Y-54076190D01*
X66908333Y-54123809D01*
X67146428Y-54123809D01*
X67336904Y-54076190D01*
X67432142Y-54028571D01*
X67479761Y-53980952D01*
X67527380Y-53885714D01*
X67527380Y-53790476D01*
X67479761Y-53695238D01*
X67432142Y-53647619D01*
X67336904Y-53600000D01*
X67146428Y-53552380D01*
X66908333Y-53552380D01*
X66717857Y-53600000D01*
X66622619Y-53647619D01*
X66575000Y-53695238D01*
X66527380Y-53790476D01*
X67527380Y-55076190D02*
X67527380Y-54504761D01*
X67527380Y-54790476D02*
X66527380Y-54790476D01*
X66670238Y-54695238D01*
X66765476Y-54600000D01*
X66813095Y-54504761D01*
X66527380Y-55980952D02*
X66527380Y-55504761D01*
X67003571Y-55457142D01*
X66955952Y-55504761D01*
X66908333Y-55600000D01*
X66908333Y-55838095D01*
X66955952Y-55933333D01*
X67003571Y-55980952D01*
X67098809Y-56028571D01*
X67336904Y-56028571D01*
X67432142Y-55980952D01*
X67479761Y-55933333D01*
X67527380Y-55838095D01*
X67527380Y-55600000D01*
X67479761Y-55504761D01*
X67432142Y-55457142D01*
X67146428Y-56457142D02*
X67146428Y-57219047D01*
X66527380Y-57600000D02*
X66527380Y-58219047D01*
X66908333Y-57885714D01*
X66908333Y-58028571D01*
X66955952Y-58123809D01*
X67003571Y-58171428D01*
X67098809Y-58219047D01*
X67336904Y-58219047D01*
X67432142Y-58171428D01*
X67479761Y-58123809D01*
X67527380Y-58028571D01*
X67527380Y-57742857D01*
X67479761Y-57647619D01*
X67432142Y-57600000D01*
X67527380Y-58647619D02*
X66527380Y-58647619D01*
X66527380Y-58885714D01*
X66575000Y-59028571D01*
X66670238Y-59123809D01*
X66765476Y-59171428D01*
X66955952Y-59219047D01*
X67098809Y-59219047D01*
X67289285Y-59171428D01*
X67384523Y-59123809D01*
X67479761Y-59028571D01*
X67527380Y-58885714D01*
X67527380Y-58647619D01*
X67479761Y-59600000D02*
X67527380Y-59695238D01*
X67527380Y-59885714D01*
X67479761Y-59980952D01*
X67384523Y-60028571D01*
X67336904Y-60028571D01*
X67241666Y-59980952D01*
X67194047Y-59885714D01*
X67194047Y-59742857D01*
X67146428Y-59647619D01*
X67051190Y-59600000D01*
X67003571Y-59600000D01*
X66908333Y-59647619D01*
X66860714Y-59742857D01*
X66860714Y-59885714D01*
X66908333Y-59980952D01*
X67527380Y-60457142D02*
X66860714Y-60457142D01*
X66527380Y-60457142D02*
X66575000Y-60409523D01*
X66622619Y-60457142D01*
X66575000Y-60504761D01*
X66527380Y-60457142D01*
X66622619Y-60457142D01*
X67527380Y-60933333D02*
X66860714Y-60933333D01*
X66955952Y-60933333D02*
X66908333Y-60980952D01*
X66860714Y-61076190D01*
X66860714Y-61219047D01*
X66908333Y-61314285D01*
X67003571Y-61361904D01*
X67527380Y-61361904D01*
X67003571Y-61361904D02*
X66908333Y-61409523D01*
X66860714Y-61504761D01*
X66860714Y-61647619D01*
X66908333Y-61742857D01*
X67003571Y-61790476D01*
X67527380Y-61790476D01*
X67527380Y-62409523D02*
X67479761Y-62314285D01*
X67432142Y-62266666D01*
X67336904Y-62219047D01*
X67051190Y-62219047D01*
X66955952Y-62266666D01*
X66908333Y-62314285D01*
X66860714Y-62409523D01*
X66860714Y-62552380D01*
X66908333Y-62647619D01*
X66955952Y-62695238D01*
X67051190Y-62742857D01*
X67336904Y-62742857D01*
X67432142Y-62695238D01*
X67479761Y-62647619D01*
X67527380Y-62552380D01*
X67527380Y-62409523D01*
X67527380Y-63171428D02*
X66527380Y-63171428D01*
X67527380Y-63742857D02*
X66955952Y-63314285D01*
X66527380Y-63742857D02*
X67098809Y-63171428D01*
X67527380Y-64171428D02*
X66860714Y-64171428D01*
X66527380Y-64171428D02*
X66575000Y-64123809D01*
X66622619Y-64171428D01*
X66575000Y-64219047D01*
X66527380Y-64171428D01*
X66622619Y-64171428D01*
X66860714Y-64504761D02*
X66860714Y-64885714D01*
X66527380Y-64647619D02*
X67384523Y-64647619D01*
X67479761Y-64695238D01*
X67527380Y-64790476D01*
X67527380Y-64885714D01*
X67527380Y-65742857D02*
X67527380Y-65171428D01*
X67527380Y-65457142D02*
X66527380Y-65457142D01*
X66670238Y-65361904D01*
X66765476Y-65266666D01*
X66813095Y-65171428D01*
X66527380Y-66361904D02*
X66527380Y-66457142D01*
X66575000Y-66552380D01*
X66622619Y-66600000D01*
X66717857Y-66647619D01*
X66908333Y-66695238D01*
X67146428Y-66695238D01*
X67336904Y-66647619D01*
X67432142Y-66600000D01*
X67479761Y-66552380D01*
X67527380Y-66457142D01*
X67527380Y-66361904D01*
X67479761Y-66266666D01*
X67432142Y-66219047D01*
X67336904Y-66171428D01*
X67146428Y-66123809D01*
X66908333Y-66123809D01*
X66717857Y-66171428D01*
X66622619Y-66219047D01*
X66575000Y-66266666D01*
X66527380Y-66361904D01*
X67527380Y-67647619D02*
X67527380Y-67076190D01*
X67527380Y-67361904D02*
X66527380Y-67361904D01*
X66670238Y-67266666D01*
X66765476Y-67171428D01*
X66813095Y-67076190D01*
X68277380Y-54742857D02*
X68277380Y-54933333D01*
X68325000Y-55028571D01*
X68420238Y-55123809D01*
X68610714Y-55171428D01*
X68944047Y-55171428D01*
X69134523Y-55123809D01*
X69229761Y-55028571D01*
X69277380Y-54933333D01*
X69277380Y-54742857D01*
X69229761Y-54647619D01*
X69134523Y-54552380D01*
X68944047Y-54504761D01*
X68610714Y-54504761D01*
X68420238Y-54552380D01*
X68325000Y-54647619D01*
X68277380Y-54742857D01*
X69277380Y-55600000D02*
X68277380Y-55600000D01*
X69277380Y-56171428D01*
X68277380Y-56171428D01*
X68372619Y-57361904D02*
X68325000Y-57409523D01*
X68277380Y-57504761D01*
X68277380Y-57742857D01*
X68325000Y-57838095D01*
X68372619Y-57885714D01*
X68467857Y-57933333D01*
X68563095Y-57933333D01*
X68705952Y-57885714D01*
X69277380Y-57314285D01*
X69277380Y-57933333D01*
X68372619Y-58314285D02*
X68325000Y-58361904D01*
X68277380Y-58457142D01*
X68277380Y-58695238D01*
X68325000Y-58790476D01*
X68372619Y-58838095D01*
X68467857Y-58885714D01*
X68563095Y-58885714D01*
X68705952Y-58838095D01*
X69277380Y-58266666D01*
X69277380Y-58885714D01*
X68229761Y-60028571D02*
X69515476Y-59171428D01*
X68277380Y-60552380D02*
X68277380Y-60647619D01*
X68325000Y-60742857D01*
X68372619Y-60790476D01*
X68467857Y-60838095D01*
X68658333Y-60885714D01*
X68896428Y-60885714D01*
X69086904Y-60838095D01*
X69182142Y-60790476D01*
X69229761Y-60742857D01*
X69277380Y-60647619D01*
X69277380Y-60552380D01*
X69229761Y-60457142D01*
X69182142Y-60409523D01*
X69086904Y-60361904D01*
X68896428Y-60314285D01*
X68658333Y-60314285D01*
X68467857Y-60361904D01*
X68372619Y-60409523D01*
X68325000Y-60457142D01*
X68277380Y-60552380D01*
X68277380Y-61790476D02*
X68277380Y-61314285D01*
X68753571Y-61266666D01*
X68705952Y-61314285D01*
X68658333Y-61409523D01*
X68658333Y-61647619D01*
X68705952Y-61742857D01*
X68753571Y-61790476D01*
X68848809Y-61838095D01*
X69086904Y-61838095D01*
X69182142Y-61790476D01*
X69229761Y-61742857D01*
X69277380Y-61647619D01*
X69277380Y-61409523D01*
X69229761Y-61314285D01*
X69182142Y-61266666D01*
X68229761Y-62980952D02*
X69515476Y-62123809D01*
X68372619Y-63266666D02*
X68325000Y-63314285D01*
X68277380Y-63409523D01*
X68277380Y-63647619D01*
X68325000Y-63742857D01*
X68372619Y-63790476D01*
X68467857Y-63838095D01*
X68563095Y-63838095D01*
X68705952Y-63790476D01*
X69277380Y-63219047D01*
X69277380Y-63838095D01*
X68277380Y-64457142D02*
X68277380Y-64552380D01*
X68325000Y-64647619D01*
X68372619Y-64695238D01*
X68467857Y-64742857D01*
X68658333Y-64790476D01*
X68896428Y-64790476D01*
X69086904Y-64742857D01*
X69182142Y-64695238D01*
X69229761Y-64647619D01*
X69277380Y-64552380D01*
X69277380Y-64457142D01*
X69229761Y-64361904D01*
X69182142Y-64314285D01*
X69086904Y-64266666D01*
X68896428Y-64219047D01*
X68658333Y-64219047D01*
X68467857Y-64266666D01*
X68372619Y-64314285D01*
X68325000Y-64361904D01*
X68277380Y-64457142D01*
X69277380Y-65742857D02*
X69277380Y-65171428D01*
X69277380Y-65457142D02*
X68277380Y-65457142D01*
X68420238Y-65361904D01*
X68515476Y-65266666D01*
X68563095Y-65171428D01*
X68705952Y-66314285D02*
X68658333Y-66219047D01*
X68610714Y-66171428D01*
X68515476Y-66123809D01*
X68467857Y-66123809D01*
X68372619Y-66171428D01*
X68325000Y-66219047D01*
X68277380Y-66314285D01*
X68277380Y-66504761D01*
X68325000Y-66599999D01*
X68372619Y-66647619D01*
X68467857Y-66695238D01*
X68515476Y-66695238D01*
X68610714Y-66647619D01*
X68658333Y-66599999D01*
X68705952Y-66504761D01*
X68705952Y-66314285D01*
X68753571Y-66219047D01*
X68801190Y-66171428D01*
X68896428Y-66123809D01*
X69086904Y-66123809D01*
X69182142Y-66171428D01*
X69229761Y-66219047D01*
X69277380Y-66314285D01*
X69277380Y-66504761D01*
X69229761Y-66599999D01*
X69182142Y-66647619D01*
X69086904Y-66695238D01*
X68896428Y-66695238D01*
X68801190Y-66647619D01*
X68753571Y-66599999D01*
X68705952Y-66504761D01*
X142885714Y-61067857D02*
X142142857Y-61067857D01*
X142542857Y-61525000D01*
X142371428Y-61525000D01*
X142257142Y-61582142D01*
X142200000Y-61639285D01*
X142142857Y-61753571D01*
X142142857Y-62039285D01*
X142200000Y-62153571D01*
X142257142Y-62210714D01*
X142371428Y-62267857D01*
X142714285Y-62267857D01*
X142828571Y-62210714D01*
X142885714Y-62153571D01*
X141628571Y-62267857D02*
X141628571Y-61067857D01*
X141342857Y-61067857D01*
X141171428Y-61125000D01*
X141057142Y-61239285D01*
X141000000Y-61353571D01*
X140942857Y-61582142D01*
X140942857Y-61753571D01*
X141000000Y-61982142D01*
X141057142Y-62096428D01*
X141171428Y-62210714D01*
X141342857Y-62267857D01*
X141628571Y-62267857D01*
X140485714Y-62210714D02*
X140371428Y-62267857D01*
X140142857Y-62267857D01*
X140028571Y-62210714D01*
X139971428Y-62096428D01*
X139971428Y-62039285D01*
X140028571Y-61925000D01*
X140142857Y-61867857D01*
X140314285Y-61867857D01*
X140428571Y-61810714D01*
X140485714Y-61696428D01*
X140485714Y-61639285D01*
X140428571Y-61525000D01*
X140314285Y-61467857D01*
X140142857Y-61467857D01*
X140028571Y-61525000D01*
X139457142Y-62267857D02*
X139457142Y-61467857D01*
X139457142Y-61067857D02*
X139514285Y-61125000D01*
X139457142Y-61182142D01*
X139400000Y-61125000D01*
X139457142Y-61067857D01*
X139457142Y-61182142D01*
X138885714Y-62267857D02*
X138885714Y-61467857D01*
X138885714Y-61582142D02*
X138828571Y-61525000D01*
X138714285Y-61467857D01*
X138542857Y-61467857D01*
X138428571Y-61525000D01*
X138371428Y-61639285D01*
X138371428Y-62267857D01*
X138371428Y-61639285D02*
X138314285Y-61525000D01*
X138200000Y-61467857D01*
X138028571Y-61467857D01*
X137914285Y-61525000D01*
X137857142Y-61639285D01*
X137857142Y-62267857D01*
X137114285Y-62267857D02*
X137228571Y-62210714D01*
X137285714Y-62153571D01*
X137342857Y-62039285D01*
X137342857Y-61696428D01*
X137285714Y-61582142D01*
X137228571Y-61525000D01*
X137114285Y-61467857D01*
X136942857Y-61467857D01*
X136828571Y-61525000D01*
X136771428Y-61582142D01*
X136714285Y-61696428D01*
X136714285Y-62039285D01*
X136771428Y-62153571D01*
X136828571Y-62210714D01*
X136942857Y-62267857D01*
X137114285Y-62267857D01*
X136200000Y-62267857D02*
X136200000Y-61067857D01*
X135514285Y-62267857D02*
X136028571Y-61582142D01*
X135514285Y-61067857D02*
X136200000Y-61753571D01*
X135000000Y-62267857D02*
X135000000Y-61467857D01*
X135000000Y-61067857D02*
X135057142Y-61125000D01*
X135000000Y-61182142D01*
X134942857Y-61125000D01*
X135000000Y-61067857D01*
X135000000Y-61182142D01*
X134600000Y-61467857D02*
X134142857Y-61467857D01*
X134428571Y-61067857D02*
X134428571Y-62096428D01*
X134371428Y-62210714D01*
X134257142Y-62267857D01*
X134142857Y-62267857D01*
X133742857Y-62153571D02*
X133685714Y-62210714D01*
X133742857Y-62267857D01*
X133800000Y-62210714D01*
X133742857Y-62153571D01*
X133742857Y-62267857D01*
X132657142Y-62210714D02*
X132771428Y-62267857D01*
X133000000Y-62267857D01*
X133114285Y-62210714D01*
X133171428Y-62153571D01*
X133228571Y-62039285D01*
X133228571Y-61696428D01*
X133171428Y-61582142D01*
X133114285Y-61525000D01*
X133000000Y-61467857D01*
X132771428Y-61467857D01*
X132657142Y-61525000D01*
X131971428Y-62267857D02*
X132085714Y-62210714D01*
X132142857Y-62153571D01*
X132200000Y-62039285D01*
X132200000Y-61696428D01*
X132142857Y-61582142D01*
X132085714Y-61525000D01*
X131971428Y-61467857D01*
X131800000Y-61467857D01*
X131685714Y-61525000D01*
X131628571Y-61582142D01*
X131571428Y-61696428D01*
X131571428Y-62039285D01*
X131628571Y-62153571D01*
X131685714Y-62210714D01*
X131800000Y-62267857D01*
X131971428Y-62267857D01*
X131057142Y-62267857D02*
X131057142Y-61467857D01*
X131057142Y-61582142D02*
X131000000Y-61525000D01*
X130885714Y-61467857D01*
X130714285Y-61467857D01*
X130600000Y-61525000D01*
X130542857Y-61639285D01*
X130542857Y-62267857D01*
X130542857Y-61639285D02*
X130485714Y-61525000D01*
X130371428Y-61467857D01*
X130200000Y-61467857D01*
X130085714Y-61525000D01*
X130028571Y-61639285D01*
X130028571Y-62267857D01*
X141657142Y-63117857D02*
X140914285Y-63117857D01*
X141314285Y-63575000D01*
X141142857Y-63575000D01*
X141028571Y-63632142D01*
X140971428Y-63689285D01*
X140914285Y-63803571D01*
X140914285Y-64089285D01*
X140971428Y-64203571D01*
X141028571Y-64260714D01*
X141142857Y-64317857D01*
X141485714Y-64317857D01*
X141600000Y-64260714D01*
X141657142Y-64203571D01*
X140400000Y-64317857D02*
X140400000Y-63117857D01*
X140114285Y-63117857D01*
X139942857Y-63175000D01*
X139828571Y-63289285D01*
X139771428Y-63403571D01*
X139714285Y-63632142D01*
X139714285Y-63803571D01*
X139771428Y-64032142D01*
X139828571Y-64146428D01*
X139942857Y-64260714D01*
X140114285Y-64317857D01*
X140400000Y-64317857D01*
X139257142Y-64260714D02*
X139142857Y-64317857D01*
X138914285Y-64317857D01*
X138800000Y-64260714D01*
X138742857Y-64146428D01*
X138742857Y-64089285D01*
X138800000Y-63975000D01*
X138914285Y-63917857D01*
X139085714Y-63917857D01*
X139200000Y-63860714D01*
X139257142Y-63746428D01*
X139257142Y-63689285D01*
X139200000Y-63575000D01*
X139085714Y-63517857D01*
X138914285Y-63517857D01*
X138800000Y-63575000D01*
X138228571Y-64317857D02*
X138228571Y-63517857D01*
X138228571Y-63117857D02*
X138285714Y-63175000D01*
X138228571Y-63232142D01*
X138171428Y-63175000D01*
X138228571Y-63117857D01*
X138228571Y-63232142D01*
X137657142Y-64317857D02*
X137657142Y-63517857D01*
X137657142Y-63632142D02*
X137600000Y-63575000D01*
X137485714Y-63517857D01*
X137314285Y-63517857D01*
X137200000Y-63575000D01*
X137142857Y-63689285D01*
X137142857Y-64317857D01*
X137142857Y-63689285D02*
X137085714Y-63575000D01*
X136971428Y-63517857D01*
X136800000Y-63517857D01*
X136685714Y-63575000D01*
X136628571Y-63689285D01*
X136628571Y-64317857D01*
X135885714Y-64317857D02*
X136000000Y-64260714D01*
X136057142Y-64203571D01*
X136114285Y-64089285D01*
X136114285Y-63746428D01*
X136057142Y-63632142D01*
X136000000Y-63575000D01*
X135885714Y-63517857D01*
X135714285Y-63517857D01*
X135600000Y-63575000D01*
X135542857Y-63632142D01*
X135485714Y-63746428D01*
X135485714Y-64089285D01*
X135542857Y-64203571D01*
X135600000Y-64260714D01*
X135714285Y-64317857D01*
X135885714Y-64317857D01*
X134971428Y-64203571D02*
X134914285Y-64260714D01*
X134971428Y-64317857D01*
X135028571Y-64260714D01*
X134971428Y-64203571D01*
X134971428Y-64317857D01*
X133885714Y-64260714D02*
X134000000Y-64317857D01*
X134228571Y-64317857D01*
X134342857Y-64260714D01*
X134400000Y-64203571D01*
X134457142Y-64089285D01*
X134457142Y-63746428D01*
X134400000Y-63632142D01*
X134342857Y-63575000D01*
X134228571Y-63517857D01*
X134000000Y-63517857D01*
X133885714Y-63575000D01*
X133200000Y-64317857D02*
X133314285Y-64260714D01*
X133371428Y-64203571D01*
X133428571Y-64089285D01*
X133428571Y-63746428D01*
X133371428Y-63632142D01*
X133314285Y-63575000D01*
X133200000Y-63517857D01*
X133028571Y-63517857D01*
X132914285Y-63575000D01*
X132857142Y-63632142D01*
X132800000Y-63746428D01*
X132800000Y-64089285D01*
X132857142Y-64203571D01*
X132914285Y-64260714D01*
X133028571Y-64317857D01*
X133200000Y-64317857D01*
X132285714Y-64317857D02*
X132285714Y-63517857D01*
X132285714Y-63632142D02*
X132228571Y-63575000D01*
X132114285Y-63517857D01*
X131942857Y-63517857D01*
X131828571Y-63575000D01*
X131771428Y-63689285D01*
X131771428Y-64317857D01*
X131771428Y-63689285D02*
X131714285Y-63575000D01*
X131600000Y-63517857D01*
X131428571Y-63517857D01*
X131314285Y-63575000D01*
X131257142Y-63689285D01*
X131257142Y-64317857D01*
D12*
X122500000Y-55300000D03*
D13*
X125040000Y-55300000D03*
D14*
X69715000Y-53035000D03*
X69715000Y-68275000D03*
X105275000Y-53035000D03*
X72255000Y-68275000D03*
X102735000Y-53035000D03*
X74795000Y-68275000D03*
X100195000Y-53035000D03*
X77335000Y-68275000D03*
X97655000Y-53035000D03*
X79875000Y-68275000D03*
X95115000Y-53035000D03*
X82415000Y-68275000D03*
X92575000Y-53035000D03*
X84955000Y-68275000D03*
X90035000Y-53035000D03*
X87495000Y-68275000D03*
X87495000Y-53035000D03*
X90035000Y-68275000D03*
X84955000Y-53035000D03*
X92575000Y-68275000D03*
X82415000Y-53035000D03*
X95115000Y-68275000D03*
X79875000Y-53035000D03*
X97655000Y-68275000D03*
X77335000Y-53035000D03*
X100195000Y-68275000D03*
X74795000Y-53035000D03*
X102735000Y-68275000D03*
X72255000Y-53035000D03*
D15*
X105275000Y-68275000D03*
D16*
X128400000Y-57300000D03*
X129900000Y-57300000D03*
D17*
X67125000Y-51675000D03*
X143725000Y-69375000D03*
D18*
X148225000Y-68775000D03*
X148225000Y-52575000D03*
D12*
X139245000Y-69175000D03*
X136705000Y-69175000D03*
X134165000Y-69175000D03*
D13*
X131625000Y-69175000D03*
X131625000Y-52175000D03*
D12*
X134165000Y-52175000D03*
X136705000Y-52175000D03*
X139245000Y-52175000D03*
D19*
X82100000Y-64470000D03*
X82100000Y-61920000D03*
X82100000Y-59380000D03*
X82100000Y-56840000D03*
D20*
X129400000Y-55675000D03*
X129400000Y-54825000D03*
D21*
X130400000Y-56000000D03*
X130400000Y-55500000D03*
X130400000Y-55000000D03*
X130400000Y-54500000D03*
X128400000Y-54500000D03*
X128400000Y-55000000D03*
X128400000Y-55500000D03*
X128400000Y-56000000D03*
D22*
X148725000Y-56775000D03*
X148725000Y-63575000D03*
D23*
X73950000Y-54700000D03*
X73950000Y-56200000D03*
X127150000Y-56000000D03*
X127150000Y-54500000D03*
D24*
X76600000Y-54700000D03*
X76600000Y-56200000D03*
X80300000Y-56200000D03*
X80300000Y-54700000D03*
X78950000Y-56200000D03*
X78950000Y-54700000D03*
M02*
