G04 #@! TF.GenerationSoftware,KiCad,Pcbnew,no-vcs-found*
G04 #@! TF.CreationDate,2018-05-22T13:07:31+02:00*
G04 #@! TF.ProjectId,3dsimo_kit,336473696D6F5F6B69742E6B69636164,100A*
G04 #@! TF.SameCoordinates,Original
G04 #@! TF.FileFunction,Copper,L1,Top,Signal*
G04 #@! TF.FilePolarity,Positive*
%FSLAX46Y46*%
G04 Gerber Fmt 4.6, Leading zero omitted, Abs format (unit mm)*
G04 Created by KiCad (PCBNEW no-vcs-found) date 05/22/18 13:07:31*
%MOMM*%
%LPD*%
G01*
G04 APERTURE LIST*
%ADD10C,0.100000*%
%ADD11O,1.700000X1.700000*%
%ADD12R,1.700000X1.700000*%
%ADD13O,1.600000X1.600000*%
%ADD14R,1.600000X1.600000*%
%ADD15C,1.000000*%
%ADD16C,1.700000*%
%ADD17R,1.300000X1.550000*%
%ADD18R,0.900000X0.800000*%
%ADD19R,3.000000X2.100000*%
%ADD20R,0.900000X0.500000*%
%ADD21C,0.600000*%
%ADD22C,0.800000*%
%ADD23C,0.500000*%
%ADD24C,0.200000*%
%ADD25C,0.300000*%
%ADD26C,0.150000*%
G04 APERTURE END LIST*
D10*
D11*
X122500000Y-55300000D03*
D12*
X125040000Y-55300000D03*
D13*
X69715000Y-53035000D03*
X69715000Y-68275000D03*
X105275000Y-53035000D03*
X72255000Y-68275000D03*
X102735000Y-53035000D03*
X74795000Y-68275000D03*
X100195000Y-53035000D03*
X77335000Y-68275000D03*
X97655000Y-53035000D03*
X79875000Y-68275000D03*
X95115000Y-53035000D03*
X82415000Y-68275000D03*
X92575000Y-53035000D03*
X84955000Y-68275000D03*
X90035000Y-53035000D03*
X87495000Y-68275000D03*
X87495000Y-53035000D03*
X90035000Y-68275000D03*
X84955000Y-53035000D03*
X92575000Y-68275000D03*
X82415000Y-53035000D03*
X95115000Y-68275000D03*
X79875000Y-53035000D03*
X97655000Y-68275000D03*
X77335000Y-53035000D03*
X100195000Y-68275000D03*
X74795000Y-53035000D03*
X102735000Y-68275000D03*
X72255000Y-53035000D03*
D14*
X105275000Y-68275000D03*
D15*
X67125000Y-51675000D03*
X143725000Y-69375000D03*
D11*
X139245000Y-69175000D03*
X136705000Y-69175000D03*
X134165000Y-69175000D03*
D12*
X131625000Y-69175000D03*
X131625000Y-52175000D03*
D11*
X134165000Y-52175000D03*
X136705000Y-52175000D03*
X139245000Y-52175000D03*
D16*
X82100000Y-64470000D03*
X82100000Y-61920000D03*
X82100000Y-59380000D03*
X82100000Y-56840000D03*
D17*
X144975000Y-65175000D03*
X140475000Y-65175000D03*
X144975000Y-57175000D03*
X140475000Y-57175000D03*
X134975000Y-65175000D03*
X130475000Y-65175000D03*
X134975000Y-57175000D03*
X130475000Y-57175000D03*
X74725000Y-56675000D03*
X79225000Y-56675000D03*
X74725000Y-64675000D03*
X79225000Y-64675000D03*
X67375000Y-56675000D03*
X71875000Y-56675000D03*
X67375000Y-64675000D03*
X71875000Y-64675000D03*
D18*
X145325000Y-53375000D03*
X143325000Y-54325000D03*
X143325000Y-52425000D03*
D19*
X148725000Y-58925000D03*
X148725000Y-61425000D03*
D20*
X141925000Y-54225000D03*
X141925000Y-52725000D03*
D21*
X127350000Y-57300000D03*
X111525000Y-53199990D03*
X111025000Y-53199990D03*
X112025000Y-53199990D03*
X77300000Y-57650000D03*
X83470816Y-51675021D03*
D22*
X144300000Y-62900000D03*
X144925000Y-62900000D03*
D21*
X120325000Y-51075000D03*
X139249996Y-57200000D03*
X129396103Y-54853897D03*
X129400000Y-55700000D03*
X79278916Y-58321084D03*
X146525000Y-61075000D03*
X143525000Y-55175000D03*
X143025000Y-55175000D03*
X130425000Y-66575000D03*
X91287695Y-51990471D03*
X96425000Y-52475000D03*
X108225000Y-52575000D03*
X107725000Y-52475000D03*
X71825000Y-58375000D03*
X77725000Y-64675000D03*
X70325000Y-64675000D03*
X139125000Y-65175000D03*
X134570283Y-55949988D03*
X136950011Y-54899991D03*
X145925000Y-54975000D03*
X145625000Y-54675000D03*
X91318872Y-53024987D03*
X113219332Y-69681168D03*
X106625000Y-68100010D03*
X108942604Y-68847580D03*
X123550000Y-70100000D03*
X113907435Y-69979550D03*
X109725000Y-68675000D03*
X112552764Y-70024979D03*
X122884425Y-67005744D03*
X124500000Y-68500000D03*
X136150000Y-54950000D03*
X133521603Y-55911744D03*
X133561028Y-57454740D03*
X133794858Y-58167370D03*
X124584459Y-67396204D03*
X123373639Y-66162961D03*
X133911272Y-59224753D03*
X119161971Y-69600048D03*
D23*
X127350000Y-57300000D02*
X128600000Y-58550000D01*
X143100000Y-62900000D02*
X143734315Y-62900000D01*
X128600000Y-58550000D02*
X131300000Y-58550000D01*
X131300000Y-58550000D02*
X131824989Y-58025011D01*
X131824989Y-58025011D02*
X131824989Y-56160351D01*
X131824989Y-56160351D02*
X132785340Y-55200000D01*
X132785340Y-55200000D02*
X134856299Y-55200000D01*
X134856299Y-55200000D02*
X135156302Y-55500003D01*
X135156302Y-55500003D02*
X135700004Y-55500003D01*
X135700004Y-55500003D02*
X143100000Y-62900000D01*
X143734315Y-62900000D02*
X144300000Y-62900000D01*
X112025000Y-53199990D02*
X112350001Y-52874989D01*
X112350001Y-52874989D02*
X126047359Y-52874989D01*
X126047359Y-52874989D02*
X127350000Y-54177630D01*
X127350000Y-54177630D02*
X127350000Y-56875736D01*
X127350000Y-56875736D02*
X127350000Y-57300000D01*
D24*
X83470816Y-51675021D02*
X83170817Y-51375022D01*
X83170817Y-51375022D02*
X79624978Y-51375022D01*
X79624978Y-51375022D02*
X78600000Y-52400000D01*
X78600000Y-52400000D02*
X78600000Y-55225736D01*
X78600000Y-55225736D02*
X77300000Y-56525736D01*
X77300000Y-56525736D02*
X77300000Y-57225736D01*
X77300000Y-57225736D02*
X77300000Y-57650000D01*
X77300000Y-57650000D02*
X77300000Y-59500000D01*
X77300000Y-59500000D02*
X79720000Y-61920000D01*
X79720000Y-61920000D02*
X82100000Y-61920000D01*
D23*
X111525000Y-53199990D02*
X112025000Y-53199990D01*
X111025000Y-53199990D02*
X111525000Y-53199990D01*
X144300000Y-62900000D02*
X144925000Y-62900000D01*
D24*
X90035000Y-53035000D02*
X88575000Y-51575000D01*
X88575000Y-51575000D02*
X84384839Y-51575000D01*
X84384839Y-51575000D02*
X83734817Y-52225022D01*
X83734817Y-52225022D02*
X83206815Y-52225022D01*
X83206815Y-52225022D02*
X82966792Y-51984999D01*
X81765001Y-51984999D02*
X81150000Y-52600000D01*
X82966792Y-51984999D02*
X81765001Y-51984999D01*
X81150000Y-52600000D02*
X81150000Y-55250000D01*
X81150000Y-55250000D02*
X80750000Y-55650000D01*
X80750000Y-55650000D02*
X80750000Y-58030000D01*
X80750000Y-58030000D02*
X82100000Y-59380000D01*
X87495000Y-53035000D02*
X86444999Y-51984999D01*
X86444999Y-51984999D02*
X84469830Y-51984999D01*
X84469830Y-51984999D02*
X83904999Y-52549830D01*
X83904999Y-52549830D02*
X83904999Y-53095001D01*
X83904999Y-53095001D02*
X82949999Y-54050001D01*
X82949999Y-55990001D02*
X82100000Y-56840000D01*
X82949999Y-54050001D02*
X82949999Y-55990001D01*
X120325000Y-51075000D02*
X120525000Y-50875000D01*
X147025000Y-57675000D02*
X148275000Y-58925000D01*
X120525000Y-50875000D02*
X143475000Y-50875000D01*
X143475000Y-50875000D02*
X144425000Y-51825000D01*
X144425000Y-51825000D02*
X144425000Y-54625000D01*
X144425000Y-54625000D02*
X147025000Y-57225000D01*
X147025000Y-57225000D02*
X147025000Y-57675000D01*
X148275000Y-58925000D02*
X148725000Y-58925000D01*
X79225000Y-58267168D02*
X79278916Y-58321084D01*
X79225000Y-56675000D02*
X79225000Y-58267168D01*
X79225000Y-64675000D02*
X77725000Y-64675000D01*
D25*
X139274996Y-57175000D02*
X139249996Y-57200000D01*
X140475000Y-57175000D02*
X139274996Y-57175000D01*
D24*
X71875000Y-56675000D02*
X71875000Y-55700000D01*
X71875000Y-55700000D02*
X73500000Y-54075000D01*
X73500000Y-54075000D02*
X73500000Y-52300000D01*
X73500000Y-52300000D02*
X74825000Y-50975000D01*
X91314058Y-51964108D02*
X91287695Y-51990471D01*
X74825000Y-50975000D02*
X90325000Y-50975000D01*
X90325000Y-50975000D02*
X91314058Y-51964058D01*
X91314058Y-51964058D02*
X91314058Y-51964108D01*
D25*
X130475000Y-57175000D02*
X130475000Y-56775000D01*
X130475000Y-56775000D02*
X129400000Y-55700000D01*
D24*
X130475000Y-57175000D02*
X130548653Y-57175000D01*
X130611546Y-57112107D02*
X130611546Y-56687843D01*
X130548653Y-57175000D02*
X130611546Y-57112107D01*
D25*
X141925000Y-54225000D02*
X143225000Y-54225000D01*
X143225000Y-54225000D02*
X143325000Y-54325000D01*
X148725000Y-61425000D02*
X146875000Y-61425000D01*
X146875000Y-61425000D02*
X146525000Y-61075000D01*
D23*
X143325000Y-54325000D02*
X143325000Y-54875000D01*
X143325000Y-54875000D02*
X143025000Y-55175000D01*
D25*
X130475000Y-66525000D02*
X130425000Y-66575000D01*
X130475000Y-65175000D02*
X130475000Y-66525000D01*
D24*
X100699001Y-51984999D02*
X96915001Y-51984999D01*
X102735000Y-53035000D02*
X101749002Y-53035000D01*
X101749002Y-53035000D02*
X100699001Y-51984999D01*
X96915001Y-51984999D02*
X96425000Y-52475000D01*
D25*
X107225000Y-52475000D02*
X107725000Y-52475000D01*
X106684999Y-51934999D02*
X107225000Y-52475000D01*
X103365000Y-53035000D02*
X103646998Y-53035000D01*
X103646998Y-53035000D02*
X104746999Y-51934999D01*
X104746999Y-51934999D02*
X106684999Y-51934999D01*
X102735000Y-53035000D02*
X103365000Y-53035000D01*
D24*
X71875000Y-56675000D02*
X71875000Y-58325000D01*
X71875000Y-58325000D02*
X71825000Y-58375000D01*
X71875000Y-64675000D02*
X70325000Y-64675000D01*
D25*
X140475000Y-65175000D02*
X139125000Y-65175000D01*
D24*
X132925011Y-57290349D02*
X134265372Y-55949988D01*
X122376776Y-68750031D02*
X123734438Y-67392369D01*
X124963451Y-66546183D02*
X132925011Y-58584623D01*
X134265372Y-55949988D02*
X134570283Y-55949988D01*
X132925011Y-58584623D02*
X132925011Y-57290349D01*
X112591076Y-68750031D02*
X122376776Y-68750031D01*
X110916118Y-70424989D02*
X112591076Y-68750031D01*
X77335000Y-68275000D02*
X79484989Y-70424989D01*
X123734438Y-67004274D02*
X124192529Y-66546183D01*
X124192529Y-66546183D02*
X124963451Y-66546183D01*
X79484989Y-70424989D02*
X110916118Y-70424989D01*
X123734438Y-67392369D02*
X123734438Y-67004274D01*
X141725000Y-52725000D02*
X139550009Y-54899991D01*
X139550009Y-54899991D02*
X137374275Y-54899991D01*
X137374275Y-54899991D02*
X136950011Y-54899991D01*
X141925000Y-52725000D02*
X141725000Y-52725000D01*
X143325000Y-52425000D02*
X142775000Y-52425000D01*
X142775000Y-52425000D02*
X142475000Y-52725000D01*
X142475000Y-52725000D02*
X142425000Y-52725000D01*
X142425000Y-52725000D02*
X141925000Y-52725000D01*
D23*
X145325000Y-53375000D02*
X145325000Y-54375000D01*
X145325000Y-54375000D02*
X145625000Y-54675000D01*
X145325000Y-53375000D02*
X145375000Y-53375000D01*
D24*
X132790000Y-53550000D02*
X129900000Y-53550000D01*
X134165000Y-52175000D02*
X132790000Y-53550000D01*
X108288949Y-50834967D02*
X93265023Y-50834967D01*
X93265023Y-50834967D02*
X91318872Y-52781118D01*
X129900000Y-53550000D02*
X127984988Y-51634988D01*
X127984988Y-51634988D02*
X109088970Y-51634988D01*
X109088970Y-51634988D02*
X108288949Y-50834967D01*
X91318872Y-52781118D02*
X91318872Y-53024987D01*
X134979989Y-53900011D02*
X135855001Y-53024999D01*
X135855001Y-53024999D02*
X136705000Y-52175000D01*
X108143972Y-51184980D02*
X108943991Y-51984999D01*
X129755021Y-53900011D02*
X134979989Y-53900011D01*
X92575000Y-53035000D02*
X94425021Y-51184979D01*
X108943991Y-51984999D02*
X127840009Y-51984999D01*
X127840009Y-51984999D02*
X129755021Y-53900011D01*
X94425021Y-51184979D02*
X108143972Y-51184980D01*
X138395001Y-53024999D02*
X139245000Y-52175000D01*
X95115000Y-51903630D02*
X95483640Y-51534990D01*
X129610042Y-54250022D02*
X137169978Y-54250022D01*
X137169978Y-54250022D02*
X138395001Y-53024999D01*
X127695030Y-52335010D02*
X129610042Y-54250022D01*
X108799012Y-52335010D02*
X127695030Y-52335010D01*
X107998992Y-51534990D02*
X108799012Y-52335010D01*
X95483640Y-51534990D02*
X107998992Y-51534990D01*
X95115000Y-53035000D02*
X95115000Y-51903630D01*
D26*
X114094472Y-69381169D02*
X113519331Y-69381169D01*
X113519331Y-69381169D02*
X113219332Y-69681168D01*
X123276308Y-69300000D02*
X122451259Y-70125049D01*
X131219998Y-67475000D02*
X129394998Y-69300000D01*
X122451259Y-70125049D02*
X114838352Y-70125049D01*
X139245000Y-69175000D02*
X137545000Y-67475000D01*
X129394998Y-69300000D02*
X123276308Y-69300000D01*
X137545000Y-67475000D02*
X131219998Y-67475000D01*
X114838352Y-70125049D02*
X114094472Y-69381169D01*
X108394299Y-67875011D02*
X106849999Y-67875011D01*
X106849999Y-67875011D02*
X106625000Y-68100010D01*
X108942604Y-68423316D02*
X108394299Y-67875011D01*
X108942604Y-68847580D02*
X108942604Y-68423316D01*
X123250001Y-70399999D02*
X123550000Y-70100000D01*
X113907435Y-69979550D02*
X114352945Y-70425060D01*
X114352945Y-70425060D02*
X123224940Y-70425060D01*
X123224940Y-70425060D02*
X123250001Y-70399999D01*
X105975000Y-67575000D02*
X108625000Y-67575000D01*
X105275000Y-68275000D02*
X105975000Y-67575000D01*
X108625000Y-67575000D02*
X109425001Y-68375001D01*
X109425001Y-68375001D02*
X109725000Y-68675000D01*
D24*
X123713933Y-70750071D02*
X113277856Y-70750071D01*
X113277856Y-70750071D02*
X112852763Y-70324978D01*
X124389004Y-70075000D02*
X123713933Y-70750071D01*
X112852763Y-70324978D02*
X112552764Y-70024979D01*
X134165000Y-69175000D02*
X132965000Y-70375000D01*
X130425000Y-70375000D02*
X130125000Y-70075000D01*
X132965000Y-70375000D02*
X130425000Y-70375000D01*
X130125000Y-70075000D02*
X124389004Y-70075000D01*
X67375000Y-56675000D02*
X67375000Y-64675000D01*
X67375000Y-64675000D02*
X67375000Y-65935000D01*
X67375000Y-65935000D02*
X69715000Y-68275000D01*
X74725000Y-56675000D02*
X74725000Y-64675000D01*
X74725000Y-64675000D02*
X74725000Y-65805000D01*
X74725000Y-65805000D02*
X72255000Y-68275000D01*
X121790158Y-68100011D02*
X122584426Y-67305743D01*
X110674247Y-69747592D02*
X112321828Y-68100011D01*
X83887592Y-69747592D02*
X110674247Y-69747592D01*
X82415000Y-68275000D02*
X83887592Y-69747592D01*
X122584426Y-67305743D02*
X122884425Y-67005744D01*
X112321828Y-68100011D02*
X121790158Y-68100011D01*
D26*
X127056739Y-67167525D02*
X125424265Y-68799999D01*
X124799999Y-68799999D02*
X124500000Y-68500000D01*
X125424265Y-68799999D02*
X124799999Y-68799999D01*
X132182475Y-67167525D02*
X127056739Y-67167525D01*
X134175000Y-65175000D02*
X132182475Y-67167525D01*
X134975000Y-65175000D02*
X134175000Y-65175000D01*
D24*
X134975000Y-57175000D02*
X134975000Y-58150000D01*
X134975000Y-58150000D02*
X134975000Y-65175000D01*
D26*
X132600000Y-58450000D02*
X132600000Y-56833347D01*
X81672603Y-70072603D02*
X110808870Y-70072603D01*
X112456453Y-68425020D02*
X122242153Y-68425020D01*
X124057906Y-66221172D02*
X124828828Y-66221172D01*
X110808870Y-70072603D02*
X112456453Y-68425020D01*
X123409427Y-66869651D02*
X124057906Y-66221172D01*
X79875000Y-68275000D02*
X81672603Y-70072603D01*
X122242153Y-68425020D02*
X123409427Y-67257746D01*
X123409427Y-67257746D02*
X123409427Y-66869651D01*
X124828828Y-66221172D02*
X132600000Y-58450000D01*
X132600000Y-56833347D02*
X133221604Y-56211743D01*
X133221604Y-56211743D02*
X133521603Y-55911744D01*
D24*
X136449999Y-55249999D02*
X136150000Y-54950000D01*
X136650001Y-55450001D02*
X136449999Y-55249999D01*
X141800001Y-55450001D02*
X136650001Y-55450001D01*
X144975000Y-57175000D02*
X143525000Y-57175000D01*
X143525000Y-57175000D02*
X141800001Y-55450001D01*
X145925000Y-61475000D02*
X145925000Y-63250000D01*
X145925000Y-63250000D02*
X144975000Y-64200000D01*
X144975000Y-64200000D02*
X144975000Y-65175000D01*
X144975000Y-60525000D02*
X145925000Y-61475000D01*
X144975000Y-57175000D02*
X144975000Y-60525000D01*
D26*
X133250022Y-57765746D02*
X133261029Y-57754739D01*
X77270000Y-70750000D02*
X111050741Y-70750000D01*
X133261029Y-57754739D02*
X133561028Y-57454740D01*
X111050741Y-70750000D02*
X112725703Y-69075038D01*
X112725703Y-69075038D02*
X122652713Y-69075038D01*
X124059449Y-67668302D02*
X124059449Y-67138897D01*
X124327152Y-66871194D02*
X125098074Y-66871194D01*
X74795000Y-68275000D02*
X77270000Y-70750000D01*
X122652713Y-69075038D02*
X124059449Y-67668302D01*
X125098074Y-66871194D02*
X133250022Y-58719246D01*
X124059449Y-67138897D02*
X124327152Y-66871194D01*
X133250022Y-58719246D02*
X133250022Y-57765746D01*
X124997343Y-67396204D02*
X133794858Y-58598689D01*
X133794858Y-58591634D02*
X133794858Y-58167370D01*
X133794858Y-58598689D02*
X133794858Y-58591634D01*
X124584459Y-67396204D02*
X124997343Y-67396204D01*
D24*
X109379186Y-69225000D02*
X109970376Y-69225000D01*
X86077581Y-69397581D02*
X109206605Y-69397581D01*
X109206605Y-69397581D02*
X109379186Y-69225000D01*
X122949375Y-66162961D02*
X123373639Y-66162961D01*
X121362336Y-67750000D02*
X122949375Y-66162961D01*
X84955000Y-68275000D02*
X86077581Y-69397581D01*
X109970376Y-69225000D02*
X111445376Y-67750000D01*
X111445376Y-67750000D02*
X121362336Y-67750000D01*
D26*
X122551982Y-69600048D02*
X124177031Y-67974999D01*
X119161971Y-69600048D02*
X122551982Y-69600048D01*
X124177031Y-67974999D02*
X125161026Y-67974999D01*
X133611273Y-59524752D02*
X133911272Y-59224753D01*
X125161026Y-67974999D02*
X133611273Y-59524752D01*
M02*
