G04 #@! TF.GenerationSoftware,KiCad,Pcbnew,no-vcs-found*
G04 #@! TF.CreationDate,2018-05-22T13:07:31+02:00*
G04 #@! TF.ProjectId,3dsimo_kit,336473696D6F5F6B69742E6B69636164,100A*
G04 #@! TF.SameCoordinates,Original
G04 #@! TF.FileFunction,Copper,L2,Bot,Signal*
G04 #@! TF.FilePolarity,Positive*
%FSLAX46Y46*%
G04 Gerber Fmt 4.6, Leading zero omitted, Abs format (unit mm)*
G04 Created by KiCad (PCBNEW no-vcs-found) date 05/22/18 13:07:31*
%MOMM*%
%LPD*%
G01*
G04 APERTURE LIST*
%ADD10C,0.100000*%
%ADD11O,1.700000X1.700000*%
%ADD12R,1.700000X1.700000*%
%ADD13O,1.600000X1.600000*%
%ADD14R,1.600000X1.600000*%
%ADD15R,0.800000X0.750000*%
%ADD16C,1.000000*%
%ADD17C,1.700000*%
%ADD18R,0.900000X0.850000*%
%ADD19R,0.650000X0.350000*%
%ADD20R,3.000000X2.800000*%
%ADD21R,0.750000X0.800000*%
%ADD22R,0.900000X0.500000*%
%ADD23C,0.600000*%
%ADD24C,0.800000*%
%ADD25C,0.300000*%
%ADD26C,0.500000*%
%ADD27C,0.200000*%
%ADD28C,0.150000*%
%ADD29C,0.350000*%
G04 APERTURE END LIST*
D10*
D11*
X122500000Y-55300000D03*
D12*
X125040000Y-55300000D03*
D13*
X69715000Y-53035000D03*
X69715000Y-68275000D03*
X105275000Y-53035000D03*
X72255000Y-68275000D03*
X102735000Y-53035000D03*
X74795000Y-68275000D03*
X100195000Y-53035000D03*
X77335000Y-68275000D03*
X97655000Y-53035000D03*
X79875000Y-68275000D03*
X95115000Y-53035000D03*
X82415000Y-68275000D03*
X92575000Y-53035000D03*
X84955000Y-68275000D03*
X90035000Y-53035000D03*
X87495000Y-68275000D03*
X87495000Y-53035000D03*
X90035000Y-68275000D03*
X84955000Y-53035000D03*
X92575000Y-68275000D03*
X82415000Y-53035000D03*
X95115000Y-68275000D03*
X79875000Y-53035000D03*
X97655000Y-68275000D03*
X77335000Y-53035000D03*
X100195000Y-68275000D03*
X74795000Y-53035000D03*
X102735000Y-68275000D03*
X72255000Y-53035000D03*
D14*
X105275000Y-68275000D03*
D15*
X128400000Y-57300000D03*
X129900000Y-57300000D03*
D16*
X67125000Y-51675000D03*
X143725000Y-69375000D03*
D11*
X139245000Y-69175000D03*
X136705000Y-69175000D03*
X134165000Y-69175000D03*
D12*
X131625000Y-69175000D03*
X131625000Y-52175000D03*
D11*
X134165000Y-52175000D03*
X136705000Y-52175000D03*
X139245000Y-52175000D03*
D17*
X82100000Y-64470000D03*
X82100000Y-61920000D03*
X82100000Y-59380000D03*
X82100000Y-56840000D03*
D18*
X129400000Y-55675000D03*
X129400000Y-54825000D03*
D19*
X130400000Y-56000000D03*
X130400000Y-55500000D03*
X130400000Y-55000000D03*
X130400000Y-54500000D03*
X128400000Y-54500000D03*
X128400000Y-55000000D03*
X128400000Y-55500000D03*
X128400000Y-56000000D03*
D20*
X148725000Y-56775000D03*
X148725000Y-63575000D03*
D21*
X73950000Y-54700000D03*
X73950000Y-56200000D03*
X127150000Y-56000000D03*
X127150000Y-54500000D03*
D22*
X76600000Y-54700000D03*
X76600000Y-56200000D03*
X80300000Y-56200000D03*
X80300000Y-54700000D03*
X78950000Y-56200000D03*
X78950000Y-54700000D03*
D23*
X127350000Y-57300000D03*
X111525000Y-53199990D03*
X111025000Y-53199990D03*
X112025000Y-53199990D03*
X77300000Y-57650000D03*
X83470816Y-51675021D03*
D24*
X144300000Y-62900000D03*
X144925000Y-62900000D03*
D23*
X120325000Y-51075000D03*
X139249996Y-57200000D03*
X129396103Y-54853897D03*
X129400000Y-55700000D03*
X79278916Y-58321084D03*
X146525000Y-61075000D03*
X143525000Y-55175000D03*
X143025000Y-55175000D03*
X130425000Y-66575000D03*
X91287695Y-51990471D03*
X96425000Y-52475000D03*
X108225000Y-52575000D03*
X107725000Y-52475000D03*
X71825000Y-58375000D03*
X77725000Y-64675000D03*
X70325000Y-64675000D03*
X139125000Y-65175000D03*
X134570283Y-55949988D03*
X136950011Y-54899991D03*
X145925000Y-54975000D03*
X145625000Y-54675000D03*
X91318872Y-53024987D03*
X113219332Y-69681168D03*
X106625000Y-68100010D03*
X108942604Y-68847580D03*
X123550000Y-70100000D03*
X113907435Y-69979550D03*
X109725000Y-68675000D03*
X112552764Y-70024979D03*
X122884425Y-67005744D03*
X124500000Y-68500000D03*
X136150000Y-54950000D03*
X133521603Y-55911744D03*
X133561028Y-57454740D03*
X133794858Y-58167370D03*
X124584459Y-67396204D03*
X123373639Y-66162961D03*
X133911272Y-59224753D03*
X119161971Y-69600048D03*
D25*
X130400000Y-56000000D02*
X130811705Y-56000000D01*
X130811705Y-56000000D02*
X131211547Y-56399842D01*
X131211547Y-56399842D02*
X131211547Y-57438453D01*
X131211547Y-57438453D02*
X130600000Y-58050000D01*
X130600000Y-58050000D02*
X129175000Y-58050000D01*
X128425000Y-57300000D02*
X128400000Y-57300000D01*
X129175000Y-58050000D02*
X128425000Y-57300000D01*
X128400000Y-57300000D02*
X127350000Y-57300000D01*
X128400000Y-56000000D02*
X128400000Y-57300000D01*
D26*
X110725001Y-53499989D02*
X111025000Y-53199990D01*
X105984999Y-51834999D02*
X107649989Y-53499989D01*
X111025000Y-53199990D02*
X111525000Y-53199990D01*
X98855001Y-51834999D02*
X105984999Y-51834999D01*
X97655000Y-53035000D02*
X98855001Y-51834999D01*
X107649989Y-53499989D02*
X110725001Y-53499989D01*
D27*
X77300000Y-57225736D02*
X77300000Y-57650000D01*
X77300000Y-56700000D02*
X77300000Y-57225736D01*
X76800000Y-56200000D02*
X77300000Y-56700000D01*
X76600000Y-56200000D02*
X76800000Y-56200000D01*
X78950000Y-54700000D02*
X78300000Y-54700000D01*
X78300000Y-54700000D02*
X76800000Y-56200000D01*
X80300000Y-54700000D02*
X78950000Y-54700000D01*
X91551697Y-51440469D02*
X91023693Y-51440469D01*
X84048211Y-51521890D02*
X83895080Y-51675021D01*
X91023693Y-51440469D02*
X90942272Y-51521890D01*
X96053991Y-51924999D02*
X95650882Y-51521890D01*
X97655000Y-53035000D02*
X97655000Y-52890998D01*
X96689001Y-51924999D02*
X96053991Y-51924999D01*
X97655000Y-52890998D02*
X96689001Y-51924999D01*
X95650882Y-51521890D02*
X91633118Y-51521890D01*
X90942272Y-51521890D02*
X84048211Y-51521890D01*
X83895080Y-51675021D02*
X83470816Y-51675021D01*
X91633118Y-51521890D02*
X91551697Y-51440469D01*
D26*
X144925000Y-62900000D02*
X144300000Y-62900000D01*
X144925000Y-62900000D02*
X148050000Y-62900000D01*
X148050000Y-62900000D02*
X148725000Y-63575000D01*
D27*
X78950000Y-56200000D02*
X79150000Y-56200000D01*
X79150000Y-56200000D02*
X82100000Y-59150000D01*
X82100000Y-59150000D02*
X82100000Y-59380000D01*
X80300000Y-56200000D02*
X81460000Y-56200000D01*
X81460000Y-56200000D02*
X82100000Y-56840000D01*
X76600000Y-54700000D02*
X76600000Y-53770000D01*
X76600000Y-53770000D02*
X77335000Y-53035000D01*
X90733735Y-50740447D02*
X91841656Y-50740448D01*
X77335000Y-53035000D02*
X79595000Y-50775000D01*
X79595000Y-50775000D02*
X90699181Y-50775001D01*
X90699181Y-50775001D02*
X90733735Y-50740447D01*
X120025001Y-50775001D02*
X120325000Y-51075000D01*
X91841656Y-50740448D02*
X91876208Y-50775000D01*
X91876208Y-50775000D02*
X120025001Y-50775001D01*
D28*
X82125000Y-65555000D02*
X78605000Y-65555000D01*
X78605000Y-65555000D02*
X77725000Y-64675000D01*
D25*
X129096104Y-54553898D02*
X129396103Y-54853897D01*
X129042206Y-54500000D02*
X129096104Y-54553898D01*
X128400000Y-54500000D02*
X129042206Y-54500000D01*
X129400000Y-55675000D02*
X129400000Y-54857794D01*
X129400000Y-54857794D02*
X129396103Y-54853897D01*
X129900000Y-57300000D02*
X129400000Y-56800000D01*
X129400000Y-56800000D02*
X129400000Y-55700000D01*
X129400000Y-56124264D02*
X129400000Y-55700000D01*
X129400000Y-55675000D02*
X129400000Y-55700000D01*
D26*
X143025000Y-55175000D02*
X143525000Y-55175000D01*
D29*
X106420690Y-69700012D02*
X107225000Y-68895702D01*
X97655000Y-68275000D02*
X98854967Y-69474967D01*
X107225000Y-68895702D02*
X107225000Y-68575000D01*
X103904265Y-69474967D02*
X104129310Y-69700012D01*
X98854967Y-69474967D02*
X103904265Y-69474967D01*
X104129310Y-69700012D02*
X106420690Y-69700012D01*
D27*
X95598085Y-51964083D02*
X91738347Y-51964083D01*
X96109002Y-52475000D02*
X95598085Y-51964083D01*
X91711959Y-51990471D02*
X91287695Y-51990471D01*
X91738347Y-51964083D02*
X91711959Y-51990471D01*
X96425000Y-52475000D02*
X96109002Y-52475000D01*
D25*
X108125000Y-52475000D02*
X108225000Y-52575000D01*
X107725000Y-52475000D02*
X108125000Y-52475000D01*
D27*
X136324278Y-55949988D02*
X136950011Y-55324255D01*
X136950011Y-55324255D02*
X136950011Y-54899991D01*
X134570283Y-55949988D02*
X136324278Y-55949988D01*
D25*
X123650001Y-54149999D02*
X123349999Y-54450001D01*
X127150000Y-54500000D02*
X126475000Y-54500000D01*
X126475000Y-54500000D02*
X126124999Y-54149999D01*
X126124999Y-54149999D02*
X123650001Y-54149999D01*
X123349999Y-54450001D02*
X122500000Y-55300000D01*
X128400000Y-55000000D02*
X127650000Y-55000000D01*
X127650000Y-55000000D02*
X127150000Y-54500000D01*
X127150000Y-56000000D02*
X125740000Y-56000000D01*
X125740000Y-56000000D02*
X125040000Y-55300000D01*
X128400000Y-55500000D02*
X127650000Y-55500000D01*
X127650000Y-55500000D02*
X127150000Y-56000000D01*
D27*
X74795000Y-53035000D02*
X73950000Y-53880000D01*
X73950000Y-53880000D02*
X73950000Y-54700000D01*
D26*
X148725000Y-56775000D02*
X146625000Y-56775000D01*
X146625000Y-56775000D02*
X145925000Y-56075000D01*
X145925000Y-56075000D02*
X145925000Y-54975000D01*
X145625000Y-54675000D02*
X145925000Y-54975000D01*
D27*
X82415000Y-53035000D02*
X82415000Y-51903630D01*
X130449999Y-52049999D02*
X130575000Y-52175000D01*
X82415000Y-51903630D02*
X83193619Y-51125011D01*
X83193619Y-51125011D02*
X90844161Y-51125011D01*
X90844161Y-51125011D02*
X90878714Y-51090458D01*
X130575000Y-52175000D02*
X131625000Y-52175000D01*
X90878714Y-51090458D02*
X91696676Y-51090458D01*
X91696676Y-51090458D02*
X91731229Y-51125011D01*
X91731229Y-51125011D02*
X95748993Y-51125011D01*
X95748993Y-51125011D02*
X95958967Y-51334985D01*
X95958967Y-51334985D02*
X119334985Y-51334985D01*
X119334985Y-51334985D02*
X120049999Y-52049999D01*
X120049999Y-52049999D02*
X130449999Y-52049999D01*
X86005001Y-51984999D02*
X90478869Y-51984999D01*
X91318872Y-52825002D02*
X91318872Y-53024987D01*
X84955000Y-53035000D02*
X86005001Y-51984999D01*
X90478869Y-51984999D02*
X91318872Y-52825002D01*
D28*
X108942604Y-68847580D02*
X109595001Y-69499977D01*
X113038141Y-69499977D02*
X113219332Y-69681168D01*
X109595001Y-69499977D02*
X113038141Y-69499977D01*
X106625000Y-68524274D02*
X106625000Y-68100010D01*
X106255001Y-69300001D02*
X106625000Y-68930002D01*
X103269998Y-68275000D02*
X104294999Y-69300001D01*
X102735000Y-68275000D02*
X103269998Y-68275000D01*
X106625000Y-68930002D02*
X106625000Y-68524274D01*
X104294999Y-69300001D02*
X106255001Y-69300001D01*
X135480001Y-70399999D02*
X123849999Y-70399999D01*
X136705000Y-69175000D02*
X135480001Y-70399999D01*
X123849999Y-70399999D02*
X123550000Y-70100000D01*
X109725000Y-68675000D02*
X110200000Y-69150000D01*
X110200000Y-69150000D02*
X113502149Y-69150000D01*
X113907435Y-69555286D02*
X113907435Y-69979550D01*
X113502149Y-69150000D02*
X113907435Y-69555286D01*
X112128500Y-70024979D02*
X112552764Y-70024979D01*
X112028500Y-70124979D02*
X112128500Y-70024979D01*
X95115000Y-68275000D02*
X96964979Y-70124979D01*
X96964979Y-70124979D02*
X112028500Y-70124979D01*
X123024967Y-68799966D02*
X124075001Y-69850000D01*
X117434946Y-70549989D02*
X119184969Y-68799966D01*
X119184969Y-68799966D02*
X123024967Y-68799966D01*
X129950000Y-69850000D02*
X130625000Y-69175000D01*
X92575000Y-68275000D02*
X94849989Y-70549989D01*
X94849989Y-70549989D02*
X117434946Y-70549989D01*
X130625000Y-69175000D02*
X131625000Y-69175000D01*
X124075001Y-69850000D02*
X129950000Y-69850000D01*
X123005744Y-67005744D02*
X122884425Y-67005744D01*
X124500000Y-68500000D02*
X123005744Y-67005744D01*
X135725736Y-54950000D02*
X136150000Y-54950000D01*
X134483347Y-54950000D02*
X135725736Y-54950000D01*
X133521603Y-55911744D02*
X134483347Y-54950000D01*
D27*
X130925000Y-54500000D02*
X133561028Y-57136028D01*
X133561028Y-57136028D02*
X133561028Y-57454740D01*
X130400000Y-54500000D02*
X130925000Y-54500000D01*
X133370594Y-58167370D02*
X133794858Y-58167370D01*
X132849999Y-57646775D02*
X133370594Y-58167370D01*
X130925000Y-55000000D02*
X132849999Y-56924999D01*
X130400000Y-55000000D02*
X130925000Y-55000000D01*
X132849999Y-56924999D02*
X132849999Y-57646775D01*
D28*
X123373639Y-66162961D02*
X124584459Y-67373781D01*
X124584459Y-67373781D02*
X124584459Y-67396204D01*
D27*
X130925000Y-55500000D02*
X132449988Y-57024988D01*
X130400000Y-55500000D02*
X130925000Y-55500000D01*
X133611273Y-58924754D02*
X133911272Y-59224753D01*
X132449988Y-57763469D02*
X133611273Y-58924754D01*
X132449988Y-57024988D02*
X132449988Y-57763469D01*
D28*
X117912019Y-70850000D02*
X118861972Y-69900047D01*
X90070000Y-70850000D02*
X117912019Y-70850000D01*
X118861972Y-69900047D02*
X119161971Y-69600048D01*
X87495000Y-68275000D02*
X90070000Y-70850000D01*
D27*
G36*
X77786632Y-52017683D02*
X77755952Y-51997183D01*
X77335000Y-51913450D01*
X76914048Y-51997183D01*
X76557183Y-52235633D01*
X76318733Y-52592498D01*
X76235000Y-53013450D01*
X76235000Y-53056550D01*
X76318733Y-53477502D01*
X76321969Y-53482345D01*
X76317157Y-53487157D01*
X76230448Y-53616926D01*
X76230448Y-53616927D01*
X76200000Y-53770000D01*
X76200000Y-54144123D01*
X76150000Y-54144123D01*
X76032946Y-54167407D01*
X75933712Y-54233712D01*
X75867407Y-54332946D01*
X75844123Y-54450000D01*
X75844123Y-54950000D01*
X75867407Y-55067054D01*
X75933712Y-55166288D01*
X76032946Y-55232593D01*
X76150000Y-55255877D01*
X77050000Y-55255877D01*
X77167054Y-55232593D01*
X77266288Y-55166288D01*
X77332593Y-55067054D01*
X77355877Y-54950000D01*
X77355877Y-54450000D01*
X77332593Y-54332946D01*
X77266288Y-54233712D01*
X77167054Y-54167407D01*
X77050000Y-54144123D01*
X77000000Y-54144123D01*
X77000000Y-54089914D01*
X77335000Y-54156550D01*
X77755952Y-54072817D01*
X78112817Y-53834367D01*
X78351267Y-53477502D01*
X78435000Y-53056550D01*
X78435000Y-53013450D01*
X78351267Y-52592498D01*
X78348031Y-52587655D01*
X79760685Y-51175000D01*
X82577944Y-51175000D01*
X82132157Y-51620787D01*
X82045448Y-51750556D01*
X82015000Y-51903630D01*
X82015000Y-51993015D01*
X81994048Y-51997183D01*
X81637183Y-52235633D01*
X81398733Y-52592498D01*
X81315000Y-53013450D01*
X81315000Y-53056550D01*
X81398733Y-53477502D01*
X81637183Y-53834367D01*
X81994048Y-54072817D01*
X82415000Y-54156550D01*
X82835952Y-54072817D01*
X83192817Y-53834367D01*
X83431267Y-53477502D01*
X83515000Y-53056550D01*
X83515000Y-53013450D01*
X83431267Y-52592498D01*
X83192817Y-52235633D01*
X82866633Y-52017683D01*
X82934965Y-51949350D01*
X82961864Y-52014450D01*
X83130499Y-52183380D01*
X83350945Y-52274917D01*
X83589640Y-52275125D01*
X83810245Y-52183973D01*
X83925436Y-52068983D01*
X84048154Y-52044573D01*
X84177923Y-51957864D01*
X84213897Y-51921890D01*
X84912569Y-51921890D01*
X84534048Y-51997183D01*
X84177183Y-52235633D01*
X83938733Y-52592498D01*
X83855000Y-53013450D01*
X83855000Y-53056550D01*
X83938733Y-53477502D01*
X84154220Y-53800000D01*
X83625000Y-53800000D01*
X83481494Y-53828545D01*
X83359835Y-53909835D01*
X83278545Y-54031494D01*
X83250000Y-54175000D01*
X83250000Y-56611772D01*
X83075491Y-56189428D01*
X82752273Y-55865646D01*
X82329753Y-55690200D01*
X81872254Y-55689801D01*
X81558253Y-55819544D01*
X81460000Y-55800000D01*
X81010580Y-55800000D01*
X80966288Y-55733712D01*
X80867054Y-55667407D01*
X80750000Y-55644123D01*
X79850000Y-55644123D01*
X79732946Y-55667407D01*
X79633712Y-55733712D01*
X79625000Y-55746751D01*
X79616288Y-55733712D01*
X79517054Y-55667407D01*
X79400000Y-55644123D01*
X78500000Y-55644123D01*
X78382946Y-55667407D01*
X78283712Y-55733712D01*
X78217407Y-55832946D01*
X78194123Y-55950000D01*
X78194123Y-56450000D01*
X78217407Y-56567054D01*
X78283712Y-56666288D01*
X78382946Y-56732593D01*
X78500000Y-56755877D01*
X79140191Y-56755877D01*
X81121654Y-58737340D01*
X80950200Y-59150247D01*
X80949801Y-59607746D01*
X81124509Y-60030572D01*
X81447727Y-60354354D01*
X81870247Y-60529800D01*
X82327746Y-60530199D01*
X82750572Y-60355491D01*
X83074354Y-60032273D01*
X83249800Y-59609753D01*
X83250000Y-59380000D01*
X83250000Y-61691772D01*
X83075491Y-61269428D01*
X82752273Y-60945646D01*
X82329753Y-60770200D01*
X81872254Y-60769801D01*
X81449428Y-60944509D01*
X81125646Y-61267727D01*
X80950200Y-61690247D01*
X80949801Y-62147746D01*
X81124509Y-62570572D01*
X81447727Y-62894354D01*
X81772264Y-63029114D01*
X81281079Y-63229338D01*
X81267165Y-63238635D01*
X81192339Y-63491628D01*
X82100000Y-64399289D01*
X83007661Y-63491628D01*
X82932835Y-63238635D01*
X82431101Y-63027494D01*
X82750572Y-62895491D01*
X83074354Y-62572273D01*
X83249800Y-62149753D01*
X83250000Y-61920430D01*
X83250000Y-63613100D01*
X83078372Y-63562339D01*
X82170711Y-64470000D01*
X83078372Y-65377661D01*
X83250000Y-65326900D01*
X83250000Y-67175000D01*
X83278545Y-67318506D01*
X83359835Y-67440165D01*
X83481494Y-67521455D01*
X83625000Y-67550000D01*
X84127492Y-67550000D01*
X83938733Y-67832498D01*
X83855000Y-68253450D01*
X83855000Y-68296550D01*
X83938733Y-68717502D01*
X84177183Y-69074367D01*
X84534048Y-69312817D01*
X84955000Y-69396550D01*
X85375952Y-69312817D01*
X85732817Y-69074367D01*
X85971267Y-68717502D01*
X86055000Y-68296550D01*
X86055000Y-68253450D01*
X85971267Y-67832498D01*
X85782508Y-67550000D01*
X86667492Y-67550000D01*
X86478733Y-67832498D01*
X86395000Y-68253450D01*
X86395000Y-68296550D01*
X86478733Y-68717502D01*
X86717183Y-69074367D01*
X87074048Y-69312817D01*
X87495000Y-69396550D01*
X87915952Y-69312817D01*
X87967826Y-69278156D01*
X89464670Y-70775000D01*
X66025000Y-70775000D01*
X66025000Y-68253450D01*
X68615000Y-68253450D01*
X68615000Y-68296550D01*
X68698733Y-68717502D01*
X68937183Y-69074367D01*
X69294048Y-69312817D01*
X69715000Y-69396550D01*
X70135952Y-69312817D01*
X70492817Y-69074367D01*
X70731267Y-68717502D01*
X70815000Y-68296550D01*
X70815000Y-68253450D01*
X71155000Y-68253450D01*
X71155000Y-68296550D01*
X71238733Y-68717502D01*
X71477183Y-69074367D01*
X71834048Y-69312817D01*
X72255000Y-69396550D01*
X72675952Y-69312817D01*
X73032817Y-69074367D01*
X73271267Y-68717502D01*
X73355000Y-68296550D01*
X73355000Y-68253450D01*
X73695000Y-68253450D01*
X73695000Y-68296550D01*
X73778733Y-68717502D01*
X74017183Y-69074367D01*
X74374048Y-69312817D01*
X74795000Y-69396550D01*
X75215952Y-69312817D01*
X75572817Y-69074367D01*
X75811267Y-68717502D01*
X75895000Y-68296550D01*
X75895000Y-68253450D01*
X76235000Y-68253450D01*
X76235000Y-68296550D01*
X76318733Y-68717502D01*
X76557183Y-69074367D01*
X76914048Y-69312817D01*
X77335000Y-69396550D01*
X77755952Y-69312817D01*
X78112817Y-69074367D01*
X78351267Y-68717502D01*
X78435000Y-68296550D01*
X78435000Y-68253450D01*
X78775000Y-68253450D01*
X78775000Y-68296550D01*
X78858733Y-68717502D01*
X79097183Y-69074367D01*
X79454048Y-69312817D01*
X79875000Y-69396550D01*
X80295952Y-69312817D01*
X80652817Y-69074367D01*
X80891267Y-68717502D01*
X80975000Y-68296550D01*
X80975000Y-68253450D01*
X81315000Y-68253450D01*
X81315000Y-68296550D01*
X81398733Y-68717502D01*
X81637183Y-69074367D01*
X81994048Y-69312817D01*
X82415000Y-69396550D01*
X82835952Y-69312817D01*
X83192817Y-69074367D01*
X83431267Y-68717502D01*
X83515000Y-68296550D01*
X83515000Y-68253450D01*
X83431267Y-67832498D01*
X83192817Y-67475633D01*
X82835952Y-67237183D01*
X82415000Y-67153450D01*
X81994048Y-67237183D01*
X81637183Y-67475633D01*
X81398733Y-67832498D01*
X81315000Y-68253450D01*
X80975000Y-68253450D01*
X80891267Y-67832498D01*
X80652817Y-67475633D01*
X80295952Y-67237183D01*
X79875000Y-67153450D01*
X79454048Y-67237183D01*
X79097183Y-67475633D01*
X78858733Y-67832498D01*
X78775000Y-68253450D01*
X78435000Y-68253450D01*
X78351267Y-67832498D01*
X78112817Y-67475633D01*
X77755952Y-67237183D01*
X77335000Y-67153450D01*
X76914048Y-67237183D01*
X76557183Y-67475633D01*
X76318733Y-67832498D01*
X76235000Y-68253450D01*
X75895000Y-68253450D01*
X75811267Y-67832498D01*
X75572817Y-67475633D01*
X75215952Y-67237183D01*
X74795000Y-67153450D01*
X74374048Y-67237183D01*
X74017183Y-67475633D01*
X73778733Y-67832498D01*
X73695000Y-68253450D01*
X73355000Y-68253450D01*
X73271267Y-67832498D01*
X73032817Y-67475633D01*
X72675952Y-67237183D01*
X72255000Y-67153450D01*
X71834048Y-67237183D01*
X71477183Y-67475633D01*
X71238733Y-67832498D01*
X71155000Y-68253450D01*
X70815000Y-68253450D01*
X70731267Y-67832498D01*
X70492817Y-67475633D01*
X70135952Y-67237183D01*
X69715000Y-67153450D01*
X69294048Y-67237183D01*
X68937183Y-67475633D01*
X68698733Y-67832498D01*
X68615000Y-68253450D01*
X66025000Y-68253450D01*
X66025000Y-65448372D01*
X81192339Y-65448372D01*
X81267165Y-65701365D01*
X81801784Y-65926345D01*
X82381803Y-65929610D01*
X82918921Y-65710662D01*
X82932835Y-65701365D01*
X83007661Y-65448372D01*
X82100000Y-64540711D01*
X81192339Y-65448372D01*
X66025000Y-65448372D01*
X66025000Y-64751803D01*
X80640390Y-64751803D01*
X80859338Y-65288921D01*
X80868635Y-65302835D01*
X81121628Y-65377661D01*
X82029289Y-64470000D01*
X81121628Y-63562339D01*
X80868635Y-63637165D01*
X80643655Y-64171784D01*
X80640390Y-64751803D01*
X66025000Y-64751803D01*
X66025000Y-56402000D01*
X72967000Y-56402000D01*
X72967000Y-56720939D01*
X73059563Y-56944405D01*
X73230596Y-57115438D01*
X73454062Y-57208000D01*
X73748000Y-57208000D01*
X73900000Y-57056000D01*
X73900000Y-56250000D01*
X74000000Y-56250000D01*
X74000000Y-57056000D01*
X74152000Y-57208000D01*
X74445938Y-57208000D01*
X74669404Y-57115438D01*
X74840437Y-56944405D01*
X74933000Y-56720939D01*
X74933000Y-56402000D01*
X74781000Y-56250000D01*
X74000000Y-56250000D01*
X73900000Y-56250000D01*
X73119000Y-56250000D01*
X72967000Y-56402000D01*
X66025000Y-56402000D01*
X66025000Y-55679061D01*
X72967000Y-55679061D01*
X72967000Y-55998000D01*
X73119000Y-56150000D01*
X73900000Y-56150000D01*
X73900000Y-56130000D01*
X74000000Y-56130000D01*
X74000000Y-56150000D01*
X74781000Y-56150000D01*
X74933000Y-55998000D01*
X74933000Y-55950000D01*
X75844123Y-55950000D01*
X75844123Y-56450000D01*
X75867407Y-56567054D01*
X75933712Y-56666288D01*
X76032946Y-56732593D01*
X76150000Y-56755877D01*
X76790191Y-56755877D01*
X76900000Y-56865686D01*
X76900000Y-57201513D01*
X76791641Y-57309683D01*
X76700104Y-57530129D01*
X76699896Y-57768824D01*
X76791048Y-57989429D01*
X76959683Y-58158359D01*
X77180129Y-58249896D01*
X77418824Y-58250104D01*
X77639429Y-58158952D01*
X77808359Y-57990317D01*
X77899896Y-57769871D01*
X77900104Y-57531176D01*
X77808952Y-57310571D01*
X77700000Y-57201428D01*
X77700000Y-56700005D01*
X77700001Y-56700000D01*
X77669552Y-56546926D01*
X77582843Y-56417157D01*
X77365686Y-56200000D01*
X78353061Y-55212625D01*
X78382946Y-55232593D01*
X78500000Y-55255877D01*
X79400000Y-55255877D01*
X79517054Y-55232593D01*
X79616288Y-55166288D01*
X79625000Y-55153249D01*
X79633712Y-55166288D01*
X79732946Y-55232593D01*
X79850000Y-55255877D01*
X80750000Y-55255877D01*
X80867054Y-55232593D01*
X80966288Y-55166288D01*
X81032593Y-55067054D01*
X81055877Y-54950000D01*
X81055877Y-54450000D01*
X81032593Y-54332946D01*
X80966288Y-54233712D01*
X80867054Y-54167407D01*
X80750000Y-54144123D01*
X79937474Y-54144123D01*
X80295952Y-54072817D01*
X80652817Y-53834367D01*
X80891267Y-53477502D01*
X80975000Y-53056550D01*
X80975000Y-53013450D01*
X80891267Y-52592498D01*
X80652817Y-52235633D01*
X80295952Y-51997183D01*
X79875000Y-51913450D01*
X79454048Y-51997183D01*
X79097183Y-52235633D01*
X78858733Y-52592498D01*
X78775000Y-53013450D01*
X78775000Y-53056550D01*
X78858733Y-53477502D01*
X79097183Y-53834367D01*
X79454048Y-54072817D01*
X79831263Y-54147850D01*
X79732946Y-54167407D01*
X79633712Y-54233712D01*
X79625000Y-54246751D01*
X79616288Y-54233712D01*
X79517054Y-54167407D01*
X79400000Y-54144123D01*
X78500000Y-54144123D01*
X78382946Y-54167407D01*
X78283712Y-54233712D01*
X78230135Y-54313897D01*
X78146927Y-54330448D01*
X78017157Y-54417157D01*
X78017155Y-54417160D01*
X76790191Y-55644123D01*
X76150000Y-55644123D01*
X76032946Y-55667407D01*
X75933712Y-55733712D01*
X75867407Y-55832946D01*
X75844123Y-55950000D01*
X74933000Y-55950000D01*
X74933000Y-55679061D01*
X74840437Y-55455595D01*
X74669404Y-55284562D01*
X74585663Y-55249875D01*
X74607593Y-55217054D01*
X74630877Y-55100000D01*
X74630877Y-54300000D01*
X74607593Y-54182946D01*
X74558527Y-54109512D01*
X74795000Y-54156550D01*
X75215952Y-54072817D01*
X75572817Y-53834367D01*
X75811267Y-53477502D01*
X75895000Y-53056550D01*
X75895000Y-53013450D01*
X75811267Y-52592498D01*
X75572817Y-52235633D01*
X75215952Y-51997183D01*
X74795000Y-51913450D01*
X74374048Y-51997183D01*
X74017183Y-52235633D01*
X73778733Y-52592498D01*
X73695000Y-53013450D01*
X73695000Y-53056550D01*
X73778733Y-53477502D01*
X73781969Y-53482345D01*
X73667157Y-53597157D01*
X73580448Y-53726926D01*
X73571880Y-53770000D01*
X73550000Y-53880000D01*
X73550000Y-53999096D01*
X73457946Y-54017407D01*
X73358712Y-54083712D01*
X73292407Y-54182946D01*
X73269123Y-54300000D01*
X73269123Y-55100000D01*
X73292407Y-55217054D01*
X73314337Y-55249875D01*
X73230596Y-55284562D01*
X73059563Y-55455595D01*
X72967000Y-55679061D01*
X66025000Y-55679061D01*
X66025000Y-53013450D01*
X68615000Y-53013450D01*
X68615000Y-53056550D01*
X68698733Y-53477502D01*
X68937183Y-53834367D01*
X69294048Y-54072817D01*
X69715000Y-54156550D01*
X70135952Y-54072817D01*
X70492817Y-53834367D01*
X70731267Y-53477502D01*
X70815000Y-53056550D01*
X70815000Y-53013450D01*
X71155000Y-53013450D01*
X71155000Y-53056550D01*
X71238733Y-53477502D01*
X71477183Y-53834367D01*
X71834048Y-54072817D01*
X72255000Y-54156550D01*
X72675952Y-54072817D01*
X73032817Y-53834367D01*
X73271267Y-53477502D01*
X73355000Y-53056550D01*
X73355000Y-53013450D01*
X73271267Y-52592498D01*
X73032817Y-52235633D01*
X72675952Y-51997183D01*
X72255000Y-51913450D01*
X71834048Y-51997183D01*
X71477183Y-52235633D01*
X71238733Y-52592498D01*
X71155000Y-53013450D01*
X70815000Y-53013450D01*
X70731267Y-52592498D01*
X70492817Y-52235633D01*
X70135952Y-51997183D01*
X69715000Y-51913450D01*
X69294048Y-51997183D01*
X68937183Y-52235633D01*
X68698733Y-52592498D01*
X68615000Y-53013450D01*
X66025000Y-53013450D01*
X66025000Y-52155167D01*
X66107097Y-52353857D01*
X66444367Y-52691717D01*
X66885258Y-52874791D01*
X67362647Y-52875207D01*
X67803857Y-52692903D01*
X68141717Y-52355633D01*
X68324791Y-51914742D01*
X68325207Y-51437353D01*
X68142903Y-50996143D01*
X67805633Y-50658283D01*
X67605065Y-50575000D01*
X79229315Y-50575000D01*
X77786632Y-52017683D01*
X77786632Y-52017683D01*
G37*
X77786632Y-52017683D02*
X77755952Y-51997183D01*
X77335000Y-51913450D01*
X76914048Y-51997183D01*
X76557183Y-52235633D01*
X76318733Y-52592498D01*
X76235000Y-53013450D01*
X76235000Y-53056550D01*
X76318733Y-53477502D01*
X76321969Y-53482345D01*
X76317157Y-53487157D01*
X76230448Y-53616926D01*
X76230448Y-53616927D01*
X76200000Y-53770000D01*
X76200000Y-54144123D01*
X76150000Y-54144123D01*
X76032946Y-54167407D01*
X75933712Y-54233712D01*
X75867407Y-54332946D01*
X75844123Y-54450000D01*
X75844123Y-54950000D01*
X75867407Y-55067054D01*
X75933712Y-55166288D01*
X76032946Y-55232593D01*
X76150000Y-55255877D01*
X77050000Y-55255877D01*
X77167054Y-55232593D01*
X77266288Y-55166288D01*
X77332593Y-55067054D01*
X77355877Y-54950000D01*
X77355877Y-54450000D01*
X77332593Y-54332946D01*
X77266288Y-54233712D01*
X77167054Y-54167407D01*
X77050000Y-54144123D01*
X77000000Y-54144123D01*
X77000000Y-54089914D01*
X77335000Y-54156550D01*
X77755952Y-54072817D01*
X78112817Y-53834367D01*
X78351267Y-53477502D01*
X78435000Y-53056550D01*
X78435000Y-53013450D01*
X78351267Y-52592498D01*
X78348031Y-52587655D01*
X79760685Y-51175000D01*
X82577944Y-51175000D01*
X82132157Y-51620787D01*
X82045448Y-51750556D01*
X82015000Y-51903630D01*
X82015000Y-51993015D01*
X81994048Y-51997183D01*
X81637183Y-52235633D01*
X81398733Y-52592498D01*
X81315000Y-53013450D01*
X81315000Y-53056550D01*
X81398733Y-53477502D01*
X81637183Y-53834367D01*
X81994048Y-54072817D01*
X82415000Y-54156550D01*
X82835952Y-54072817D01*
X83192817Y-53834367D01*
X83431267Y-53477502D01*
X83515000Y-53056550D01*
X83515000Y-53013450D01*
X83431267Y-52592498D01*
X83192817Y-52235633D01*
X82866633Y-52017683D01*
X82934965Y-51949350D01*
X82961864Y-52014450D01*
X83130499Y-52183380D01*
X83350945Y-52274917D01*
X83589640Y-52275125D01*
X83810245Y-52183973D01*
X83925436Y-52068983D01*
X84048154Y-52044573D01*
X84177923Y-51957864D01*
X84213897Y-51921890D01*
X84912569Y-51921890D01*
X84534048Y-51997183D01*
X84177183Y-52235633D01*
X83938733Y-52592498D01*
X83855000Y-53013450D01*
X83855000Y-53056550D01*
X83938733Y-53477502D01*
X84154220Y-53800000D01*
X83625000Y-53800000D01*
X83481494Y-53828545D01*
X83359835Y-53909835D01*
X83278545Y-54031494D01*
X83250000Y-54175000D01*
X83250000Y-56611772D01*
X83075491Y-56189428D01*
X82752273Y-55865646D01*
X82329753Y-55690200D01*
X81872254Y-55689801D01*
X81558253Y-55819544D01*
X81460000Y-55800000D01*
X81010580Y-55800000D01*
X80966288Y-55733712D01*
X80867054Y-55667407D01*
X80750000Y-55644123D01*
X79850000Y-55644123D01*
X79732946Y-55667407D01*
X79633712Y-55733712D01*
X79625000Y-55746751D01*
X79616288Y-55733712D01*
X79517054Y-55667407D01*
X79400000Y-55644123D01*
X78500000Y-55644123D01*
X78382946Y-55667407D01*
X78283712Y-55733712D01*
X78217407Y-55832946D01*
X78194123Y-55950000D01*
X78194123Y-56450000D01*
X78217407Y-56567054D01*
X78283712Y-56666288D01*
X78382946Y-56732593D01*
X78500000Y-56755877D01*
X79140191Y-56755877D01*
X81121654Y-58737340D01*
X80950200Y-59150247D01*
X80949801Y-59607746D01*
X81124509Y-60030572D01*
X81447727Y-60354354D01*
X81870247Y-60529800D01*
X82327746Y-60530199D01*
X82750572Y-60355491D01*
X83074354Y-60032273D01*
X83249800Y-59609753D01*
X83250000Y-59380000D01*
X83250000Y-61691772D01*
X83075491Y-61269428D01*
X82752273Y-60945646D01*
X82329753Y-60770200D01*
X81872254Y-60769801D01*
X81449428Y-60944509D01*
X81125646Y-61267727D01*
X80950200Y-61690247D01*
X80949801Y-62147746D01*
X81124509Y-62570572D01*
X81447727Y-62894354D01*
X81772264Y-63029114D01*
X81281079Y-63229338D01*
X81267165Y-63238635D01*
X81192339Y-63491628D01*
X82100000Y-64399289D01*
X83007661Y-63491628D01*
X82932835Y-63238635D01*
X82431101Y-63027494D01*
X82750572Y-62895491D01*
X83074354Y-62572273D01*
X83249800Y-62149753D01*
X83250000Y-61920430D01*
X83250000Y-63613100D01*
X83078372Y-63562339D01*
X82170711Y-64470000D01*
X83078372Y-65377661D01*
X83250000Y-65326900D01*
X83250000Y-67175000D01*
X83278545Y-67318506D01*
X83359835Y-67440165D01*
X83481494Y-67521455D01*
X83625000Y-67550000D01*
X84127492Y-67550000D01*
X83938733Y-67832498D01*
X83855000Y-68253450D01*
X83855000Y-68296550D01*
X83938733Y-68717502D01*
X84177183Y-69074367D01*
X84534048Y-69312817D01*
X84955000Y-69396550D01*
X85375952Y-69312817D01*
X85732817Y-69074367D01*
X85971267Y-68717502D01*
X86055000Y-68296550D01*
X86055000Y-68253450D01*
X85971267Y-67832498D01*
X85782508Y-67550000D01*
X86667492Y-67550000D01*
X86478733Y-67832498D01*
X86395000Y-68253450D01*
X86395000Y-68296550D01*
X86478733Y-68717502D01*
X86717183Y-69074367D01*
X87074048Y-69312817D01*
X87495000Y-69396550D01*
X87915952Y-69312817D01*
X87967826Y-69278156D01*
X89464670Y-70775000D01*
X66025000Y-70775000D01*
X66025000Y-68253450D01*
X68615000Y-68253450D01*
X68615000Y-68296550D01*
X68698733Y-68717502D01*
X68937183Y-69074367D01*
X69294048Y-69312817D01*
X69715000Y-69396550D01*
X70135952Y-69312817D01*
X70492817Y-69074367D01*
X70731267Y-68717502D01*
X70815000Y-68296550D01*
X70815000Y-68253450D01*
X71155000Y-68253450D01*
X71155000Y-68296550D01*
X71238733Y-68717502D01*
X71477183Y-69074367D01*
X71834048Y-69312817D01*
X72255000Y-69396550D01*
X72675952Y-69312817D01*
X73032817Y-69074367D01*
X73271267Y-68717502D01*
X73355000Y-68296550D01*
X73355000Y-68253450D01*
X73695000Y-68253450D01*
X73695000Y-68296550D01*
X73778733Y-68717502D01*
X74017183Y-69074367D01*
X74374048Y-69312817D01*
X74795000Y-69396550D01*
X75215952Y-69312817D01*
X75572817Y-69074367D01*
X75811267Y-68717502D01*
X75895000Y-68296550D01*
X75895000Y-68253450D01*
X76235000Y-68253450D01*
X76235000Y-68296550D01*
X76318733Y-68717502D01*
X76557183Y-69074367D01*
X76914048Y-69312817D01*
X77335000Y-69396550D01*
X77755952Y-69312817D01*
X78112817Y-69074367D01*
X78351267Y-68717502D01*
X78435000Y-68296550D01*
X78435000Y-68253450D01*
X78775000Y-68253450D01*
X78775000Y-68296550D01*
X78858733Y-68717502D01*
X79097183Y-69074367D01*
X79454048Y-69312817D01*
X79875000Y-69396550D01*
X80295952Y-69312817D01*
X80652817Y-69074367D01*
X80891267Y-68717502D01*
X80975000Y-68296550D01*
X80975000Y-68253450D01*
X81315000Y-68253450D01*
X81315000Y-68296550D01*
X81398733Y-68717502D01*
X81637183Y-69074367D01*
X81994048Y-69312817D01*
X82415000Y-69396550D01*
X82835952Y-69312817D01*
X83192817Y-69074367D01*
X83431267Y-68717502D01*
X83515000Y-68296550D01*
X83515000Y-68253450D01*
X83431267Y-67832498D01*
X83192817Y-67475633D01*
X82835952Y-67237183D01*
X82415000Y-67153450D01*
X81994048Y-67237183D01*
X81637183Y-67475633D01*
X81398733Y-67832498D01*
X81315000Y-68253450D01*
X80975000Y-68253450D01*
X80891267Y-67832498D01*
X80652817Y-67475633D01*
X80295952Y-67237183D01*
X79875000Y-67153450D01*
X79454048Y-67237183D01*
X79097183Y-67475633D01*
X78858733Y-67832498D01*
X78775000Y-68253450D01*
X78435000Y-68253450D01*
X78351267Y-67832498D01*
X78112817Y-67475633D01*
X77755952Y-67237183D01*
X77335000Y-67153450D01*
X76914048Y-67237183D01*
X76557183Y-67475633D01*
X76318733Y-67832498D01*
X76235000Y-68253450D01*
X75895000Y-68253450D01*
X75811267Y-67832498D01*
X75572817Y-67475633D01*
X75215952Y-67237183D01*
X74795000Y-67153450D01*
X74374048Y-67237183D01*
X74017183Y-67475633D01*
X73778733Y-67832498D01*
X73695000Y-68253450D01*
X73355000Y-68253450D01*
X73271267Y-67832498D01*
X73032817Y-67475633D01*
X72675952Y-67237183D01*
X72255000Y-67153450D01*
X71834048Y-67237183D01*
X71477183Y-67475633D01*
X71238733Y-67832498D01*
X71155000Y-68253450D01*
X70815000Y-68253450D01*
X70731267Y-67832498D01*
X70492817Y-67475633D01*
X70135952Y-67237183D01*
X69715000Y-67153450D01*
X69294048Y-67237183D01*
X68937183Y-67475633D01*
X68698733Y-67832498D01*
X68615000Y-68253450D01*
X66025000Y-68253450D01*
X66025000Y-65448372D01*
X81192339Y-65448372D01*
X81267165Y-65701365D01*
X81801784Y-65926345D01*
X82381803Y-65929610D01*
X82918921Y-65710662D01*
X82932835Y-65701365D01*
X83007661Y-65448372D01*
X82100000Y-64540711D01*
X81192339Y-65448372D01*
X66025000Y-65448372D01*
X66025000Y-64751803D01*
X80640390Y-64751803D01*
X80859338Y-65288921D01*
X80868635Y-65302835D01*
X81121628Y-65377661D01*
X82029289Y-64470000D01*
X81121628Y-63562339D01*
X80868635Y-63637165D01*
X80643655Y-64171784D01*
X80640390Y-64751803D01*
X66025000Y-64751803D01*
X66025000Y-56402000D01*
X72967000Y-56402000D01*
X72967000Y-56720939D01*
X73059563Y-56944405D01*
X73230596Y-57115438D01*
X73454062Y-57208000D01*
X73748000Y-57208000D01*
X73900000Y-57056000D01*
X73900000Y-56250000D01*
X74000000Y-56250000D01*
X74000000Y-57056000D01*
X74152000Y-57208000D01*
X74445938Y-57208000D01*
X74669404Y-57115438D01*
X74840437Y-56944405D01*
X74933000Y-56720939D01*
X74933000Y-56402000D01*
X74781000Y-56250000D01*
X74000000Y-56250000D01*
X73900000Y-56250000D01*
X73119000Y-56250000D01*
X72967000Y-56402000D01*
X66025000Y-56402000D01*
X66025000Y-55679061D01*
X72967000Y-55679061D01*
X72967000Y-55998000D01*
X73119000Y-56150000D01*
X73900000Y-56150000D01*
X73900000Y-56130000D01*
X74000000Y-56130000D01*
X74000000Y-56150000D01*
X74781000Y-56150000D01*
X74933000Y-55998000D01*
X74933000Y-55950000D01*
X75844123Y-55950000D01*
X75844123Y-56450000D01*
X75867407Y-56567054D01*
X75933712Y-56666288D01*
X76032946Y-56732593D01*
X76150000Y-56755877D01*
X76790191Y-56755877D01*
X76900000Y-56865686D01*
X76900000Y-57201513D01*
X76791641Y-57309683D01*
X76700104Y-57530129D01*
X76699896Y-57768824D01*
X76791048Y-57989429D01*
X76959683Y-58158359D01*
X77180129Y-58249896D01*
X77418824Y-58250104D01*
X77639429Y-58158952D01*
X77808359Y-57990317D01*
X77899896Y-57769871D01*
X77900104Y-57531176D01*
X77808952Y-57310571D01*
X77700000Y-57201428D01*
X77700000Y-56700005D01*
X77700001Y-56700000D01*
X77669552Y-56546926D01*
X77582843Y-56417157D01*
X77365686Y-56200000D01*
X78353061Y-55212625D01*
X78382946Y-55232593D01*
X78500000Y-55255877D01*
X79400000Y-55255877D01*
X79517054Y-55232593D01*
X79616288Y-55166288D01*
X79625000Y-55153249D01*
X79633712Y-55166288D01*
X79732946Y-55232593D01*
X79850000Y-55255877D01*
X80750000Y-55255877D01*
X80867054Y-55232593D01*
X80966288Y-55166288D01*
X81032593Y-55067054D01*
X81055877Y-54950000D01*
X81055877Y-54450000D01*
X81032593Y-54332946D01*
X80966288Y-54233712D01*
X80867054Y-54167407D01*
X80750000Y-54144123D01*
X79937474Y-54144123D01*
X80295952Y-54072817D01*
X80652817Y-53834367D01*
X80891267Y-53477502D01*
X80975000Y-53056550D01*
X80975000Y-53013450D01*
X80891267Y-52592498D01*
X80652817Y-52235633D01*
X80295952Y-51997183D01*
X79875000Y-51913450D01*
X79454048Y-51997183D01*
X79097183Y-52235633D01*
X78858733Y-52592498D01*
X78775000Y-53013450D01*
X78775000Y-53056550D01*
X78858733Y-53477502D01*
X79097183Y-53834367D01*
X79454048Y-54072817D01*
X79831263Y-54147850D01*
X79732946Y-54167407D01*
X79633712Y-54233712D01*
X79625000Y-54246751D01*
X79616288Y-54233712D01*
X79517054Y-54167407D01*
X79400000Y-54144123D01*
X78500000Y-54144123D01*
X78382946Y-54167407D01*
X78283712Y-54233712D01*
X78230135Y-54313897D01*
X78146927Y-54330448D01*
X78017157Y-54417157D01*
X78017155Y-54417160D01*
X76790191Y-55644123D01*
X76150000Y-55644123D01*
X76032946Y-55667407D01*
X75933712Y-55733712D01*
X75867407Y-55832946D01*
X75844123Y-55950000D01*
X74933000Y-55950000D01*
X74933000Y-55679061D01*
X74840437Y-55455595D01*
X74669404Y-55284562D01*
X74585663Y-55249875D01*
X74607593Y-55217054D01*
X74630877Y-55100000D01*
X74630877Y-54300000D01*
X74607593Y-54182946D01*
X74558527Y-54109512D01*
X74795000Y-54156550D01*
X75215952Y-54072817D01*
X75572817Y-53834367D01*
X75811267Y-53477502D01*
X75895000Y-53056550D01*
X75895000Y-53013450D01*
X75811267Y-52592498D01*
X75572817Y-52235633D01*
X75215952Y-51997183D01*
X74795000Y-51913450D01*
X74374048Y-51997183D01*
X74017183Y-52235633D01*
X73778733Y-52592498D01*
X73695000Y-53013450D01*
X73695000Y-53056550D01*
X73778733Y-53477502D01*
X73781969Y-53482345D01*
X73667157Y-53597157D01*
X73580448Y-53726926D01*
X73571880Y-53770000D01*
X73550000Y-53880000D01*
X73550000Y-53999096D01*
X73457946Y-54017407D01*
X73358712Y-54083712D01*
X73292407Y-54182946D01*
X73269123Y-54300000D01*
X73269123Y-55100000D01*
X73292407Y-55217054D01*
X73314337Y-55249875D01*
X73230596Y-55284562D01*
X73059563Y-55455595D01*
X72967000Y-55679061D01*
X66025000Y-55679061D01*
X66025000Y-53013450D01*
X68615000Y-53013450D01*
X68615000Y-53056550D01*
X68698733Y-53477502D01*
X68937183Y-53834367D01*
X69294048Y-54072817D01*
X69715000Y-54156550D01*
X70135952Y-54072817D01*
X70492817Y-53834367D01*
X70731267Y-53477502D01*
X70815000Y-53056550D01*
X70815000Y-53013450D01*
X71155000Y-53013450D01*
X71155000Y-53056550D01*
X71238733Y-53477502D01*
X71477183Y-53834367D01*
X71834048Y-54072817D01*
X72255000Y-54156550D01*
X72675952Y-54072817D01*
X73032817Y-53834367D01*
X73271267Y-53477502D01*
X73355000Y-53056550D01*
X73355000Y-53013450D01*
X73271267Y-52592498D01*
X73032817Y-52235633D01*
X72675952Y-51997183D01*
X72255000Y-51913450D01*
X71834048Y-51997183D01*
X71477183Y-52235633D01*
X71238733Y-52592498D01*
X71155000Y-53013450D01*
X70815000Y-53013450D01*
X70731267Y-52592498D01*
X70492817Y-52235633D01*
X70135952Y-51997183D01*
X69715000Y-51913450D01*
X69294048Y-51997183D01*
X68937183Y-52235633D01*
X68698733Y-52592498D01*
X68615000Y-53013450D01*
X66025000Y-53013450D01*
X66025000Y-52155167D01*
X66107097Y-52353857D01*
X66444367Y-52691717D01*
X66885258Y-52874791D01*
X67362647Y-52875207D01*
X67803857Y-52692903D01*
X68141717Y-52355633D01*
X68324791Y-51914742D01*
X68325207Y-51437353D01*
X68142903Y-50996143D01*
X67805633Y-50658283D01*
X67605065Y-50575000D01*
X79229315Y-50575000D01*
X77786632Y-52017683D01*
G36*
X150225000Y-55069123D02*
X147225000Y-55069123D01*
X147107946Y-55092407D01*
X147008712Y-55158712D01*
X146942407Y-55257946D01*
X146919123Y-55375000D01*
X146919123Y-56225000D01*
X146852817Y-56225000D01*
X146475000Y-55847182D01*
X146475000Y-55215034D01*
X146524896Y-55094871D01*
X146525104Y-54856176D01*
X146433952Y-54635571D01*
X146265317Y-54466641D01*
X146172119Y-54427942D01*
X146133952Y-54335571D01*
X145965317Y-54166641D01*
X145744871Y-54075104D01*
X145506176Y-54074896D01*
X145285571Y-54166048D01*
X145116641Y-54334683D01*
X145025104Y-54555129D01*
X145024896Y-54793824D01*
X145116048Y-55014429D01*
X145284683Y-55183359D01*
X145375000Y-55220862D01*
X145375000Y-56075000D01*
X145416866Y-56285476D01*
X145536091Y-56463909D01*
X146236089Y-57163906D01*
X146236091Y-57163909D01*
X146405678Y-57277223D01*
X146414524Y-57283134D01*
X146625000Y-57325000D01*
X146919123Y-57325000D01*
X146919123Y-58175000D01*
X146942407Y-58292054D01*
X147008712Y-58391288D01*
X147107946Y-58457593D01*
X147225000Y-58480877D01*
X150225000Y-58480877D01*
X150225000Y-61869123D01*
X147225000Y-61869123D01*
X147107946Y-61892407D01*
X147008712Y-61958712D01*
X146942407Y-62057946D01*
X146919123Y-62175000D01*
X146919123Y-62350000D01*
X145365046Y-62350000D01*
X145322036Y-62306915D01*
X145064850Y-62200122D01*
X144786372Y-62199879D01*
X144612390Y-62271767D01*
X144439850Y-62200122D01*
X144161372Y-62199879D01*
X143904000Y-62306223D01*
X143706915Y-62502964D01*
X143600122Y-62760150D01*
X143599879Y-63038628D01*
X143706223Y-63296000D01*
X143902964Y-63493085D01*
X144160150Y-63599878D01*
X144438628Y-63600121D01*
X144612610Y-63528233D01*
X144785150Y-63599878D01*
X145063628Y-63600121D01*
X145321000Y-63493777D01*
X145364854Y-63450000D01*
X146919123Y-63450000D01*
X146919123Y-64975000D01*
X146942407Y-65092054D01*
X147008712Y-65191288D01*
X147107946Y-65257593D01*
X147225000Y-65280877D01*
X150225000Y-65280877D01*
X150225000Y-70775000D01*
X118517349Y-70775000D01*
X119092361Y-70199988D01*
X119280795Y-70200152D01*
X119501400Y-70109000D01*
X119670330Y-69940365D01*
X119761867Y-69719919D01*
X119762075Y-69481224D01*
X119670923Y-69260619D01*
X119585420Y-69174966D01*
X122869637Y-69174966D01*
X123263747Y-69569076D01*
X123210571Y-69591048D01*
X123041641Y-69759683D01*
X122950104Y-69980129D01*
X122949896Y-70218824D01*
X123041048Y-70439429D01*
X123209683Y-70608359D01*
X123430129Y-70699896D01*
X123637084Y-70700076D01*
X123706493Y-70746454D01*
X123849999Y-70774999D01*
X135480001Y-70774999D01*
X135623508Y-70746454D01*
X135745166Y-70665164D01*
X136196231Y-70214099D01*
X136264914Y-70259991D01*
X136705000Y-70347530D01*
X137145086Y-70259991D01*
X137518173Y-70010703D01*
X137767461Y-69637616D01*
X137855000Y-69197530D01*
X137855000Y-69152470D01*
X138095000Y-69152470D01*
X138095000Y-69197530D01*
X138182539Y-69637616D01*
X138431827Y-70010703D01*
X138804914Y-70259991D01*
X139245000Y-70347530D01*
X139685086Y-70259991D01*
X140058173Y-70010703D01*
X140307461Y-69637616D01*
X140312427Y-69612647D01*
X142524793Y-69612647D01*
X142707097Y-70053857D01*
X143044367Y-70391717D01*
X143485258Y-70574791D01*
X143962647Y-70575207D01*
X144403857Y-70392903D01*
X144741717Y-70055633D01*
X144924791Y-69614742D01*
X144925207Y-69137353D01*
X144881863Y-69032452D01*
X146924774Y-69032452D01*
X147122271Y-69510429D01*
X147487647Y-69876444D01*
X147965279Y-70074774D01*
X148482452Y-70075226D01*
X148960429Y-69877729D01*
X149326444Y-69512353D01*
X149524774Y-69034721D01*
X149525226Y-68517548D01*
X149327729Y-68039571D01*
X148962353Y-67673556D01*
X148484721Y-67475226D01*
X147967548Y-67474774D01*
X147489571Y-67672271D01*
X147123556Y-68037647D01*
X146925226Y-68515279D01*
X146924774Y-69032452D01*
X144881863Y-69032452D01*
X144742903Y-68696143D01*
X144405633Y-68358283D01*
X143964742Y-68175209D01*
X143487353Y-68174793D01*
X143046143Y-68357097D01*
X142708283Y-68694367D01*
X142525209Y-69135258D01*
X142524793Y-69612647D01*
X140312427Y-69612647D01*
X140395000Y-69197530D01*
X140395000Y-69152470D01*
X140307461Y-68712384D01*
X140058173Y-68339297D01*
X139685086Y-68090009D01*
X139245000Y-68002470D01*
X138804914Y-68090009D01*
X138431827Y-68339297D01*
X138182539Y-68712384D01*
X138095000Y-69152470D01*
X137855000Y-69152470D01*
X137767461Y-68712384D01*
X137518173Y-68339297D01*
X137145086Y-68090009D01*
X136705000Y-68002470D01*
X136264914Y-68090009D01*
X135891827Y-68339297D01*
X135642539Y-68712384D01*
X135555000Y-69152470D01*
X135555000Y-69197530D01*
X135642539Y-69637616D01*
X135670383Y-69679287D01*
X135324671Y-70024999D01*
X134956777Y-70024999D01*
X134978173Y-70010703D01*
X135227461Y-69637616D01*
X135315000Y-69197530D01*
X135315000Y-69152470D01*
X135227461Y-68712384D01*
X134978173Y-68339297D01*
X134605086Y-68090009D01*
X134165000Y-68002470D01*
X133724914Y-68090009D01*
X133351827Y-68339297D01*
X133102539Y-68712384D01*
X133015000Y-69152470D01*
X133015000Y-69197530D01*
X133102539Y-69637616D01*
X133351827Y-70010703D01*
X133373223Y-70024999D01*
X132780877Y-70024999D01*
X132780877Y-68325000D01*
X132757593Y-68207946D01*
X132691288Y-68108712D01*
X132592054Y-68042407D01*
X132475000Y-68019123D01*
X130775000Y-68019123D01*
X130657946Y-68042407D01*
X130558712Y-68108712D01*
X130492407Y-68207946D01*
X130469123Y-68325000D01*
X130469123Y-68836810D01*
X130359835Y-68909835D01*
X129794670Y-69475000D01*
X124230331Y-69475000D01*
X123290132Y-68534801D01*
X123168474Y-68453511D01*
X123024967Y-68424966D01*
X119184969Y-68424966D01*
X119041462Y-68453511D01*
X118919804Y-68534801D01*
X117279616Y-70174989D01*
X114475952Y-70174989D01*
X114507331Y-70099421D01*
X114507539Y-69860726D01*
X114416387Y-69640121D01*
X114270176Y-69493654D01*
X114265590Y-69470598D01*
X114253890Y-69411779D01*
X114172600Y-69290121D01*
X113767314Y-68884835D01*
X113645656Y-68803545D01*
X113502149Y-68775000D01*
X110355330Y-68775000D01*
X110324940Y-68744610D01*
X110325104Y-68556176D01*
X110233952Y-68335571D01*
X110065317Y-68166641D01*
X109844871Y-68075104D01*
X109606176Y-68074896D01*
X109385571Y-68166048D01*
X109232901Y-68318451D01*
X109062475Y-68247684D01*
X108823780Y-68247476D01*
X108603175Y-68338628D01*
X108434245Y-68507263D01*
X108342708Y-68727709D01*
X108342500Y-68966404D01*
X108433652Y-69187009D01*
X108602287Y-69355939D01*
X108822733Y-69447476D01*
X109012335Y-69447641D01*
X109314673Y-69749979D01*
X97120309Y-69749979D01*
X96113869Y-68743539D01*
X96131267Y-68717502D01*
X96165678Y-68544506D01*
X96273030Y-68544506D01*
X96481362Y-69052848D01*
X96868369Y-69442770D01*
X97375134Y-69654909D01*
X97385495Y-69656966D01*
X97605000Y-69530004D01*
X97605000Y-68325000D01*
X97705000Y-68325000D01*
X97705000Y-69530004D01*
X97924505Y-69656966D01*
X97934866Y-69654909D01*
X98441631Y-69442770D01*
X98828638Y-69052848D01*
X99036970Y-68544506D01*
X98910116Y-68325000D01*
X97705000Y-68325000D01*
X97605000Y-68325000D01*
X96399884Y-68325000D01*
X96273030Y-68544506D01*
X96165678Y-68544506D01*
X96215000Y-68296550D01*
X96215000Y-68253450D01*
X96131267Y-67832498D01*
X95942508Y-67550000D01*
X96459703Y-67550000D01*
X96273030Y-68005494D01*
X96399884Y-68225000D01*
X97605000Y-68225000D01*
X97605000Y-68205000D01*
X97705000Y-68205000D01*
X97705000Y-68225000D01*
X98910116Y-68225000D01*
X99036970Y-68005494D01*
X98850297Y-67550000D01*
X99367492Y-67550000D01*
X99178733Y-67832498D01*
X99095000Y-68253450D01*
X99095000Y-68296550D01*
X99178733Y-68717502D01*
X99417183Y-69074367D01*
X99774048Y-69312817D01*
X100195000Y-69396550D01*
X100615952Y-69312817D01*
X100972817Y-69074367D01*
X101211267Y-68717502D01*
X101295000Y-68296550D01*
X101295000Y-68253450D01*
X101211267Y-67832498D01*
X101022508Y-67550000D01*
X101907492Y-67550000D01*
X101718733Y-67832498D01*
X101635000Y-68253450D01*
X101635000Y-68296550D01*
X101718733Y-68717502D01*
X101957183Y-69074367D01*
X102314048Y-69312817D01*
X102735000Y-69396550D01*
X103155952Y-69312817D01*
X103512817Y-69074367D01*
X103523318Y-69058650D01*
X104029834Y-69565166D01*
X104151492Y-69646456D01*
X104294999Y-69675001D01*
X106255001Y-69675001D01*
X106398508Y-69646456D01*
X106520166Y-69565166D01*
X106890165Y-69195167D01*
X106971455Y-69073508D01*
X107000000Y-68930002D01*
X107000000Y-68573453D01*
X107133359Y-68440327D01*
X107224896Y-68219881D01*
X107225104Y-67981186D01*
X107133952Y-67760581D01*
X106965317Y-67591651D01*
X106865010Y-67550000D01*
X119125000Y-67550000D01*
X119268506Y-67521455D01*
X119390165Y-67440165D01*
X119471455Y-67318506D01*
X119500000Y-67175000D01*
X119500000Y-67124568D01*
X122284321Y-67124568D01*
X122375473Y-67345173D01*
X122544108Y-67514103D01*
X122764554Y-67605640D01*
X123003249Y-67605848D01*
X123054388Y-67584718D01*
X123900060Y-68430390D01*
X123899896Y-68618824D01*
X123991048Y-68839429D01*
X124159683Y-69008359D01*
X124380129Y-69099896D01*
X124618824Y-69100104D01*
X124839429Y-69008952D01*
X125008359Y-68840317D01*
X125099896Y-68619871D01*
X125100104Y-68381176D01*
X125008952Y-68160571D01*
X124840317Y-67991641D01*
X124777603Y-67965600D01*
X124923888Y-67905156D01*
X125092818Y-67736521D01*
X125184355Y-67516075D01*
X125184563Y-67277380D01*
X125093411Y-67056775D01*
X124924776Y-66887845D01*
X124704330Y-66796308D01*
X124537170Y-66796162D01*
X123973579Y-66232571D01*
X123973743Y-66044137D01*
X123882591Y-65823532D01*
X123713956Y-65654602D01*
X123493510Y-65563065D01*
X123254815Y-65562857D01*
X123034210Y-65654009D01*
X122865280Y-65822644D01*
X122773743Y-66043090D01*
X122773535Y-66281785D01*
X122824732Y-66405692D01*
X122765601Y-66405640D01*
X122544996Y-66496792D01*
X122376066Y-66665427D01*
X122284529Y-66885873D01*
X122284321Y-67124568D01*
X119500000Y-67124568D01*
X119500000Y-55277470D01*
X121350000Y-55277470D01*
X121350000Y-55322530D01*
X121437539Y-55762616D01*
X121686827Y-56135703D01*
X122059914Y-56384991D01*
X122500000Y-56472530D01*
X122940086Y-56384991D01*
X123313173Y-56135703D01*
X123562461Y-55762616D01*
X123650000Y-55322530D01*
X123650000Y-55277470D01*
X123568525Y-54867871D01*
X123836397Y-54599999D01*
X123884123Y-54599999D01*
X123884123Y-56150000D01*
X123907407Y-56267054D01*
X123973712Y-56366288D01*
X124072946Y-56432593D01*
X124190000Y-56455877D01*
X125890000Y-56455877D01*
X125919545Y-56450000D01*
X126479069Y-56450000D01*
X126492407Y-56517054D01*
X126558712Y-56616288D01*
X126657946Y-56682593D01*
X126775000Y-56705877D01*
X127216701Y-56705877D01*
X127010571Y-56791048D01*
X126841641Y-56959683D01*
X126750104Y-57180129D01*
X126749896Y-57418824D01*
X126841048Y-57639429D01*
X127009683Y-57808359D01*
X127230129Y-57899896D01*
X127468824Y-57900104D01*
X127689429Y-57808952D01*
X127715576Y-57782850D01*
X127717407Y-57792054D01*
X127783712Y-57891288D01*
X127882946Y-57957593D01*
X128000000Y-57980877D01*
X128469481Y-57980877D01*
X128856802Y-58368198D01*
X129002792Y-58465746D01*
X129175000Y-58500000D01*
X130600000Y-58500000D01*
X130772208Y-58465746D01*
X130918198Y-58368198D01*
X131529745Y-57756651D01*
X131557077Y-57715746D01*
X131627293Y-57610661D01*
X131661547Y-57438453D01*
X131661547Y-56802233D01*
X132049988Y-57190674D01*
X132049988Y-57763469D01*
X132080436Y-57916543D01*
X132167145Y-58046312D01*
X133311301Y-59190468D01*
X133311168Y-59343577D01*
X133402320Y-59564182D01*
X133570955Y-59733112D01*
X133791401Y-59824649D01*
X134030096Y-59824857D01*
X134250701Y-59733705D01*
X134419631Y-59565070D01*
X134511168Y-59344624D01*
X134511376Y-59105929D01*
X134420224Y-58885324D01*
X134251589Y-58716394D01*
X134140397Y-58670223D01*
X134303217Y-58507687D01*
X134394754Y-58287241D01*
X134394962Y-58048546D01*
X134303810Y-57827941D01*
X134135175Y-57659011D01*
X134127245Y-57655718D01*
X134160924Y-57574611D01*
X134161132Y-57335916D01*
X134069980Y-57115311D01*
X133915853Y-56960914D01*
X133843871Y-56853185D01*
X133843868Y-56853183D01*
X133502413Y-56511728D01*
X133640427Y-56511848D01*
X133861032Y-56420696D01*
X134029962Y-56252061D01*
X134037949Y-56232827D01*
X134061331Y-56289417D01*
X134229966Y-56458347D01*
X134450412Y-56549884D01*
X134689107Y-56550092D01*
X134909712Y-56458940D01*
X135018855Y-56349988D01*
X136324278Y-56349988D01*
X136477352Y-56319540D01*
X136607121Y-56232831D01*
X137232854Y-55607098D01*
X137319563Y-55477329D01*
X137343999Y-55354479D01*
X137458370Y-55240308D01*
X137549907Y-55019862D01*
X137550115Y-54781167D01*
X137458963Y-54560562D01*
X137290328Y-54391632D01*
X137069882Y-54300095D01*
X136831187Y-54299887D01*
X136610582Y-54391039D01*
X136525043Y-54476428D01*
X136490317Y-54441641D01*
X136269871Y-54350104D01*
X136031176Y-54349896D01*
X135810571Y-54441048D01*
X135676385Y-54575000D01*
X134483347Y-54575000D01*
X134339841Y-54603545D01*
X134330655Y-54609683D01*
X134218182Y-54684835D01*
X133591213Y-55311804D01*
X133402779Y-55311640D01*
X133182174Y-55402792D01*
X133013244Y-55571427D01*
X132921707Y-55791873D01*
X132921586Y-55930901D01*
X131207843Y-54217157D01*
X131078074Y-54130448D01*
X130929627Y-54100920D01*
X130842054Y-54042407D01*
X130725000Y-54019123D01*
X130328965Y-54019123D01*
X130194405Y-53884563D01*
X129970939Y-53792000D01*
X129602000Y-53792000D01*
X129450000Y-53944000D01*
X129450000Y-54775000D01*
X129469000Y-54775000D01*
X129450000Y-54794000D01*
X129450000Y-55706000D01*
X129469000Y-55725000D01*
X129450000Y-55725000D01*
X129450000Y-55745000D01*
X129350000Y-55745000D01*
X129350000Y-55725000D01*
X129331000Y-55725000D01*
X129350000Y-55706000D01*
X129350000Y-54794000D01*
X129333000Y-54777000D01*
X129333000Y-54775000D01*
X129350000Y-54775000D01*
X129350000Y-53944000D01*
X129198000Y-53792000D01*
X129027004Y-53792000D01*
X128845939Y-53717000D01*
X128602000Y-53717000D01*
X128450000Y-53869000D01*
X128450000Y-54040158D01*
X128434562Y-54055596D01*
X128350000Y-54259748D01*
X128350000Y-53869000D01*
X128198000Y-53717000D01*
X127954061Y-53717000D01*
X127730595Y-53809563D01*
X127690429Y-53849729D01*
X127642054Y-53817407D01*
X127525000Y-53794123D01*
X126775000Y-53794123D01*
X126657946Y-53817407D01*
X126558712Y-53883712D01*
X126533236Y-53921840D01*
X126443197Y-53831801D01*
X126414832Y-53812848D01*
X126297207Y-53734253D01*
X126124999Y-53699999D01*
X123650001Y-53699999D01*
X123477793Y-53734253D01*
X123360168Y-53812848D01*
X123331803Y-53831801D01*
X122945187Y-54218417D01*
X122940086Y-54215009D01*
X122500000Y-54127470D01*
X122059914Y-54215009D01*
X121686827Y-54464297D01*
X121437539Y-54837384D01*
X121350000Y-55277470D01*
X119500000Y-55277470D01*
X119500000Y-54175176D01*
X119500035Y-54175000D01*
X119471490Y-54031494D01*
X119390200Y-53909835D01*
X119268541Y-53828545D01*
X119125035Y-53800000D01*
X112144051Y-53800000D01*
X112364429Y-53708942D01*
X112533359Y-53540307D01*
X112624896Y-53319861D01*
X112625104Y-53081166D01*
X112533952Y-52860561D01*
X112365317Y-52691631D01*
X112144871Y-52600094D01*
X111906176Y-52599886D01*
X111774950Y-52654107D01*
X111644871Y-52600094D01*
X111406176Y-52599886D01*
X111284915Y-52649990D01*
X111265034Y-52649990D01*
X111144871Y-52600094D01*
X110906176Y-52599886D01*
X110685571Y-52691038D01*
X110516641Y-52859673D01*
X110479139Y-52949989D01*
X107877806Y-52949989D01*
X106662803Y-51734985D01*
X119169299Y-51734985D01*
X119767154Y-52332839D01*
X119767156Y-52332842D01*
X119896926Y-52419551D01*
X120049999Y-52449999D01*
X130284313Y-52449999D01*
X130292157Y-52457843D01*
X130421926Y-52544552D01*
X130469123Y-52553940D01*
X130469123Y-53025000D01*
X130492407Y-53142054D01*
X130558712Y-53241288D01*
X130657946Y-53307593D01*
X130775000Y-53330877D01*
X132475000Y-53330877D01*
X132592054Y-53307593D01*
X132691288Y-53241288D01*
X132757593Y-53142054D01*
X132780877Y-53025000D01*
X132780877Y-52152470D01*
X133015000Y-52152470D01*
X133015000Y-52197530D01*
X133102539Y-52637616D01*
X133351827Y-53010703D01*
X133724914Y-53259991D01*
X134165000Y-53347530D01*
X134605086Y-53259991D01*
X134978173Y-53010703D01*
X135227461Y-52637616D01*
X135315000Y-52197530D01*
X135315000Y-52152470D01*
X135555000Y-52152470D01*
X135555000Y-52197530D01*
X135642539Y-52637616D01*
X135891827Y-53010703D01*
X136264914Y-53259991D01*
X136705000Y-53347530D01*
X137145086Y-53259991D01*
X137518173Y-53010703D01*
X137767461Y-52637616D01*
X137855000Y-52197530D01*
X137855000Y-52152470D01*
X138095000Y-52152470D01*
X138095000Y-52197530D01*
X138182539Y-52637616D01*
X138431827Y-53010703D01*
X138804914Y-53259991D01*
X139245000Y-53347530D01*
X139685086Y-53259991D01*
X140058173Y-53010703D01*
X140177276Y-52832452D01*
X146924774Y-52832452D01*
X147122271Y-53310429D01*
X147487647Y-53676444D01*
X147965279Y-53874774D01*
X148482452Y-53875226D01*
X148960429Y-53677729D01*
X149326444Y-53312353D01*
X149524774Y-52834721D01*
X149525226Y-52317548D01*
X149327729Y-51839571D01*
X148962353Y-51473556D01*
X148484721Y-51275226D01*
X147967548Y-51274774D01*
X147489571Y-51472271D01*
X147123556Y-51837647D01*
X146925226Y-52315279D01*
X146924774Y-52832452D01*
X140177276Y-52832452D01*
X140307461Y-52637616D01*
X140395000Y-52197530D01*
X140395000Y-52152470D01*
X140307461Y-51712384D01*
X140058173Y-51339297D01*
X139685086Y-51090009D01*
X139245000Y-51002470D01*
X138804914Y-51090009D01*
X138431827Y-51339297D01*
X138182539Y-51712384D01*
X138095000Y-52152470D01*
X137855000Y-52152470D01*
X137767461Y-51712384D01*
X137518173Y-51339297D01*
X137145086Y-51090009D01*
X136705000Y-51002470D01*
X136264914Y-51090009D01*
X135891827Y-51339297D01*
X135642539Y-51712384D01*
X135555000Y-52152470D01*
X135315000Y-52152470D01*
X135227461Y-51712384D01*
X134978173Y-51339297D01*
X134605086Y-51090009D01*
X134165000Y-51002470D01*
X133724914Y-51090009D01*
X133351827Y-51339297D01*
X133102539Y-51712384D01*
X133015000Y-52152470D01*
X132780877Y-52152470D01*
X132780877Y-51325000D01*
X132757593Y-51207946D01*
X132691288Y-51108712D01*
X132592054Y-51042407D01*
X132475000Y-51019123D01*
X130775000Y-51019123D01*
X130657946Y-51042407D01*
X130558712Y-51108712D01*
X130492407Y-51207946D01*
X130469123Y-51325000D01*
X130469123Y-51653803D01*
X130449999Y-51649999D01*
X120504583Y-51649999D01*
X120664429Y-51583952D01*
X120833359Y-51415317D01*
X120924896Y-51194871D01*
X120925104Y-50956176D01*
X120833952Y-50735571D01*
X120673661Y-50575000D01*
X150225000Y-50575000D01*
X150225000Y-55069123D01*
X150225000Y-55069123D01*
G37*
X150225000Y-55069123D02*
X147225000Y-55069123D01*
X147107946Y-55092407D01*
X147008712Y-55158712D01*
X146942407Y-55257946D01*
X146919123Y-55375000D01*
X146919123Y-56225000D01*
X146852817Y-56225000D01*
X146475000Y-55847182D01*
X146475000Y-55215034D01*
X146524896Y-55094871D01*
X146525104Y-54856176D01*
X146433952Y-54635571D01*
X146265317Y-54466641D01*
X146172119Y-54427942D01*
X146133952Y-54335571D01*
X145965317Y-54166641D01*
X145744871Y-54075104D01*
X145506176Y-54074896D01*
X145285571Y-54166048D01*
X145116641Y-54334683D01*
X145025104Y-54555129D01*
X145024896Y-54793824D01*
X145116048Y-55014429D01*
X145284683Y-55183359D01*
X145375000Y-55220862D01*
X145375000Y-56075000D01*
X145416866Y-56285476D01*
X145536091Y-56463909D01*
X146236089Y-57163906D01*
X146236091Y-57163909D01*
X146405678Y-57277223D01*
X146414524Y-57283134D01*
X146625000Y-57325000D01*
X146919123Y-57325000D01*
X146919123Y-58175000D01*
X146942407Y-58292054D01*
X147008712Y-58391288D01*
X147107946Y-58457593D01*
X147225000Y-58480877D01*
X150225000Y-58480877D01*
X150225000Y-61869123D01*
X147225000Y-61869123D01*
X147107946Y-61892407D01*
X147008712Y-61958712D01*
X146942407Y-62057946D01*
X146919123Y-62175000D01*
X146919123Y-62350000D01*
X145365046Y-62350000D01*
X145322036Y-62306915D01*
X145064850Y-62200122D01*
X144786372Y-62199879D01*
X144612390Y-62271767D01*
X144439850Y-62200122D01*
X144161372Y-62199879D01*
X143904000Y-62306223D01*
X143706915Y-62502964D01*
X143600122Y-62760150D01*
X143599879Y-63038628D01*
X143706223Y-63296000D01*
X143902964Y-63493085D01*
X144160150Y-63599878D01*
X144438628Y-63600121D01*
X144612610Y-63528233D01*
X144785150Y-63599878D01*
X145063628Y-63600121D01*
X145321000Y-63493777D01*
X145364854Y-63450000D01*
X146919123Y-63450000D01*
X146919123Y-64975000D01*
X146942407Y-65092054D01*
X147008712Y-65191288D01*
X147107946Y-65257593D01*
X147225000Y-65280877D01*
X150225000Y-65280877D01*
X150225000Y-70775000D01*
X118517349Y-70775000D01*
X119092361Y-70199988D01*
X119280795Y-70200152D01*
X119501400Y-70109000D01*
X119670330Y-69940365D01*
X119761867Y-69719919D01*
X119762075Y-69481224D01*
X119670923Y-69260619D01*
X119585420Y-69174966D01*
X122869637Y-69174966D01*
X123263747Y-69569076D01*
X123210571Y-69591048D01*
X123041641Y-69759683D01*
X122950104Y-69980129D01*
X122949896Y-70218824D01*
X123041048Y-70439429D01*
X123209683Y-70608359D01*
X123430129Y-70699896D01*
X123637084Y-70700076D01*
X123706493Y-70746454D01*
X123849999Y-70774999D01*
X135480001Y-70774999D01*
X135623508Y-70746454D01*
X135745166Y-70665164D01*
X136196231Y-70214099D01*
X136264914Y-70259991D01*
X136705000Y-70347530D01*
X137145086Y-70259991D01*
X137518173Y-70010703D01*
X137767461Y-69637616D01*
X137855000Y-69197530D01*
X137855000Y-69152470D01*
X138095000Y-69152470D01*
X138095000Y-69197530D01*
X138182539Y-69637616D01*
X138431827Y-70010703D01*
X138804914Y-70259991D01*
X139245000Y-70347530D01*
X139685086Y-70259991D01*
X140058173Y-70010703D01*
X140307461Y-69637616D01*
X140312427Y-69612647D01*
X142524793Y-69612647D01*
X142707097Y-70053857D01*
X143044367Y-70391717D01*
X143485258Y-70574791D01*
X143962647Y-70575207D01*
X144403857Y-70392903D01*
X144741717Y-70055633D01*
X144924791Y-69614742D01*
X144925207Y-69137353D01*
X144881863Y-69032452D01*
X146924774Y-69032452D01*
X147122271Y-69510429D01*
X147487647Y-69876444D01*
X147965279Y-70074774D01*
X148482452Y-70075226D01*
X148960429Y-69877729D01*
X149326444Y-69512353D01*
X149524774Y-69034721D01*
X149525226Y-68517548D01*
X149327729Y-68039571D01*
X148962353Y-67673556D01*
X148484721Y-67475226D01*
X147967548Y-67474774D01*
X147489571Y-67672271D01*
X147123556Y-68037647D01*
X146925226Y-68515279D01*
X146924774Y-69032452D01*
X144881863Y-69032452D01*
X144742903Y-68696143D01*
X144405633Y-68358283D01*
X143964742Y-68175209D01*
X143487353Y-68174793D01*
X143046143Y-68357097D01*
X142708283Y-68694367D01*
X142525209Y-69135258D01*
X142524793Y-69612647D01*
X140312427Y-69612647D01*
X140395000Y-69197530D01*
X140395000Y-69152470D01*
X140307461Y-68712384D01*
X140058173Y-68339297D01*
X139685086Y-68090009D01*
X139245000Y-68002470D01*
X138804914Y-68090009D01*
X138431827Y-68339297D01*
X138182539Y-68712384D01*
X138095000Y-69152470D01*
X137855000Y-69152470D01*
X137767461Y-68712384D01*
X137518173Y-68339297D01*
X137145086Y-68090009D01*
X136705000Y-68002470D01*
X136264914Y-68090009D01*
X135891827Y-68339297D01*
X135642539Y-68712384D01*
X135555000Y-69152470D01*
X135555000Y-69197530D01*
X135642539Y-69637616D01*
X135670383Y-69679287D01*
X135324671Y-70024999D01*
X134956777Y-70024999D01*
X134978173Y-70010703D01*
X135227461Y-69637616D01*
X135315000Y-69197530D01*
X135315000Y-69152470D01*
X135227461Y-68712384D01*
X134978173Y-68339297D01*
X134605086Y-68090009D01*
X134165000Y-68002470D01*
X133724914Y-68090009D01*
X133351827Y-68339297D01*
X133102539Y-68712384D01*
X133015000Y-69152470D01*
X133015000Y-69197530D01*
X133102539Y-69637616D01*
X133351827Y-70010703D01*
X133373223Y-70024999D01*
X132780877Y-70024999D01*
X132780877Y-68325000D01*
X132757593Y-68207946D01*
X132691288Y-68108712D01*
X132592054Y-68042407D01*
X132475000Y-68019123D01*
X130775000Y-68019123D01*
X130657946Y-68042407D01*
X130558712Y-68108712D01*
X130492407Y-68207946D01*
X130469123Y-68325000D01*
X130469123Y-68836810D01*
X130359835Y-68909835D01*
X129794670Y-69475000D01*
X124230331Y-69475000D01*
X123290132Y-68534801D01*
X123168474Y-68453511D01*
X123024967Y-68424966D01*
X119184969Y-68424966D01*
X119041462Y-68453511D01*
X118919804Y-68534801D01*
X117279616Y-70174989D01*
X114475952Y-70174989D01*
X114507331Y-70099421D01*
X114507539Y-69860726D01*
X114416387Y-69640121D01*
X114270176Y-69493654D01*
X114265590Y-69470598D01*
X114253890Y-69411779D01*
X114172600Y-69290121D01*
X113767314Y-68884835D01*
X113645656Y-68803545D01*
X113502149Y-68775000D01*
X110355330Y-68775000D01*
X110324940Y-68744610D01*
X110325104Y-68556176D01*
X110233952Y-68335571D01*
X110065317Y-68166641D01*
X109844871Y-68075104D01*
X109606176Y-68074896D01*
X109385571Y-68166048D01*
X109232901Y-68318451D01*
X109062475Y-68247684D01*
X108823780Y-68247476D01*
X108603175Y-68338628D01*
X108434245Y-68507263D01*
X108342708Y-68727709D01*
X108342500Y-68966404D01*
X108433652Y-69187009D01*
X108602287Y-69355939D01*
X108822733Y-69447476D01*
X109012335Y-69447641D01*
X109314673Y-69749979D01*
X97120309Y-69749979D01*
X96113869Y-68743539D01*
X96131267Y-68717502D01*
X96165678Y-68544506D01*
X96273030Y-68544506D01*
X96481362Y-69052848D01*
X96868369Y-69442770D01*
X97375134Y-69654909D01*
X97385495Y-69656966D01*
X97605000Y-69530004D01*
X97605000Y-68325000D01*
X97705000Y-68325000D01*
X97705000Y-69530004D01*
X97924505Y-69656966D01*
X97934866Y-69654909D01*
X98441631Y-69442770D01*
X98828638Y-69052848D01*
X99036970Y-68544506D01*
X98910116Y-68325000D01*
X97705000Y-68325000D01*
X97605000Y-68325000D01*
X96399884Y-68325000D01*
X96273030Y-68544506D01*
X96165678Y-68544506D01*
X96215000Y-68296550D01*
X96215000Y-68253450D01*
X96131267Y-67832498D01*
X95942508Y-67550000D01*
X96459703Y-67550000D01*
X96273030Y-68005494D01*
X96399884Y-68225000D01*
X97605000Y-68225000D01*
X97605000Y-68205000D01*
X97705000Y-68205000D01*
X97705000Y-68225000D01*
X98910116Y-68225000D01*
X99036970Y-68005494D01*
X98850297Y-67550000D01*
X99367492Y-67550000D01*
X99178733Y-67832498D01*
X99095000Y-68253450D01*
X99095000Y-68296550D01*
X99178733Y-68717502D01*
X99417183Y-69074367D01*
X99774048Y-69312817D01*
X100195000Y-69396550D01*
X100615952Y-69312817D01*
X100972817Y-69074367D01*
X101211267Y-68717502D01*
X101295000Y-68296550D01*
X101295000Y-68253450D01*
X101211267Y-67832498D01*
X101022508Y-67550000D01*
X101907492Y-67550000D01*
X101718733Y-67832498D01*
X101635000Y-68253450D01*
X101635000Y-68296550D01*
X101718733Y-68717502D01*
X101957183Y-69074367D01*
X102314048Y-69312817D01*
X102735000Y-69396550D01*
X103155952Y-69312817D01*
X103512817Y-69074367D01*
X103523318Y-69058650D01*
X104029834Y-69565166D01*
X104151492Y-69646456D01*
X104294999Y-69675001D01*
X106255001Y-69675001D01*
X106398508Y-69646456D01*
X106520166Y-69565166D01*
X106890165Y-69195167D01*
X106971455Y-69073508D01*
X107000000Y-68930002D01*
X107000000Y-68573453D01*
X107133359Y-68440327D01*
X107224896Y-68219881D01*
X107225104Y-67981186D01*
X107133952Y-67760581D01*
X106965317Y-67591651D01*
X106865010Y-67550000D01*
X119125000Y-67550000D01*
X119268506Y-67521455D01*
X119390165Y-67440165D01*
X119471455Y-67318506D01*
X119500000Y-67175000D01*
X119500000Y-67124568D01*
X122284321Y-67124568D01*
X122375473Y-67345173D01*
X122544108Y-67514103D01*
X122764554Y-67605640D01*
X123003249Y-67605848D01*
X123054388Y-67584718D01*
X123900060Y-68430390D01*
X123899896Y-68618824D01*
X123991048Y-68839429D01*
X124159683Y-69008359D01*
X124380129Y-69099896D01*
X124618824Y-69100104D01*
X124839429Y-69008952D01*
X125008359Y-68840317D01*
X125099896Y-68619871D01*
X125100104Y-68381176D01*
X125008952Y-68160571D01*
X124840317Y-67991641D01*
X124777603Y-67965600D01*
X124923888Y-67905156D01*
X125092818Y-67736521D01*
X125184355Y-67516075D01*
X125184563Y-67277380D01*
X125093411Y-67056775D01*
X124924776Y-66887845D01*
X124704330Y-66796308D01*
X124537170Y-66796162D01*
X123973579Y-66232571D01*
X123973743Y-66044137D01*
X123882591Y-65823532D01*
X123713956Y-65654602D01*
X123493510Y-65563065D01*
X123254815Y-65562857D01*
X123034210Y-65654009D01*
X122865280Y-65822644D01*
X122773743Y-66043090D01*
X122773535Y-66281785D01*
X122824732Y-66405692D01*
X122765601Y-66405640D01*
X122544996Y-66496792D01*
X122376066Y-66665427D01*
X122284529Y-66885873D01*
X122284321Y-67124568D01*
X119500000Y-67124568D01*
X119500000Y-55277470D01*
X121350000Y-55277470D01*
X121350000Y-55322530D01*
X121437539Y-55762616D01*
X121686827Y-56135703D01*
X122059914Y-56384991D01*
X122500000Y-56472530D01*
X122940086Y-56384991D01*
X123313173Y-56135703D01*
X123562461Y-55762616D01*
X123650000Y-55322530D01*
X123650000Y-55277470D01*
X123568525Y-54867871D01*
X123836397Y-54599999D01*
X123884123Y-54599999D01*
X123884123Y-56150000D01*
X123907407Y-56267054D01*
X123973712Y-56366288D01*
X124072946Y-56432593D01*
X124190000Y-56455877D01*
X125890000Y-56455877D01*
X125919545Y-56450000D01*
X126479069Y-56450000D01*
X126492407Y-56517054D01*
X126558712Y-56616288D01*
X126657946Y-56682593D01*
X126775000Y-56705877D01*
X127216701Y-56705877D01*
X127010571Y-56791048D01*
X126841641Y-56959683D01*
X126750104Y-57180129D01*
X126749896Y-57418824D01*
X126841048Y-57639429D01*
X127009683Y-57808359D01*
X127230129Y-57899896D01*
X127468824Y-57900104D01*
X127689429Y-57808952D01*
X127715576Y-57782850D01*
X127717407Y-57792054D01*
X127783712Y-57891288D01*
X127882946Y-57957593D01*
X128000000Y-57980877D01*
X128469481Y-57980877D01*
X128856802Y-58368198D01*
X129002792Y-58465746D01*
X129175000Y-58500000D01*
X130600000Y-58500000D01*
X130772208Y-58465746D01*
X130918198Y-58368198D01*
X131529745Y-57756651D01*
X131557077Y-57715746D01*
X131627293Y-57610661D01*
X131661547Y-57438453D01*
X131661547Y-56802233D01*
X132049988Y-57190674D01*
X132049988Y-57763469D01*
X132080436Y-57916543D01*
X132167145Y-58046312D01*
X133311301Y-59190468D01*
X133311168Y-59343577D01*
X133402320Y-59564182D01*
X133570955Y-59733112D01*
X133791401Y-59824649D01*
X134030096Y-59824857D01*
X134250701Y-59733705D01*
X134419631Y-59565070D01*
X134511168Y-59344624D01*
X134511376Y-59105929D01*
X134420224Y-58885324D01*
X134251589Y-58716394D01*
X134140397Y-58670223D01*
X134303217Y-58507687D01*
X134394754Y-58287241D01*
X134394962Y-58048546D01*
X134303810Y-57827941D01*
X134135175Y-57659011D01*
X134127245Y-57655718D01*
X134160924Y-57574611D01*
X134161132Y-57335916D01*
X134069980Y-57115311D01*
X133915853Y-56960914D01*
X133843871Y-56853185D01*
X133843868Y-56853183D01*
X133502413Y-56511728D01*
X133640427Y-56511848D01*
X133861032Y-56420696D01*
X134029962Y-56252061D01*
X134037949Y-56232827D01*
X134061331Y-56289417D01*
X134229966Y-56458347D01*
X134450412Y-56549884D01*
X134689107Y-56550092D01*
X134909712Y-56458940D01*
X135018855Y-56349988D01*
X136324278Y-56349988D01*
X136477352Y-56319540D01*
X136607121Y-56232831D01*
X137232854Y-55607098D01*
X137319563Y-55477329D01*
X137343999Y-55354479D01*
X137458370Y-55240308D01*
X137549907Y-55019862D01*
X137550115Y-54781167D01*
X137458963Y-54560562D01*
X137290328Y-54391632D01*
X137069882Y-54300095D01*
X136831187Y-54299887D01*
X136610582Y-54391039D01*
X136525043Y-54476428D01*
X136490317Y-54441641D01*
X136269871Y-54350104D01*
X136031176Y-54349896D01*
X135810571Y-54441048D01*
X135676385Y-54575000D01*
X134483347Y-54575000D01*
X134339841Y-54603545D01*
X134330655Y-54609683D01*
X134218182Y-54684835D01*
X133591213Y-55311804D01*
X133402779Y-55311640D01*
X133182174Y-55402792D01*
X133013244Y-55571427D01*
X132921707Y-55791873D01*
X132921586Y-55930901D01*
X131207843Y-54217157D01*
X131078074Y-54130448D01*
X130929627Y-54100920D01*
X130842054Y-54042407D01*
X130725000Y-54019123D01*
X130328965Y-54019123D01*
X130194405Y-53884563D01*
X129970939Y-53792000D01*
X129602000Y-53792000D01*
X129450000Y-53944000D01*
X129450000Y-54775000D01*
X129469000Y-54775000D01*
X129450000Y-54794000D01*
X129450000Y-55706000D01*
X129469000Y-55725000D01*
X129450000Y-55725000D01*
X129450000Y-55745000D01*
X129350000Y-55745000D01*
X129350000Y-55725000D01*
X129331000Y-55725000D01*
X129350000Y-55706000D01*
X129350000Y-54794000D01*
X129333000Y-54777000D01*
X129333000Y-54775000D01*
X129350000Y-54775000D01*
X129350000Y-53944000D01*
X129198000Y-53792000D01*
X129027004Y-53792000D01*
X128845939Y-53717000D01*
X128602000Y-53717000D01*
X128450000Y-53869000D01*
X128450000Y-54040158D01*
X128434562Y-54055596D01*
X128350000Y-54259748D01*
X128350000Y-53869000D01*
X128198000Y-53717000D01*
X127954061Y-53717000D01*
X127730595Y-53809563D01*
X127690429Y-53849729D01*
X127642054Y-53817407D01*
X127525000Y-53794123D01*
X126775000Y-53794123D01*
X126657946Y-53817407D01*
X126558712Y-53883712D01*
X126533236Y-53921840D01*
X126443197Y-53831801D01*
X126414832Y-53812848D01*
X126297207Y-53734253D01*
X126124999Y-53699999D01*
X123650001Y-53699999D01*
X123477793Y-53734253D01*
X123360168Y-53812848D01*
X123331803Y-53831801D01*
X122945187Y-54218417D01*
X122940086Y-54215009D01*
X122500000Y-54127470D01*
X122059914Y-54215009D01*
X121686827Y-54464297D01*
X121437539Y-54837384D01*
X121350000Y-55277470D01*
X119500000Y-55277470D01*
X119500000Y-54175176D01*
X119500035Y-54175000D01*
X119471490Y-54031494D01*
X119390200Y-53909835D01*
X119268541Y-53828545D01*
X119125035Y-53800000D01*
X112144051Y-53800000D01*
X112364429Y-53708942D01*
X112533359Y-53540307D01*
X112624896Y-53319861D01*
X112625104Y-53081166D01*
X112533952Y-52860561D01*
X112365317Y-52691631D01*
X112144871Y-52600094D01*
X111906176Y-52599886D01*
X111774950Y-52654107D01*
X111644871Y-52600094D01*
X111406176Y-52599886D01*
X111284915Y-52649990D01*
X111265034Y-52649990D01*
X111144871Y-52600094D01*
X110906176Y-52599886D01*
X110685571Y-52691038D01*
X110516641Y-52859673D01*
X110479139Y-52949989D01*
X107877806Y-52949989D01*
X106662803Y-51734985D01*
X119169299Y-51734985D01*
X119767154Y-52332839D01*
X119767156Y-52332842D01*
X119896926Y-52419551D01*
X120049999Y-52449999D01*
X130284313Y-52449999D01*
X130292157Y-52457843D01*
X130421926Y-52544552D01*
X130469123Y-52553940D01*
X130469123Y-53025000D01*
X130492407Y-53142054D01*
X130558712Y-53241288D01*
X130657946Y-53307593D01*
X130775000Y-53330877D01*
X132475000Y-53330877D01*
X132592054Y-53307593D01*
X132691288Y-53241288D01*
X132757593Y-53142054D01*
X132780877Y-53025000D01*
X132780877Y-52152470D01*
X133015000Y-52152470D01*
X133015000Y-52197530D01*
X133102539Y-52637616D01*
X133351827Y-53010703D01*
X133724914Y-53259991D01*
X134165000Y-53347530D01*
X134605086Y-53259991D01*
X134978173Y-53010703D01*
X135227461Y-52637616D01*
X135315000Y-52197530D01*
X135315000Y-52152470D01*
X135555000Y-52152470D01*
X135555000Y-52197530D01*
X135642539Y-52637616D01*
X135891827Y-53010703D01*
X136264914Y-53259991D01*
X136705000Y-53347530D01*
X137145086Y-53259991D01*
X137518173Y-53010703D01*
X137767461Y-52637616D01*
X137855000Y-52197530D01*
X137855000Y-52152470D01*
X138095000Y-52152470D01*
X138095000Y-52197530D01*
X138182539Y-52637616D01*
X138431827Y-53010703D01*
X138804914Y-53259991D01*
X139245000Y-53347530D01*
X139685086Y-53259991D01*
X140058173Y-53010703D01*
X140177276Y-52832452D01*
X146924774Y-52832452D01*
X147122271Y-53310429D01*
X147487647Y-53676444D01*
X147965279Y-53874774D01*
X148482452Y-53875226D01*
X148960429Y-53677729D01*
X149326444Y-53312353D01*
X149524774Y-52834721D01*
X149525226Y-52317548D01*
X149327729Y-51839571D01*
X148962353Y-51473556D01*
X148484721Y-51275226D01*
X147967548Y-51274774D01*
X147489571Y-51472271D01*
X147123556Y-51837647D01*
X146925226Y-52315279D01*
X146924774Y-52832452D01*
X140177276Y-52832452D01*
X140307461Y-52637616D01*
X140395000Y-52197530D01*
X140395000Y-52152470D01*
X140307461Y-51712384D01*
X140058173Y-51339297D01*
X139685086Y-51090009D01*
X139245000Y-51002470D01*
X138804914Y-51090009D01*
X138431827Y-51339297D01*
X138182539Y-51712384D01*
X138095000Y-52152470D01*
X137855000Y-52152470D01*
X137767461Y-51712384D01*
X137518173Y-51339297D01*
X137145086Y-51090009D01*
X136705000Y-51002470D01*
X136264914Y-51090009D01*
X135891827Y-51339297D01*
X135642539Y-51712384D01*
X135555000Y-52152470D01*
X135315000Y-52152470D01*
X135227461Y-51712384D01*
X134978173Y-51339297D01*
X134605086Y-51090009D01*
X134165000Y-51002470D01*
X133724914Y-51090009D01*
X133351827Y-51339297D01*
X133102539Y-51712384D01*
X133015000Y-52152470D01*
X132780877Y-52152470D01*
X132780877Y-51325000D01*
X132757593Y-51207946D01*
X132691288Y-51108712D01*
X132592054Y-51042407D01*
X132475000Y-51019123D01*
X130775000Y-51019123D01*
X130657946Y-51042407D01*
X130558712Y-51108712D01*
X130492407Y-51207946D01*
X130469123Y-51325000D01*
X130469123Y-51653803D01*
X130449999Y-51649999D01*
X120504583Y-51649999D01*
X120664429Y-51583952D01*
X120833359Y-51415317D01*
X120924896Y-51194871D01*
X120925104Y-50956176D01*
X120833952Y-50735571D01*
X120673661Y-50575000D01*
X150225000Y-50575000D01*
X150225000Y-55069123D01*
G36*
X129950000Y-57250000D02*
X129970000Y-57250000D01*
X129970000Y-57350000D01*
X129950000Y-57350000D01*
X129950000Y-57370000D01*
X129850000Y-57370000D01*
X129850000Y-57350000D01*
X129830000Y-57350000D01*
X129830000Y-57250000D01*
X129850000Y-57250000D01*
X129850000Y-57230000D01*
X129950000Y-57230000D01*
X129950000Y-57250000D01*
X129950000Y-57250000D01*
G37*
X129950000Y-57250000D02*
X129970000Y-57250000D01*
X129970000Y-57350000D01*
X129950000Y-57350000D01*
X129950000Y-57370000D01*
X129850000Y-57370000D01*
X129850000Y-57350000D01*
X129830000Y-57350000D01*
X129830000Y-57250000D01*
X129850000Y-57250000D01*
X129850000Y-57230000D01*
X129950000Y-57230000D01*
X129950000Y-57250000D01*
G36*
X96053991Y-52324999D02*
X96523315Y-52324999D01*
X96699648Y-52501332D01*
X96638733Y-52592498D01*
X96555000Y-53013450D01*
X96555000Y-53056550D01*
X96638733Y-53477502D01*
X96854220Y-53800000D01*
X95915780Y-53800000D01*
X96131267Y-53477502D01*
X96215000Y-53056550D01*
X96215000Y-53013450D01*
X96131267Y-52592498D01*
X95936978Y-52301724D01*
X96053991Y-52324999D01*
X96053991Y-52324999D01*
G37*
X96053991Y-52324999D02*
X96523315Y-52324999D01*
X96699648Y-52501332D01*
X96638733Y-52592498D01*
X96555000Y-53013450D01*
X96555000Y-53056550D01*
X96638733Y-53477502D01*
X96854220Y-53800000D01*
X95915780Y-53800000D01*
X96131267Y-53477502D01*
X96215000Y-53056550D01*
X96215000Y-53013450D01*
X96131267Y-52592498D01*
X95936978Y-52301724D01*
X96053991Y-52324999D01*
G36*
X101353030Y-52765494D02*
X101479884Y-52985000D01*
X102685000Y-52985000D01*
X102685000Y-52965000D01*
X102785000Y-52965000D01*
X102785000Y-52985000D01*
X103990116Y-52985000D01*
X104116970Y-52765494D01*
X103961033Y-52384999D01*
X104397380Y-52384999D01*
X104258733Y-52592498D01*
X104175000Y-53013450D01*
X104175000Y-53056550D01*
X104258733Y-53477502D01*
X104474220Y-53800000D01*
X103913903Y-53800000D01*
X104116970Y-53304506D01*
X103990116Y-53085000D01*
X102785000Y-53085000D01*
X102785000Y-53105000D01*
X102685000Y-53105000D01*
X102685000Y-53085000D01*
X101479884Y-53085000D01*
X101353030Y-53304506D01*
X101556097Y-53800000D01*
X100995780Y-53800000D01*
X101211267Y-53477502D01*
X101295000Y-53056550D01*
X101295000Y-53013450D01*
X101211267Y-52592498D01*
X101072620Y-52384999D01*
X101508967Y-52384999D01*
X101353030Y-52765494D01*
X101353030Y-52765494D01*
G37*
X101353030Y-52765494D02*
X101479884Y-52985000D01*
X102685000Y-52985000D01*
X102685000Y-52965000D01*
X102785000Y-52965000D01*
X102785000Y-52985000D01*
X103990116Y-52985000D01*
X104116970Y-52765494D01*
X103961033Y-52384999D01*
X104397380Y-52384999D01*
X104258733Y-52592498D01*
X104175000Y-53013450D01*
X104175000Y-53056550D01*
X104258733Y-53477502D01*
X104474220Y-53800000D01*
X103913903Y-53800000D01*
X104116970Y-53304506D01*
X103990116Y-53085000D01*
X102785000Y-53085000D01*
X102785000Y-53105000D01*
X102685000Y-53105000D01*
X102685000Y-53085000D01*
X101479884Y-53085000D01*
X101353030Y-53304506D01*
X101556097Y-53800000D01*
X100995780Y-53800000D01*
X101211267Y-53477502D01*
X101295000Y-53056550D01*
X101295000Y-53013450D01*
X101211267Y-52592498D01*
X101072620Y-52384999D01*
X101508967Y-52384999D01*
X101353030Y-52765494D01*
G36*
X91480044Y-51891442D02*
X91633118Y-51921891D01*
X91633123Y-51921890D01*
X92532569Y-51921890D01*
X92154048Y-51997183D01*
X91797183Y-52235633D01*
X91620236Y-52500453D01*
X91517241Y-52457686D01*
X90974946Y-51915391D01*
X91095346Y-51891442D01*
X91171632Y-51840469D01*
X91403758Y-51840469D01*
X91480044Y-51891442D01*
X91480044Y-51891442D01*
G37*
X91480044Y-51891442D02*
X91633118Y-51921891D01*
X91633123Y-51921890D01*
X92532569Y-51921890D01*
X92154048Y-51997183D01*
X91797183Y-52235633D01*
X91620236Y-52500453D01*
X91517241Y-52457686D01*
X90974946Y-51915391D01*
X91095346Y-51891442D01*
X91171632Y-51840469D01*
X91403758Y-51840469D01*
X91480044Y-51891442D01*
M02*
