M48
;DRILL file {KiCad no-vcs-found} date 05/22/18 13:07:33
;FORMAT={-:-/ absolute / inch / decimal}
FMAT,2
INCH,TZ
T1C0.012
T2C0.016
T3C0.031
T4C0.039
%
G90
G05
M72
T1
X2.7687Y-2.5463
X2.8278Y-2.2982
X3.0433Y-2.2697
X3.06Y-2.5463
X3.1212Y-2.2961
X3.2863Y-2.0344
X3.594Y-2.0469
X3.5952Y-2.0876
X3.7963Y-2.0659
X4.1978Y-2.6811
X4.2411Y-2.0659
X4.2608Y-2.0699
X4.2891Y-2.7105
X4.3199Y-2.7037
X4.3711Y-2.0945
X4.3907Y-2.0945
X4.4104Y-2.0945
X4.4312Y-2.7569
X4.4575Y-2.7434
X4.4845Y-2.7551
X4.6914Y-2.7402
X4.7372Y-2.0108
X4.838Y-2.638
X4.8572Y-2.6048
X4.8642Y-2.7598
X4.9016Y-2.6969
X4.9049Y-2.6534
X5.0138Y-2.2559
X5.0943Y-2.1596
X5.0945Y-2.1929
X5.1348Y-2.6211
X5.2568Y-2.2012
X5.2583Y-2.262
X5.2675Y-2.2901
X5.2721Y-2.3317
X5.298Y-2.2028
X5.3602Y-2.1634
X5.3917Y-2.1614
X5.4774Y-2.5659
X5.4823Y-2.252
X5.6309Y-2.1722
X5.6506Y-2.1722
X5.7333Y-2.1526
X5.7451Y-2.1644
X5.7687Y-2.4045
T2
X5.6811Y-2.4764
X5.7057Y-2.4764
T3
X2.7447Y-2.088
X2.7447Y-2.688
X2.8447Y-2.088
X2.8447Y-2.688
X2.9447Y-2.088
X2.9447Y-2.688
X3.0447Y-2.088
X3.0447Y-2.688
X3.1447Y-2.088
X3.1447Y-2.688
X3.2447Y-2.088
X3.2447Y-2.688
X3.3447Y-2.088
X3.3447Y-2.688
X3.4447Y-2.088
X3.4447Y-2.688
X3.5447Y-2.088
X3.5447Y-2.688
X3.6447Y-2.088
X3.6447Y-2.688
X3.7447Y-2.088
X3.7447Y-2.688
X3.8447Y-2.088
X3.8447Y-2.688
X3.9447Y-2.088
X3.9447Y-2.688
X4.0447Y-2.088
X4.0447Y-2.688
X4.1447Y-2.088
X4.1447Y-2.688
T4
X5.1821Y-2.0541
X5.2821Y-2.0541
X5.3821Y-2.0541
X5.4821Y-2.0541
X4.8228Y-2.1772
X4.9228Y-2.1772
X5.1821Y-2.7234
X5.2821Y-2.7234
X5.3821Y-2.7234
X5.4821Y-2.7234
X3.2323Y-2.2378
X3.2323Y-2.3378
X3.2323Y-2.4378
X3.2323Y-2.5382
T0
M30
