G04 #@! TF.GenerationSoftware,KiCad,Pcbnew,(5.1.2)-1*
G04 #@! TF.CreationDate,2019-07-12T15:40:08+02:00*
G04 #@! TF.ProjectId,soldering_burning,736f6c64-6572-4696-9e67-5f6275726e69,101A*
G04 #@! TF.SameCoordinates,Original*
G04 #@! TF.FileFunction,Copper,L2,Bot*
G04 #@! TF.FilePolarity,Positive*
%FSLAX46Y46*%
G04 Gerber Fmt 4.6, Leading zero omitted, Abs format (unit mm)*
G04 Created by KiCad (PCBNEW (5.1.2)-1) date 2019-07-12 15:40:08*
%MOMM*%
%LPD*%
G04 APERTURE LIST*
%ADD10R,3.000000X3.000000*%
%ADD11R,3.300000X1.500000*%
%ADD12C,0.800000*%
%ADD13C,0.250000*%
%ADD14C,2.000000*%
%ADD15C,0.200000*%
G04 APERTURE END LIST*
D10*
X105800000Y-93950000D03*
X102600000Y-96950000D03*
X102600000Y-91000000D03*
D11*
X122900000Y-99100000D03*
X122900000Y-96550000D03*
X122900000Y-94000000D03*
X122900000Y-91450000D03*
X122900000Y-88900000D03*
D12*
X119250000Y-100100000D03*
X120400002Y-100099998D03*
X116750000Y-97350000D03*
X120350000Y-88450000D03*
X120350000Y-88450000D03*
X120350000Y-88450000D03*
X118050000Y-88450000D03*
X120650000Y-90600000D03*
X113350000Y-92200000D03*
X116500000Y-96350000D03*
D13*
X116800000Y-97300000D02*
X116750000Y-97350000D01*
X120300000Y-97300000D02*
X116800000Y-97300000D01*
X122900000Y-99100000D02*
X122100000Y-99100000D01*
X122100000Y-99100000D02*
X120300000Y-97300000D01*
D14*
X122900000Y-88900000D02*
X120800000Y-88900000D01*
X120800000Y-88900000D02*
X120350000Y-88450000D01*
X120350000Y-88450000D02*
X118050000Y-88450000D01*
D13*
X120650000Y-90600000D02*
X114950000Y-90600000D01*
X114950000Y-90600000D02*
X113350000Y-92200000D01*
X122900000Y-96550000D02*
X116700000Y-96550000D01*
X116700000Y-96550000D02*
X116500000Y-96350000D01*
D15*
G36*
X111250000Y-98100000D02*
G01*
X111251921Y-98119509D01*
X111257612Y-98138268D01*
X111266853Y-98155557D01*
X111279289Y-98170711D01*
X111294443Y-98183147D01*
X111311732Y-98192388D01*
X111330491Y-98198079D01*
X111349627Y-98199999D01*
X116506724Y-98219242D01*
X116661358Y-98250000D01*
X116838642Y-98250000D01*
X116984317Y-98221024D01*
X120349699Y-98233581D01*
X120747581Y-98631464D01*
X120747581Y-99850000D01*
X120757235Y-99948017D01*
X120785825Y-100042267D01*
X120832254Y-100129129D01*
X120894736Y-100205264D01*
X120970871Y-100267746D01*
X121057733Y-100314175D01*
X121151983Y-100342765D01*
X121250000Y-100352419D01*
X124150001Y-100352419D01*
X124150001Y-100450000D01*
X105900000Y-100450000D01*
X105900000Y-99193054D01*
X105917621Y-99191318D01*
X106030721Y-99157010D01*
X106134955Y-99101296D01*
X106226317Y-99026317D01*
X106301296Y-98934955D01*
X106357010Y-98830721D01*
X106391318Y-98717621D01*
X106402903Y-98600000D01*
X106400000Y-98570526D01*
X106400000Y-95850352D01*
X107300000Y-95851935D01*
X107378414Y-95844212D01*
X107453814Y-95821340D01*
X107523303Y-95784197D01*
X107584211Y-95734211D01*
X107634197Y-95673303D01*
X107671340Y-95603814D01*
X107694212Y-95528414D01*
X107701935Y-95450000D01*
X107700000Y-94350000D01*
X107600000Y-94250000D01*
X106400000Y-94250000D01*
X106400000Y-93650000D01*
X107600000Y-93650000D01*
X107700000Y-93550000D01*
X107701935Y-92450000D01*
X107694212Y-92371586D01*
X107671340Y-92296186D01*
X107634197Y-92226697D01*
X107584211Y-92165789D01*
X107523303Y-92115803D01*
X107453814Y-92078660D01*
X107378414Y-92055788D01*
X107300000Y-92048065D01*
X106400000Y-92049648D01*
X106400000Y-91350000D01*
X111250000Y-91350000D01*
X111250000Y-98100000D01*
X111250000Y-98100000D01*
G37*
X111250000Y-98100000D02*
X111251921Y-98119509D01*
X111257612Y-98138268D01*
X111266853Y-98155557D01*
X111279289Y-98170711D01*
X111294443Y-98183147D01*
X111311732Y-98192388D01*
X111330491Y-98198079D01*
X111349627Y-98199999D01*
X116506724Y-98219242D01*
X116661358Y-98250000D01*
X116838642Y-98250000D01*
X116984317Y-98221024D01*
X120349699Y-98233581D01*
X120747581Y-98631464D01*
X120747581Y-99850000D01*
X120757235Y-99948017D01*
X120785825Y-100042267D01*
X120832254Y-100129129D01*
X120894736Y-100205264D01*
X120970871Y-100267746D01*
X121057733Y-100314175D01*
X121151983Y-100342765D01*
X121250000Y-100352419D01*
X124150001Y-100352419D01*
X124150001Y-100450000D01*
X105900000Y-100450000D01*
X105900000Y-99193054D01*
X105917621Y-99191318D01*
X106030721Y-99157010D01*
X106134955Y-99101296D01*
X106226317Y-99026317D01*
X106301296Y-98934955D01*
X106357010Y-98830721D01*
X106391318Y-98717621D01*
X106402903Y-98600000D01*
X106400000Y-98570526D01*
X106400000Y-95850352D01*
X107300000Y-95851935D01*
X107378414Y-95844212D01*
X107453814Y-95821340D01*
X107523303Y-95784197D01*
X107584211Y-95734211D01*
X107634197Y-95673303D01*
X107671340Y-95603814D01*
X107694212Y-95528414D01*
X107701935Y-95450000D01*
X107700000Y-94350000D01*
X107600000Y-94250000D01*
X106400000Y-94250000D01*
X106400000Y-93650000D01*
X107600000Y-93650000D01*
X107700000Y-93550000D01*
X107701935Y-92450000D01*
X107694212Y-92371586D01*
X107671340Y-92296186D01*
X107634197Y-92226697D01*
X107584211Y-92165789D01*
X107523303Y-92115803D01*
X107453814Y-92078660D01*
X107378414Y-92055788D01*
X107300000Y-92048065D01*
X106400000Y-92049648D01*
X106400000Y-91350000D01*
X111250000Y-91350000D01*
X111250000Y-98100000D01*
M02*
