G04 #@! TF.GenerationSoftware,KiCad,Pcbnew,(5.1.2)-1*
G04 #@! TF.CreationDate,2019-07-12T15:40:09+02:00*
G04 #@! TF.ProjectId,soldering_burning,736f6c64-6572-4696-9e67-5f6275726e69,101A*
G04 #@! TF.SameCoordinates,Original*
G04 #@! TF.FileFunction,Soldermask,Bot*
G04 #@! TF.FilePolarity,Negative*
%FSLAX46Y46*%
G04 Gerber Fmt 4.6, Leading zero omitted, Abs format (unit mm)*
G04 Created by KiCad (PCBNEW (5.1.2)-1) date 2019-07-12 15:40:09*
%MOMM*%
%LPD*%
G04 APERTURE LIST*
%ADD10C,0.250000*%
%ADD11R,3.240000X3.240000*%
%ADD12R,3.540000X1.740000*%
G04 APERTURE END LIST*
D10*
X115616666Y-99952380D02*
X115616666Y-98952380D01*
X115045238Y-99952380D02*
X115473809Y-99380952D01*
X115045238Y-98952380D02*
X115616666Y-99523809D01*
X114616666Y-99952380D02*
X114616666Y-98952380D01*
X114283333Y-98952380D02*
X113711904Y-98952380D01*
X113997619Y-99952380D02*
X113997619Y-98952380D01*
X113616666Y-100047619D02*
X112854761Y-100047619D01*
X112283333Y-99428571D02*
X112140476Y-99476190D01*
X112092857Y-99523809D01*
X112045238Y-99619047D01*
X112045238Y-99761904D01*
X112092857Y-99857142D01*
X112140476Y-99904761D01*
X112235714Y-99952380D01*
X112616666Y-99952380D01*
X112616666Y-98952380D01*
X112283333Y-98952380D01*
X112188095Y-99000000D01*
X112140476Y-99047619D01*
X112092857Y-99142857D01*
X112092857Y-99238095D01*
X112140476Y-99333333D01*
X112188095Y-99380952D01*
X112283333Y-99428571D01*
X112616666Y-99428571D01*
X111664285Y-99904761D02*
X111521428Y-99952380D01*
X111283333Y-99952380D01*
X111188095Y-99904761D01*
X111140476Y-99857142D01*
X111092857Y-99761904D01*
X111092857Y-99666666D01*
X111140476Y-99571428D01*
X111188095Y-99523809D01*
X111283333Y-99476190D01*
X111473809Y-99428571D01*
X111569047Y-99380952D01*
X111616666Y-99333333D01*
X111664285Y-99238095D01*
X111664285Y-99142857D01*
X111616666Y-99047619D01*
X111569047Y-99000000D01*
X111473809Y-98952380D01*
X111235714Y-98952380D01*
X111092857Y-99000000D01*
X110140476Y-99952380D02*
X110711904Y-99952380D01*
X110426190Y-99952380D02*
X110426190Y-98952380D01*
X110521428Y-99095238D01*
X110616666Y-99190476D01*
X110711904Y-99238095D01*
X109521428Y-98952380D02*
X109426190Y-98952380D01*
X109330952Y-99000000D01*
X109283333Y-99047619D01*
X109235714Y-99142857D01*
X109188095Y-99333333D01*
X109188095Y-99571428D01*
X109235714Y-99761904D01*
X109283333Y-99857142D01*
X109330952Y-99904761D01*
X109426190Y-99952380D01*
X109521428Y-99952380D01*
X109616666Y-99904761D01*
X109664285Y-99857142D01*
X109711904Y-99761904D01*
X109759523Y-99571428D01*
X109759523Y-99333333D01*
X109711904Y-99142857D01*
X109664285Y-99047619D01*
X109616666Y-99000000D01*
X109521428Y-98952380D01*
X108235714Y-99952380D02*
X108807142Y-99952380D01*
X108521428Y-99952380D02*
X108521428Y-98952380D01*
X108616666Y-99095238D01*
X108711904Y-99190476D01*
X108807142Y-99238095D01*
D11*
X105800000Y-93950000D03*
X102600000Y-96950000D03*
X102600000Y-91000000D03*
D12*
X122900000Y-99100000D03*
X122900000Y-96550000D03*
X122900000Y-94000000D03*
X122900000Y-91450000D03*
X122900000Y-88900000D03*
M02*
