G04 #@! TF.GenerationSoftware,KiCad,Pcbnew,(5.0.0)*
G04 #@! TF.CreationDate,2019-05-10T09:44:01+02:00*
G04 #@! TF.ProjectId,3dsimo_kit,336473696D6F5F6B69742E6B69636164,200A*
G04 #@! TF.SameCoordinates,Original*
G04 #@! TF.FileFunction,Copper,L2,Bot,Signal*
G04 #@! TF.FilePolarity,Positive*
%FSLAX46Y46*%
G04 Gerber Fmt 4.6, Leading zero omitted, Abs format (unit mm)*
G04 Created by KiCad (PCBNEW (5.0.0)) date 05/10/19 09:44:01*
%MOMM*%
%LPD*%
G01*
G04 APERTURE LIST*
G04 #@! TA.AperFunction,SMDPad,CuDef*
%ADD10R,3.300000X1.500000*%
G04 #@! TD*
G04 #@! TA.AperFunction,BGAPad,CuDef*
%ADD11C,0.787400*%
G04 #@! TD*
G04 #@! TA.AperFunction,ComponentPad*
%ADD12C,1.700000*%
G04 #@! TD*
G04 #@! TA.AperFunction,ViaPad*
%ADD13C,0.800000*%
G04 #@! TD*
G04 #@! TA.AperFunction,Conductor*
%ADD14C,0.200000*%
G04 #@! TD*
G04 #@! TA.AperFunction,Conductor*
%ADD15C,1.000000*%
G04 #@! TD*
G04 #@! TA.AperFunction,Conductor*
%ADD16C,0.400000*%
G04 #@! TD*
G04 #@! TA.AperFunction,Conductor*
%ADD17C,0.300000*%
G04 #@! TD*
G04 #@! TA.AperFunction,Conductor*
%ADD18C,0.800000*%
G04 #@! TD*
G04 APERTURE END LIST*
D10*
G04 #@! TO.P,J1,10*
G04 #@! TO.N,VBUS*
X148700000Y-57550000D03*
G04 #@! TO.P,J1,8*
G04 #@! TO.N,/BTN_EXTRUSION*
X148700000Y-60100000D03*
G04 #@! TO.P,J1,6*
G04 #@! TO.N,/BTN_REVERSE*
X148700000Y-62650000D03*
G04 #@! TO.P,J1,4*
G04 #@! TO.N,/NTC*
X148700000Y-65200000D03*
G04 #@! TO.P,J1,2*
G04 #@! TO.N,GND*
X148700000Y-67750000D03*
G04 #@! TD*
D11*
G04 #@! TO.P,P2,6*
G04 #@! TO.N,GND*
X122435000Y-59630000D03*
G04 #@! TO.P,P2,5*
G04 #@! TO.N,/RST*
X121165000Y-59630000D03*
G04 #@! TO.P,P2,4*
G04 #@! TO.N,VBUS*
X122435000Y-60900000D03*
G04 #@! TO.P,P2,3*
G04 #@! TO.N,Net-(D1-Pad2)*
X121165000Y-60900000D03*
G04 #@! TO.P,P2,2*
G04 #@! TO.N,/BTN_DOWN*
X122435000Y-62170000D03*
G04 #@! TO.P,P2,1*
G04 #@! TO.N,/BTN_UP*
X121165000Y-62170000D03*
G04 #@! TD*
D12*
G04 #@! TO.P,U2,4*
G04 #@! TO.N,GND*
X98200000Y-66470000D03*
G04 #@! TO.P,U2,3*
G04 #@! TO.N,VBUS*
X98200000Y-63920000D03*
G04 #@! TO.P,U2,2*
G04 #@! TO.N,/SCL*
X98200000Y-61380000D03*
G04 #@! TO.P,U2,1*
G04 #@! TO.N,/SDA*
X98200000Y-58840000D03*
G04 #@! TD*
D13*
G04 #@! TO.N,/NTC*
X124050000Y-69200000D03*
X144850000Y-70000000D03*
X130309627Y-58490373D03*
X145950000Y-65350000D03*
X127150000Y-59900000D03*
G04 #@! TO.N,GND*
X134412500Y-62362500D03*
X134412500Y-60637500D03*
X132687500Y-62362500D03*
X140850000Y-60575000D03*
X140850000Y-61425000D03*
G04 #@! TO.N,VBUS*
X142500000Y-57500000D03*
G04 #@! TO.N,GND*
X137399990Y-56999990D03*
X124256086Y-70127389D03*
X135200000Y-68750000D03*
X132732543Y-60655404D03*
X129564807Y-66089416D03*
X74800000Y-58650000D03*
X68450000Y-67200000D03*
X71300001Y-63950000D03*
X71300000Y-64750000D03*
X74558733Y-66773697D03*
X113650000Y-63000000D03*
X114950000Y-63000000D03*
X114950000Y-64300000D03*
X113650000Y-64300000D03*
X106650000Y-67800000D03*
X67050000Y-57450000D03*
X130034087Y-56950010D03*
X91300000Y-66675000D03*
X91400000Y-58700000D03*
X136550000Y-67200000D03*
X138950000Y-63250000D03*
X142850000Y-64200000D03*
X124300000Y-65850000D03*
G04 #@! TO.N,/BTN_DOWN*
X136350000Y-58900000D03*
X129217172Y-58099990D03*
X117075091Y-57719315D03*
G04 #@! TO.N,/BTN_UP*
X135949998Y-56650000D03*
X128250000Y-56700000D03*
X117950383Y-57350010D03*
G04 #@! TO.N,/BTN_REVERSE*
X146350000Y-61050000D03*
G04 #@! TO.N,/BTN_EXTRUSION*
X146300000Y-59350000D03*
G04 #@! TO.N,/MOTOR_PWM*
X139073547Y-60174989D03*
X138800000Y-58174956D03*
G04 #@! TO.N,/NTC_H_EN*
X127259049Y-69100021D03*
X139208665Y-68772908D03*
G04 #@! TO.N,VBUS*
X142650000Y-62149994D03*
X132800000Y-65000000D03*
X71900000Y-57300000D03*
X72650000Y-56549996D03*
X115050000Y-67150000D03*
X112850000Y-67150000D03*
X134350000Y-55500000D03*
X135400000Y-67500000D03*
X94400000Y-58200000D03*
X124500000Y-59450002D03*
X121850000Y-65350000D03*
G04 #@! TO.N,/NTC_L_EN*
X126290397Y-69100021D03*
X139247736Y-70499986D03*
G04 #@! TO.N,/RST*
X120006405Y-59099979D03*
G04 #@! TO.N,/ID*
X147050000Y-70400000D03*
X125009633Y-69209620D03*
X128145383Y-60154617D03*
X131049979Y-59100000D03*
G04 #@! TO.N,Net-(D2-Pad2)*
X126349968Y-64950006D03*
X128900031Y-64950000D03*
G04 #@! TO.N,Net-(D1-Pad2)*
X118575393Y-56425393D03*
G04 #@! TO.N,/D-*
X82211091Y-68211091D03*
X85088909Y-69688909D03*
G04 #@! TO.N,/D+*
X82988909Y-68988909D03*
X84311091Y-68911091D03*
G04 #@! TD*
D14*
G04 #@! TO.N,/NTC*
X144450000Y-70400000D02*
X144850000Y-70000000D01*
X140250000Y-68400000D02*
X140250000Y-69800000D01*
X139568600Y-67718600D02*
X140250000Y-68400000D01*
X138791444Y-67718600D02*
X139568600Y-67718600D01*
X138710044Y-67800000D02*
X138791444Y-67718600D01*
X138700000Y-67800000D02*
X138710044Y-67800000D01*
X128000000Y-68100000D02*
X129500000Y-69600000D01*
X140250000Y-69800000D02*
X140850000Y-70400000D01*
X140850000Y-70400000D02*
X144450000Y-70400000D01*
X136899999Y-69600001D02*
X138700000Y-67800000D01*
X129500000Y-69600000D02*
X136899999Y-69600001D01*
X124050000Y-69200000D02*
X125150000Y-68100000D01*
X125150000Y-68100000D02*
X128000000Y-68100000D01*
X146100000Y-65200000D02*
X145950000Y-65350000D01*
X148700000Y-65200000D02*
X146100000Y-65200000D01*
X127549999Y-59500001D02*
X127150000Y-59900000D01*
X130309627Y-58490373D02*
X129898416Y-58901584D01*
X128148416Y-58901584D02*
X127549999Y-59500001D01*
X129898416Y-58901584D02*
X128148416Y-58901584D01*
G04 #@! TO.N,/BTN_DOWN*
X135149991Y-57699991D02*
X129617171Y-57699991D01*
X136350000Y-58900000D02*
X135149991Y-57699991D01*
X129617171Y-57699991D02*
X129217172Y-58099990D01*
X122828699Y-62563699D02*
X122828699Y-63609287D01*
X122828699Y-63609287D02*
X122087986Y-64350000D01*
X117075091Y-60025091D02*
X117075091Y-58285000D01*
X122087986Y-64350000D02*
X121400000Y-64350000D01*
X122435000Y-62170000D02*
X122828699Y-62563699D01*
X121400000Y-64350000D02*
X117075091Y-60025091D01*
X117075091Y-58285000D02*
X117075091Y-57719315D01*
G04 #@! TO.N,/BTN_UP*
X128699999Y-56250001D02*
X128250000Y-56700000D01*
X132950001Y-56250001D02*
X128699999Y-56250001D01*
X133500000Y-56800000D02*
X132950001Y-56250001D01*
X135949998Y-56650000D02*
X135799998Y-56800000D01*
X135799998Y-56800000D02*
X133500000Y-56800000D01*
X121165000Y-62170000D02*
X117950383Y-58955383D01*
X117950383Y-58955383D02*
X117950383Y-57915695D01*
X117950383Y-57915695D02*
X117950383Y-57350010D01*
G04 #@! TO.N,/BTN_REVERSE*
X147950000Y-62650000D02*
X148700000Y-62650000D01*
X146350000Y-61050000D02*
X147950000Y-62650000D01*
G04 #@! TO.N,/BTN_EXTRUSION*
X147050000Y-60100000D02*
X148700000Y-60100000D01*
X146300000Y-59350000D02*
X147050000Y-60100000D01*
G04 #@! TO.N,/MOTOR_PWM*
X139073547Y-58448503D02*
X138800000Y-58174956D01*
X139073547Y-60174989D02*
X139073547Y-58448503D01*
G04 #@! TO.N,/NTC_H_EN*
X137581562Y-70400011D02*
X139208665Y-68772908D01*
X128559039Y-70400011D02*
X137581562Y-70400011D01*
X127259049Y-69100021D02*
X128559039Y-70400011D01*
D15*
G04 #@! TO.N,VBUS*
X148700000Y-57550000D02*
X144935998Y-57550000D01*
D16*
X144935998Y-59863996D02*
X142650000Y-62149994D01*
X144935998Y-57550000D02*
X144935998Y-59863996D01*
D14*
X134049999Y-55150001D02*
X134050000Y-55150000D01*
X132850000Y-65000000D02*
X132800000Y-65000000D01*
D15*
X142286008Y-54900010D02*
X144935998Y-57550000D01*
D17*
X115050000Y-67150000D02*
X112850000Y-67150000D01*
D15*
X74300000Y-54900000D02*
X71900000Y-57300000D01*
X87650000Y-54900009D02*
X87649991Y-54900000D01*
X87649991Y-54900000D02*
X74300000Y-54900000D01*
D17*
X134315695Y-54900010D02*
X134250000Y-54900010D01*
X134350000Y-54934315D02*
X134315695Y-54900010D01*
X134350000Y-55500000D02*
X134350000Y-54934315D01*
D15*
X134250000Y-54900010D02*
X142286008Y-54900010D01*
D17*
X135300000Y-67500000D02*
X135400000Y-67500000D01*
X132800000Y-65000000D02*
X135300000Y-67500000D01*
X94400000Y-58200000D02*
X94400000Y-54900009D01*
D15*
X94400000Y-54900009D02*
X87650000Y-54900009D01*
X144885998Y-57500000D02*
X144935998Y-57550000D01*
X142500000Y-57500000D02*
X144885998Y-57500000D01*
D18*
X124500000Y-54950000D02*
X124500000Y-59450002D01*
X124450000Y-54900000D02*
X124500000Y-54950000D01*
X123800009Y-54900009D02*
X123800018Y-54900000D01*
X123800018Y-54900000D02*
X124450000Y-54900000D01*
X125849999Y-54900009D02*
X125850000Y-54900010D01*
X122300000Y-54900009D02*
X125849999Y-54900009D01*
D15*
X123899990Y-54900010D02*
X125850000Y-54900010D01*
X123800009Y-54900009D02*
X122300000Y-54900009D01*
X126649999Y-54900009D02*
X126650000Y-54900010D01*
X121400000Y-54900009D02*
X126649999Y-54900009D01*
X126650000Y-54900010D02*
X134250000Y-54900010D01*
X125850000Y-54900010D02*
X126650000Y-54900010D01*
X122300000Y-54900009D02*
X121400000Y-54900009D01*
X121400000Y-54900009D02*
X94400000Y-54900009D01*
D17*
X124450000Y-55000000D02*
X124350000Y-54900000D01*
X124450000Y-60100000D02*
X124450000Y-55000000D01*
X122435000Y-60900000D02*
X123650000Y-60900000D01*
X123650000Y-60900000D02*
X124450000Y-60100000D01*
X122249999Y-64950001D02*
X121850000Y-65350000D01*
X123450000Y-63750000D02*
X122249999Y-64950001D01*
X122435000Y-60900000D02*
X123450000Y-60900000D01*
X123450000Y-60900000D02*
X123450000Y-63750000D01*
D14*
G04 #@! TO.N,/NTC_L_EN*
X126290397Y-69100021D02*
X127990375Y-70799999D01*
X127990375Y-70799999D02*
X138382038Y-70799999D01*
X138682051Y-70499986D02*
X139247736Y-70499986D01*
X138382038Y-70799999D02*
X138682051Y-70499986D01*
G04 #@! TO.N,/RST*
X120536426Y-59630000D02*
X120006405Y-59099979D01*
X121165000Y-59630000D02*
X120536426Y-59630000D01*
G04 #@! TO.N,/ID*
X139899989Y-69944979D02*
X139899989Y-68544979D01*
X139899989Y-68544979D02*
X139423621Y-68068611D01*
X139423621Y-68068611D02*
X138936423Y-68068611D01*
X137055021Y-69950011D02*
X129300011Y-69950011D01*
X138936423Y-68068611D02*
X137055021Y-69950011D01*
X147050000Y-70400000D02*
X146650001Y-70799999D01*
X127800011Y-68450011D02*
X125769242Y-68450011D01*
X140755009Y-70799999D02*
X139899989Y-69944979D01*
X125769242Y-68450011D02*
X125009633Y-69209620D01*
X129300011Y-69950011D02*
X127800011Y-68450011D01*
X146650001Y-70799999D02*
X140755009Y-70799999D01*
X131049979Y-59100000D02*
X130849979Y-59300000D01*
X128145383Y-59904617D02*
X128145383Y-60154617D01*
X128750000Y-59300000D02*
X128145383Y-59904617D01*
X130849979Y-59300000D02*
X128750000Y-59300000D01*
G04 #@! TO.N,Net-(D2-Pad2)*
X128900025Y-64950006D02*
X128900031Y-64950000D01*
X126349968Y-64950006D02*
X128900025Y-64950006D01*
G04 #@! TO.N,Net-(D1-Pad2)*
X118600393Y-57016078D02*
X118575393Y-56991078D01*
X120608225Y-60900000D02*
X118600393Y-58892168D01*
X121165000Y-60900000D02*
X120608225Y-60900000D01*
X118600393Y-58892168D02*
X118600393Y-57016078D01*
X118575393Y-56991078D02*
X118575393Y-56425393D01*
G04 #@! TO.N,/D-*
X82211091Y-68211091D02*
X82211091Y-68635355D01*
X82211091Y-68635355D02*
X81950000Y-68896446D01*
X81950000Y-68896446D02*
X81950000Y-69503554D01*
X81950000Y-69503554D02*
X82696446Y-70250000D01*
X82696446Y-70250000D02*
X84103554Y-70250000D01*
X84103554Y-70250000D02*
X84664645Y-69688909D01*
X84664645Y-69688909D02*
X85088909Y-69688909D01*
G04 #@! TO.N,/D+*
X82564645Y-68988909D02*
X82450000Y-69103554D01*
X82988909Y-68988909D02*
X82564645Y-68988909D01*
X82450000Y-69103554D02*
X82450000Y-69296446D01*
X82450000Y-69296446D02*
X82903554Y-69750000D01*
X84311091Y-69335355D02*
X84311091Y-68911091D01*
X83896446Y-69750000D02*
X84311091Y-69335355D01*
X82903554Y-69750000D02*
X83896446Y-69750000D01*
G04 #@! TD*
G04 #@! TO.N,GND*
G36*
X71278603Y-56790027D02*
X71146418Y-56987856D01*
X71084329Y-57300000D01*
X71146418Y-57612144D01*
X71323233Y-57876767D01*
X71587856Y-58053582D01*
X71900000Y-58115671D01*
X72212144Y-58053582D01*
X72409973Y-57921397D01*
X74631370Y-55700000D01*
X87571166Y-55700000D01*
X87571211Y-55700009D01*
X87571216Y-55700009D01*
X87650000Y-55715680D01*
X87728784Y-55700009D01*
X93950001Y-55700009D01*
X93950000Y-57660050D01*
X93806568Y-57803482D01*
X93700000Y-58060761D01*
X93700000Y-58339239D01*
X93806568Y-58596518D01*
X94003482Y-58793432D01*
X94260761Y-58900000D01*
X94539239Y-58900000D01*
X94796518Y-58793432D01*
X94978699Y-58611251D01*
X97050000Y-58611251D01*
X97050000Y-59068749D01*
X97225077Y-59491423D01*
X97548577Y-59814923D01*
X97971251Y-59990000D01*
X98428749Y-59990000D01*
X98851423Y-59814923D01*
X99174923Y-59491423D01*
X99350000Y-59068749D01*
X99350000Y-58611251D01*
X99174923Y-58188577D01*
X98851423Y-57865077D01*
X98428749Y-57690000D01*
X97971251Y-57690000D01*
X97548577Y-57865077D01*
X97225077Y-58188577D01*
X97050000Y-58611251D01*
X94978699Y-58611251D01*
X94993432Y-58596518D01*
X95100000Y-58339239D01*
X95100000Y-58060761D01*
X94993432Y-57803482D01*
X94850000Y-57660050D01*
X94850000Y-55700009D01*
X123800000Y-55700009D01*
X123800001Y-59310761D01*
X123800000Y-59310763D01*
X123800000Y-59589241D01*
X123826904Y-59654194D01*
X123840616Y-59723128D01*
X123879663Y-59781566D01*
X123906568Y-59846520D01*
X123956282Y-59896234D01*
X123980751Y-59932854D01*
X123468701Y-60444904D01*
X123450000Y-60441184D01*
X123405679Y-60450000D01*
X122966039Y-60450000D01*
X122827949Y-60311910D01*
X122798453Y-60299692D01*
X122819105Y-60226237D01*
X122435000Y-59842132D01*
X122050895Y-60226237D01*
X122071547Y-60299692D01*
X122042051Y-60311910D01*
X121846910Y-60507051D01*
X121800000Y-60620301D01*
X121753090Y-60507051D01*
X121557949Y-60311910D01*
X121444699Y-60265000D01*
X121557949Y-60218090D01*
X121753090Y-60022949D01*
X121765308Y-59993453D01*
X121838763Y-60014105D01*
X122222868Y-59630000D01*
X121838763Y-59245895D01*
X121765308Y-59266547D01*
X121753090Y-59237051D01*
X121557949Y-59041910D01*
X121323801Y-58944923D01*
X121458223Y-58810501D01*
X121579300Y-58518195D01*
X121579300Y-58201805D01*
X122020700Y-58201805D01*
X122020700Y-58518195D01*
X122141777Y-58810501D01*
X122194546Y-58863270D01*
X122162446Y-58868029D01*
X122088930Y-58898480D01*
X122050895Y-59033763D01*
X122435000Y-59417868D01*
X122449143Y-59403726D01*
X122661275Y-59615858D01*
X122647132Y-59630000D01*
X123031237Y-60014105D01*
X123166520Y-59976070D01*
X123243272Y-59669787D01*
X123196971Y-59357446D01*
X123166520Y-59283930D01*
X123031239Y-59245896D01*
X123111908Y-59165227D01*
X123064553Y-59117872D01*
X123266501Y-59034223D01*
X123490223Y-58810501D01*
X123611300Y-58518195D01*
X123611300Y-58201805D01*
X123490223Y-57909499D01*
X123266501Y-57685777D01*
X122974195Y-57564700D01*
X122657805Y-57564700D01*
X122365499Y-57685777D01*
X122141777Y-57909499D01*
X122020700Y-58201805D01*
X121579300Y-58201805D01*
X121458223Y-57909499D01*
X121234501Y-57685777D01*
X120942195Y-57564700D01*
X120625805Y-57564700D01*
X120333499Y-57685777D01*
X120109777Y-57909499D01*
X119988700Y-58201805D01*
X119988700Y-58399979D01*
X119867166Y-58399979D01*
X119609887Y-58506547D01*
X119412973Y-58703461D01*
X119306405Y-58960740D01*
X119306405Y-59032496D01*
X119000393Y-58726484D01*
X119000393Y-57055470D01*
X119008229Y-57016077D01*
X119002659Y-56988077D01*
X119168825Y-56821911D01*
X119275393Y-56564632D01*
X119275393Y-56286154D01*
X119168825Y-56028875D01*
X118971911Y-55831961D01*
X118714632Y-55725393D01*
X118436154Y-55725393D01*
X118178875Y-55831961D01*
X117981961Y-56028875D01*
X117875393Y-56286154D01*
X117875393Y-56564632D01*
X117910758Y-56650010D01*
X117811144Y-56650010D01*
X117553865Y-56756578D01*
X117356951Y-56953492D01*
X117312793Y-57060100D01*
X117214330Y-57019315D01*
X116935852Y-57019315D01*
X116678573Y-57125883D01*
X116481659Y-57322797D01*
X116375091Y-57580076D01*
X116375091Y-57858554D01*
X116481659Y-58115833D01*
X116675091Y-58309265D01*
X116675091Y-58324393D01*
X116675092Y-58324398D01*
X116675091Y-59985697D01*
X116667255Y-60025091D01*
X116675091Y-60064484D01*
X116698300Y-60181162D01*
X116786707Y-60313475D01*
X116820110Y-60335794D01*
X121089299Y-64604984D01*
X121111616Y-64638384D01*
X121195170Y-64694212D01*
X121243928Y-64726791D01*
X121400000Y-64757836D01*
X121439394Y-64750000D01*
X121469339Y-64750000D01*
X121453482Y-64756568D01*
X121256568Y-64953482D01*
X121150000Y-65210761D01*
X121150000Y-65489239D01*
X121256568Y-65746518D01*
X121453482Y-65943432D01*
X121710761Y-66050000D01*
X121989239Y-66050000D01*
X122246518Y-65943432D01*
X122443432Y-65746518D01*
X122550000Y-65489239D01*
X122550000Y-65286396D01*
X122599536Y-65236860D01*
X122599538Y-65236857D01*
X123025628Y-64810767D01*
X125649968Y-64810767D01*
X125649968Y-65089245D01*
X125756536Y-65346524D01*
X125953450Y-65543438D01*
X126210729Y-65650006D01*
X126489207Y-65650006D01*
X126746486Y-65543438D01*
X126939918Y-65350006D01*
X128310087Y-65350006D01*
X128503513Y-65543432D01*
X128760792Y-65650000D01*
X129039270Y-65650000D01*
X129296549Y-65543432D01*
X129493463Y-65346518D01*
X129600031Y-65089239D01*
X129600031Y-64860761D01*
X132100000Y-64860761D01*
X132100000Y-65139239D01*
X132206568Y-65396518D01*
X132403482Y-65593432D01*
X132660761Y-65700000D01*
X132863605Y-65700000D01*
X134700000Y-67536396D01*
X134700000Y-67639239D01*
X134806568Y-67896518D01*
X135003482Y-68093432D01*
X135260761Y-68200000D01*
X135539239Y-68200000D01*
X135796518Y-68093432D01*
X135993432Y-67896518D01*
X136100000Y-67639239D01*
X136100000Y-67360761D01*
X135993432Y-67103482D01*
X135810385Y-66920435D01*
X146650000Y-66920435D01*
X146650000Y-67500000D01*
X146750000Y-67600000D01*
X148550000Y-67600000D01*
X148550000Y-66700000D01*
X148450000Y-66600000D01*
X146970435Y-66600000D01*
X146823418Y-66660896D01*
X146710896Y-66773418D01*
X146650000Y-66920435D01*
X135810385Y-66920435D01*
X135796518Y-66906568D01*
X135539239Y-66800000D01*
X135260761Y-66800000D01*
X135243532Y-66807136D01*
X133500000Y-65063605D01*
X133500000Y-64860761D01*
X133393432Y-64603482D01*
X133196518Y-64406568D01*
X132939239Y-64300000D01*
X132660761Y-64300000D01*
X132403482Y-64406568D01*
X132206568Y-64603482D01*
X132100000Y-64860761D01*
X129600031Y-64860761D01*
X129600031Y-64810761D01*
X129493463Y-64553482D01*
X129296549Y-64356568D01*
X129039270Y-64250000D01*
X128760792Y-64250000D01*
X128503513Y-64356568D01*
X128310075Y-64550006D01*
X126939918Y-64550006D01*
X126746486Y-64356574D01*
X126489207Y-64250006D01*
X126210729Y-64250006D01*
X125953450Y-64356574D01*
X125756536Y-64553488D01*
X125649968Y-64810767D01*
X123025628Y-64810767D01*
X123736857Y-64099538D01*
X123774432Y-64074432D01*
X123873891Y-63925581D01*
X123900000Y-63794321D01*
X123900000Y-63794320D01*
X123908816Y-63750000D01*
X123900000Y-63705680D01*
X123900000Y-61274166D01*
X123974432Y-61224432D01*
X123999540Y-61186855D01*
X124736858Y-60449538D01*
X124774432Y-60424432D01*
X124873891Y-60275581D01*
X124900000Y-60144321D01*
X124900000Y-60144320D01*
X124908816Y-60100000D01*
X124900000Y-60055680D01*
X124900000Y-60039952D01*
X124946229Y-59993723D01*
X125004671Y-59954673D01*
X125043721Y-59896231D01*
X125093432Y-59846520D01*
X125120335Y-59781570D01*
X125134239Y-59760761D01*
X126450000Y-59760761D01*
X126450000Y-60039239D01*
X126556568Y-60296518D01*
X126753482Y-60493432D01*
X127010761Y-60600000D01*
X127289239Y-60600000D01*
X127530754Y-60499961D01*
X127551951Y-60551135D01*
X127748865Y-60748049D01*
X128006144Y-60854617D01*
X128284622Y-60854617D01*
X128541901Y-60748049D01*
X128738815Y-60551135D01*
X128845383Y-60293856D01*
X128845383Y-60015378D01*
X128773602Y-59842083D01*
X128915685Y-59700000D01*
X130669318Y-59700000D01*
X130910740Y-59800000D01*
X131189218Y-59800000D01*
X131446497Y-59693432D01*
X131643411Y-59496518D01*
X131749979Y-59239239D01*
X131749979Y-58960761D01*
X131643411Y-58703482D01*
X131446497Y-58506568D01*
X131189218Y-58400000D01*
X131009627Y-58400000D01*
X131009627Y-58351134D01*
X130905601Y-58099991D01*
X134984307Y-58099991D01*
X135650000Y-58765685D01*
X135650000Y-59039239D01*
X135756568Y-59296518D01*
X135953482Y-59493432D01*
X136210761Y-59600000D01*
X136489239Y-59600000D01*
X136746518Y-59493432D01*
X136943432Y-59296518D01*
X137050000Y-59039239D01*
X137050000Y-58760761D01*
X136943432Y-58503482D01*
X136746518Y-58306568D01*
X136489239Y-58200000D01*
X136215685Y-58200000D01*
X136051402Y-58035717D01*
X138100000Y-58035717D01*
X138100000Y-58314195D01*
X138206568Y-58571474D01*
X138403482Y-58768388D01*
X138660761Y-58874956D01*
X138673548Y-58874956D01*
X138673547Y-59585039D01*
X138480115Y-59778471D01*
X138373547Y-60035750D01*
X138373547Y-60314228D01*
X138480115Y-60571507D01*
X138677029Y-60768421D01*
X138934308Y-60874989D01*
X139212786Y-60874989D01*
X139470065Y-60768421D01*
X139666979Y-60571507D01*
X139773547Y-60314228D01*
X139773547Y-60035750D01*
X139666979Y-59778471D01*
X139473547Y-59585039D01*
X139473547Y-58487897D01*
X139481383Y-58448503D01*
X139469374Y-58388132D01*
X139500000Y-58314195D01*
X139500000Y-58035717D01*
X139393432Y-57778438D01*
X139196518Y-57581524D01*
X138939239Y-57474956D01*
X138660761Y-57474956D01*
X138403482Y-57581524D01*
X138206568Y-57778438D01*
X138100000Y-58035717D01*
X136051402Y-58035717D01*
X135460694Y-57445010D01*
X135438375Y-57411607D01*
X135306063Y-57323200D01*
X135189385Y-57299991D01*
X135149991Y-57292155D01*
X135110597Y-57299991D01*
X129656564Y-57299991D01*
X129617170Y-57292155D01*
X129463125Y-57322797D01*
X129461099Y-57323200D01*
X129346173Y-57399990D01*
X129077933Y-57399990D01*
X128820654Y-57506558D01*
X128623740Y-57703472D01*
X128517172Y-57960751D01*
X128517172Y-58239229D01*
X128623740Y-58496508D01*
X128628816Y-58501584D01*
X128187808Y-58501584D01*
X128148415Y-58493748D01*
X128109022Y-58501584D01*
X127992344Y-58524793D01*
X127860032Y-58613200D01*
X127837717Y-58646597D01*
X127295015Y-59189301D01*
X127295012Y-59189303D01*
X127284315Y-59200000D01*
X127010761Y-59200000D01*
X126753482Y-59306568D01*
X126556568Y-59503482D01*
X126450000Y-59760761D01*
X125134239Y-59760761D01*
X125159385Y-59723128D01*
X125173098Y-59654189D01*
X125200000Y-59589241D01*
X125200000Y-56560761D01*
X127550000Y-56560761D01*
X127550000Y-56839239D01*
X127656568Y-57096518D01*
X127853482Y-57293432D01*
X128110761Y-57400000D01*
X128389239Y-57400000D01*
X128646518Y-57293432D01*
X128843432Y-57096518D01*
X128950000Y-56839239D01*
X128950000Y-56650001D01*
X132784317Y-56650001D01*
X133189299Y-57054984D01*
X133211616Y-57088384D01*
X133299567Y-57147150D01*
X133343928Y-57176791D01*
X133499999Y-57207836D01*
X133539393Y-57200000D01*
X135510048Y-57200000D01*
X135553480Y-57243432D01*
X135810759Y-57350000D01*
X136089237Y-57350000D01*
X136346516Y-57243432D01*
X136543430Y-57046518D01*
X136649998Y-56789239D01*
X136649998Y-56510761D01*
X136543430Y-56253482D01*
X136346516Y-56056568D01*
X136089237Y-55950000D01*
X135810759Y-55950000D01*
X135553480Y-56056568D01*
X135356566Y-56253482D01*
X135295877Y-56400000D01*
X133665685Y-56400000D01*
X133260704Y-55995019D01*
X133238385Y-55961617D01*
X133106073Y-55873210D01*
X132989395Y-55850001D01*
X132950001Y-55842165D01*
X132910607Y-55850001D01*
X128739393Y-55850001D01*
X128699999Y-55842165D01*
X128660605Y-55850001D01*
X128543927Y-55873210D01*
X128411615Y-55961617D01*
X128389298Y-55995017D01*
X128384315Y-56000000D01*
X128110761Y-56000000D01*
X127853482Y-56106568D01*
X127656568Y-56303482D01*
X127550000Y-56560761D01*
X125200000Y-56560761D01*
X125200000Y-55700010D01*
X126571215Y-55700010D01*
X126649999Y-55715681D01*
X126728783Y-55700010D01*
X133675172Y-55700010D01*
X133756568Y-55896518D01*
X133953482Y-56093432D01*
X134210761Y-56200000D01*
X134489239Y-56200000D01*
X134746518Y-56093432D01*
X134943432Y-55896518D01*
X135024828Y-55700010D01*
X141954638Y-55700010D01*
X142954628Y-56700000D01*
X142421211Y-56700000D01*
X142187856Y-56746417D01*
X141923233Y-56923233D01*
X141746417Y-57187856D01*
X141684328Y-57500000D01*
X141746417Y-57812144D01*
X141923233Y-58076767D01*
X142187856Y-58253583D01*
X142421211Y-58300000D01*
X144435998Y-58300000D01*
X144435999Y-59656888D01*
X142642894Y-61449994D01*
X142510761Y-61449994D01*
X142253482Y-61556562D01*
X142056568Y-61753476D01*
X141950000Y-62010755D01*
X141950000Y-62289233D01*
X142056568Y-62546512D01*
X142253482Y-62743426D01*
X142510761Y-62849994D01*
X142789239Y-62849994D01*
X143046518Y-62743426D01*
X143243432Y-62546512D01*
X143350000Y-62289233D01*
X143350000Y-62157100D01*
X145254730Y-60252371D01*
X145296478Y-60224476D01*
X145406987Y-60059086D01*
X145435998Y-59913239D01*
X145435998Y-59913238D01*
X145445793Y-59863997D01*
X145435998Y-59814756D01*
X145435998Y-58350000D01*
X146754069Y-58350000D01*
X146767407Y-58417054D01*
X146833712Y-58516288D01*
X146932946Y-58582593D01*
X147050000Y-58605877D01*
X150250001Y-58605877D01*
X150250001Y-59044123D01*
X147050000Y-59044123D01*
X146940037Y-59065997D01*
X146893432Y-58953482D01*
X146696518Y-58756568D01*
X146439239Y-58650000D01*
X146160761Y-58650000D01*
X145903482Y-58756568D01*
X145706568Y-58953482D01*
X145600000Y-59210761D01*
X145600000Y-59489239D01*
X145706568Y-59746518D01*
X145903482Y-59943432D01*
X146160761Y-60050000D01*
X146434315Y-60050000D01*
X146739301Y-60354987D01*
X146744123Y-60362204D01*
X146744123Y-60455576D01*
X146489239Y-60350000D01*
X146210761Y-60350000D01*
X145953482Y-60456568D01*
X145756568Y-60653482D01*
X145650000Y-60910761D01*
X145650000Y-61189239D01*
X145756568Y-61446518D01*
X145953482Y-61643432D01*
X146210761Y-61750000D01*
X146484316Y-61750000D01*
X146744123Y-62009807D01*
X146744123Y-63400000D01*
X146767407Y-63517054D01*
X146833712Y-63616288D01*
X146932946Y-63682593D01*
X147050000Y-63705877D01*
X150250000Y-63705877D01*
X150250000Y-64144123D01*
X147050000Y-64144123D01*
X146932946Y-64167407D01*
X146833712Y-64233712D01*
X146767407Y-64332946D01*
X146744123Y-64450000D01*
X146744123Y-64800000D01*
X146389950Y-64800000D01*
X146346518Y-64756568D01*
X146089239Y-64650000D01*
X145810761Y-64650000D01*
X145553482Y-64756568D01*
X145356568Y-64953482D01*
X145250000Y-65210761D01*
X145250000Y-65489239D01*
X145356568Y-65746518D01*
X145553482Y-65943432D01*
X145810761Y-66050000D01*
X146089239Y-66050000D01*
X146346518Y-65943432D01*
X146543432Y-65746518D01*
X146604121Y-65600000D01*
X146744123Y-65600000D01*
X146744123Y-65950000D01*
X146767407Y-66067054D01*
X146833712Y-66166288D01*
X146932946Y-66232593D01*
X147050000Y-66255877D01*
X150250000Y-66255877D01*
X150250000Y-66600000D01*
X148950000Y-66600000D01*
X148850000Y-66700000D01*
X148850000Y-67600000D01*
X148870000Y-67600000D01*
X148870000Y-67900000D01*
X148850000Y-67900000D01*
X148850000Y-68800000D01*
X148950000Y-68900000D01*
X150250000Y-68900000D01*
X150250000Y-70750000D01*
X147662700Y-70750000D01*
X147750000Y-70539239D01*
X147750000Y-70260761D01*
X147643432Y-70003482D01*
X147446518Y-69806568D01*
X147189239Y-69700000D01*
X146910761Y-69700000D01*
X146653482Y-69806568D01*
X146456568Y-70003482D01*
X146350000Y-70260761D01*
X146350000Y-70399999D01*
X145439951Y-70399999D01*
X145443432Y-70396518D01*
X145550000Y-70139239D01*
X145550000Y-69860761D01*
X145443432Y-69603482D01*
X145246518Y-69406568D01*
X144989239Y-69300000D01*
X144710761Y-69300000D01*
X144453482Y-69406568D01*
X144256568Y-69603482D01*
X144150000Y-69860761D01*
X144150000Y-70000000D01*
X141015686Y-70000000D01*
X140650000Y-69634316D01*
X140650000Y-68439392D01*
X140657836Y-68399999D01*
X140642849Y-68324657D01*
X140626791Y-68243928D01*
X140538384Y-68111616D01*
X140504987Y-68089302D01*
X140415685Y-68000000D01*
X146650000Y-68000000D01*
X146650000Y-68579565D01*
X146710896Y-68726582D01*
X146823418Y-68839104D01*
X146970435Y-68900000D01*
X148450000Y-68900000D01*
X148550000Y-68800000D01*
X148550000Y-67900000D01*
X146750000Y-67900000D01*
X146650000Y-68000000D01*
X140415685Y-68000000D01*
X139879302Y-67463618D01*
X139856984Y-67430216D01*
X139724672Y-67341809D01*
X139607994Y-67318600D01*
X139568600Y-67310764D01*
X139529206Y-67318600D01*
X138830838Y-67318600D01*
X138791444Y-67310764D01*
X138752050Y-67318600D01*
X138635372Y-67341809D01*
X138503060Y-67430216D01*
X138480741Y-67463619D01*
X138475287Y-67469073D01*
X138411616Y-67511616D01*
X138389299Y-67545016D01*
X136734314Y-69200002D01*
X129665686Y-69200000D01*
X128310703Y-67845018D01*
X128288384Y-67811616D01*
X128156072Y-67723209D01*
X128039394Y-67700000D01*
X128000000Y-67692164D01*
X127960606Y-67700000D01*
X125189394Y-67700000D01*
X125150000Y-67692164D01*
X125110606Y-67700000D01*
X124993928Y-67723209D01*
X124861616Y-67811616D01*
X124839299Y-67845016D01*
X124184316Y-68500000D01*
X123910761Y-68500000D01*
X123653482Y-68606568D01*
X123456568Y-68803482D01*
X123350000Y-69060761D01*
X123350000Y-69339239D01*
X123456568Y-69596518D01*
X123653482Y-69793432D01*
X123910761Y-69900000D01*
X124189239Y-69900000D01*
X124446518Y-69793432D01*
X124525007Y-69714944D01*
X124613115Y-69803052D01*
X124870394Y-69909620D01*
X125148872Y-69909620D01*
X125406151Y-69803052D01*
X125603065Y-69606138D01*
X125672714Y-69437991D01*
X125696965Y-69496539D01*
X125893879Y-69693453D01*
X126151158Y-69800021D01*
X126424713Y-69800021D01*
X127374691Y-70750000D01*
X66050000Y-70750000D01*
X66050000Y-68071852D01*
X81511091Y-68071852D01*
X81511091Y-68350330D01*
X81617659Y-68607609D01*
X81644191Y-68634141D01*
X81584665Y-68723230D01*
X81573209Y-68740375D01*
X81542164Y-68896446D01*
X81550000Y-68935840D01*
X81550001Y-69464156D01*
X81542164Y-69503554D01*
X81573209Y-69659625D01*
X81573210Y-69659626D01*
X81661617Y-69791938D01*
X81695016Y-69814255D01*
X82385745Y-70504984D01*
X82408062Y-70538384D01*
X82540374Y-70626791D01*
X82696445Y-70657836D01*
X82735839Y-70650000D01*
X84064160Y-70650000D01*
X84103554Y-70657836D01*
X84142948Y-70650000D01*
X84259626Y-70626791D01*
X84391938Y-70538384D01*
X84414257Y-70504982D01*
X84664644Y-70254594D01*
X84692391Y-70282341D01*
X84949670Y-70388909D01*
X85228148Y-70388909D01*
X85485427Y-70282341D01*
X85682341Y-70085427D01*
X85788909Y-69828148D01*
X85788909Y-69549670D01*
X85682341Y-69292391D01*
X85485427Y-69095477D01*
X85228148Y-68988909D01*
X85011091Y-68988909D01*
X85011091Y-68771852D01*
X84904523Y-68514573D01*
X84707609Y-68317659D01*
X84450330Y-68211091D01*
X84171852Y-68211091D01*
X83914573Y-68317659D01*
X83717659Y-68514573D01*
X83633883Y-68716826D01*
X83582341Y-68592391D01*
X83385427Y-68395477D01*
X83128148Y-68288909D01*
X82911091Y-68288909D01*
X82911091Y-68071852D01*
X82804523Y-67814573D01*
X82607609Y-67617659D01*
X82350330Y-67511091D01*
X82071852Y-67511091D01*
X81814573Y-67617659D01*
X81617659Y-67814573D01*
X81511091Y-68071852D01*
X66050000Y-68071852D01*
X66050000Y-67399754D01*
X97482378Y-67399754D01*
X97577433Y-67582085D01*
X98050400Y-67735679D01*
X98546142Y-67696583D01*
X98822567Y-67582085D01*
X98917622Y-67399754D01*
X98200000Y-66682132D01*
X97482378Y-67399754D01*
X66050000Y-67399754D01*
X66050000Y-66320400D01*
X96934321Y-66320400D01*
X96973417Y-66816142D01*
X97087915Y-67092567D01*
X97270246Y-67187622D01*
X97987868Y-66470000D01*
X98412132Y-66470000D01*
X99129754Y-67187622D01*
X99312085Y-67092567D01*
X99338651Y-67010761D01*
X112150000Y-67010761D01*
X112150000Y-67289239D01*
X112256568Y-67546518D01*
X112453482Y-67743432D01*
X112710761Y-67850000D01*
X112989239Y-67850000D01*
X113246518Y-67743432D01*
X113389950Y-67600000D01*
X114510050Y-67600000D01*
X114653482Y-67743432D01*
X114910761Y-67850000D01*
X115189239Y-67850000D01*
X115446518Y-67743432D01*
X115643432Y-67546518D01*
X115750000Y-67289239D01*
X115750000Y-67010761D01*
X115643432Y-66753482D01*
X115446518Y-66556568D01*
X115189239Y-66450000D01*
X114910761Y-66450000D01*
X114653482Y-66556568D01*
X114510050Y-66700000D01*
X113389950Y-66700000D01*
X113246518Y-66556568D01*
X112989239Y-66450000D01*
X112710761Y-66450000D01*
X112453482Y-66556568D01*
X112256568Y-66753482D01*
X112150000Y-67010761D01*
X99338651Y-67010761D01*
X99465679Y-66619600D01*
X99426583Y-66123858D01*
X99312085Y-65847433D01*
X99129754Y-65752378D01*
X98412132Y-66470000D01*
X97987868Y-66470000D01*
X97270246Y-65752378D01*
X97087915Y-65847433D01*
X96934321Y-66320400D01*
X66050000Y-66320400D01*
X66050000Y-65540246D01*
X97482378Y-65540246D01*
X98200000Y-66257868D01*
X98917622Y-65540246D01*
X98822567Y-65357915D01*
X98349600Y-65204321D01*
X97853858Y-65243417D01*
X97577433Y-65357915D01*
X97482378Y-65540246D01*
X66050000Y-65540246D01*
X66050000Y-64405788D01*
X68550000Y-64405788D01*
X68550000Y-64694212D01*
X68660374Y-64960680D01*
X68864320Y-65164626D01*
X69130788Y-65275000D01*
X69419212Y-65275000D01*
X69685680Y-65164626D01*
X69889626Y-64960680D01*
X70000000Y-64694212D01*
X70000000Y-64405788D01*
X69889626Y-64139320D01*
X69685680Y-63935374D01*
X69419212Y-63825000D01*
X69130788Y-63825000D01*
X68864320Y-63935374D01*
X68660374Y-64139320D01*
X68550000Y-64405788D01*
X66050000Y-64405788D01*
X66050000Y-63691251D01*
X97050000Y-63691251D01*
X97050000Y-64148749D01*
X97225077Y-64571423D01*
X97548577Y-64894923D01*
X97971251Y-65070000D01*
X98428749Y-65070000D01*
X98851423Y-64894923D01*
X99174923Y-64571423D01*
X99350000Y-64148749D01*
X99350000Y-63691251D01*
X99174923Y-63268577D01*
X98851423Y-62945077D01*
X98428749Y-62770000D01*
X97971251Y-62770000D01*
X97548577Y-62945077D01*
X97225077Y-63268577D01*
X97050000Y-63691251D01*
X66050000Y-63691251D01*
X66050000Y-60605788D01*
X68550000Y-60605788D01*
X68550000Y-60894212D01*
X68660374Y-61160680D01*
X68864320Y-61364626D01*
X69130788Y-61475000D01*
X69419212Y-61475000D01*
X69685680Y-61364626D01*
X69889626Y-61160680D01*
X69893531Y-61151251D01*
X97050000Y-61151251D01*
X97050000Y-61608749D01*
X97225077Y-62031423D01*
X97548577Y-62354923D01*
X97971251Y-62530000D01*
X98428749Y-62530000D01*
X98851423Y-62354923D01*
X99174923Y-62031423D01*
X99350000Y-61608749D01*
X99350000Y-61151251D01*
X99174923Y-60728577D01*
X98851423Y-60405077D01*
X98428749Y-60230000D01*
X97971251Y-60230000D01*
X97548577Y-60405077D01*
X97225077Y-60728577D01*
X97050000Y-61151251D01*
X69893531Y-61151251D01*
X70000000Y-60894212D01*
X70000000Y-60605788D01*
X69889626Y-60339320D01*
X69685680Y-60135374D01*
X69419212Y-60025000D01*
X69130788Y-60025000D01*
X68864320Y-60135374D01*
X68660374Y-60339320D01*
X68550000Y-60605788D01*
X66050000Y-60605788D01*
X66050000Y-54550000D01*
X73518630Y-54550000D01*
X71278603Y-56790027D01*
X71278603Y-56790027D01*
G37*
X71278603Y-56790027D02*
X71146418Y-56987856D01*
X71084329Y-57300000D01*
X71146418Y-57612144D01*
X71323233Y-57876767D01*
X71587856Y-58053582D01*
X71900000Y-58115671D01*
X72212144Y-58053582D01*
X72409973Y-57921397D01*
X74631370Y-55700000D01*
X87571166Y-55700000D01*
X87571211Y-55700009D01*
X87571216Y-55700009D01*
X87650000Y-55715680D01*
X87728784Y-55700009D01*
X93950001Y-55700009D01*
X93950000Y-57660050D01*
X93806568Y-57803482D01*
X93700000Y-58060761D01*
X93700000Y-58339239D01*
X93806568Y-58596518D01*
X94003482Y-58793432D01*
X94260761Y-58900000D01*
X94539239Y-58900000D01*
X94796518Y-58793432D01*
X94978699Y-58611251D01*
X97050000Y-58611251D01*
X97050000Y-59068749D01*
X97225077Y-59491423D01*
X97548577Y-59814923D01*
X97971251Y-59990000D01*
X98428749Y-59990000D01*
X98851423Y-59814923D01*
X99174923Y-59491423D01*
X99350000Y-59068749D01*
X99350000Y-58611251D01*
X99174923Y-58188577D01*
X98851423Y-57865077D01*
X98428749Y-57690000D01*
X97971251Y-57690000D01*
X97548577Y-57865077D01*
X97225077Y-58188577D01*
X97050000Y-58611251D01*
X94978699Y-58611251D01*
X94993432Y-58596518D01*
X95100000Y-58339239D01*
X95100000Y-58060761D01*
X94993432Y-57803482D01*
X94850000Y-57660050D01*
X94850000Y-55700009D01*
X123800000Y-55700009D01*
X123800001Y-59310761D01*
X123800000Y-59310763D01*
X123800000Y-59589241D01*
X123826904Y-59654194D01*
X123840616Y-59723128D01*
X123879663Y-59781566D01*
X123906568Y-59846520D01*
X123956282Y-59896234D01*
X123980751Y-59932854D01*
X123468701Y-60444904D01*
X123450000Y-60441184D01*
X123405679Y-60450000D01*
X122966039Y-60450000D01*
X122827949Y-60311910D01*
X122798453Y-60299692D01*
X122819105Y-60226237D01*
X122435000Y-59842132D01*
X122050895Y-60226237D01*
X122071547Y-60299692D01*
X122042051Y-60311910D01*
X121846910Y-60507051D01*
X121800000Y-60620301D01*
X121753090Y-60507051D01*
X121557949Y-60311910D01*
X121444699Y-60265000D01*
X121557949Y-60218090D01*
X121753090Y-60022949D01*
X121765308Y-59993453D01*
X121838763Y-60014105D01*
X122222868Y-59630000D01*
X121838763Y-59245895D01*
X121765308Y-59266547D01*
X121753090Y-59237051D01*
X121557949Y-59041910D01*
X121323801Y-58944923D01*
X121458223Y-58810501D01*
X121579300Y-58518195D01*
X121579300Y-58201805D01*
X122020700Y-58201805D01*
X122020700Y-58518195D01*
X122141777Y-58810501D01*
X122194546Y-58863270D01*
X122162446Y-58868029D01*
X122088930Y-58898480D01*
X122050895Y-59033763D01*
X122435000Y-59417868D01*
X122449143Y-59403726D01*
X122661275Y-59615858D01*
X122647132Y-59630000D01*
X123031237Y-60014105D01*
X123166520Y-59976070D01*
X123243272Y-59669787D01*
X123196971Y-59357446D01*
X123166520Y-59283930D01*
X123031239Y-59245896D01*
X123111908Y-59165227D01*
X123064553Y-59117872D01*
X123266501Y-59034223D01*
X123490223Y-58810501D01*
X123611300Y-58518195D01*
X123611300Y-58201805D01*
X123490223Y-57909499D01*
X123266501Y-57685777D01*
X122974195Y-57564700D01*
X122657805Y-57564700D01*
X122365499Y-57685777D01*
X122141777Y-57909499D01*
X122020700Y-58201805D01*
X121579300Y-58201805D01*
X121458223Y-57909499D01*
X121234501Y-57685777D01*
X120942195Y-57564700D01*
X120625805Y-57564700D01*
X120333499Y-57685777D01*
X120109777Y-57909499D01*
X119988700Y-58201805D01*
X119988700Y-58399979D01*
X119867166Y-58399979D01*
X119609887Y-58506547D01*
X119412973Y-58703461D01*
X119306405Y-58960740D01*
X119306405Y-59032496D01*
X119000393Y-58726484D01*
X119000393Y-57055470D01*
X119008229Y-57016077D01*
X119002659Y-56988077D01*
X119168825Y-56821911D01*
X119275393Y-56564632D01*
X119275393Y-56286154D01*
X119168825Y-56028875D01*
X118971911Y-55831961D01*
X118714632Y-55725393D01*
X118436154Y-55725393D01*
X118178875Y-55831961D01*
X117981961Y-56028875D01*
X117875393Y-56286154D01*
X117875393Y-56564632D01*
X117910758Y-56650010D01*
X117811144Y-56650010D01*
X117553865Y-56756578D01*
X117356951Y-56953492D01*
X117312793Y-57060100D01*
X117214330Y-57019315D01*
X116935852Y-57019315D01*
X116678573Y-57125883D01*
X116481659Y-57322797D01*
X116375091Y-57580076D01*
X116375091Y-57858554D01*
X116481659Y-58115833D01*
X116675091Y-58309265D01*
X116675091Y-58324393D01*
X116675092Y-58324398D01*
X116675091Y-59985697D01*
X116667255Y-60025091D01*
X116675091Y-60064484D01*
X116698300Y-60181162D01*
X116786707Y-60313475D01*
X116820110Y-60335794D01*
X121089299Y-64604984D01*
X121111616Y-64638384D01*
X121195170Y-64694212D01*
X121243928Y-64726791D01*
X121400000Y-64757836D01*
X121439394Y-64750000D01*
X121469339Y-64750000D01*
X121453482Y-64756568D01*
X121256568Y-64953482D01*
X121150000Y-65210761D01*
X121150000Y-65489239D01*
X121256568Y-65746518D01*
X121453482Y-65943432D01*
X121710761Y-66050000D01*
X121989239Y-66050000D01*
X122246518Y-65943432D01*
X122443432Y-65746518D01*
X122550000Y-65489239D01*
X122550000Y-65286396D01*
X122599536Y-65236860D01*
X122599538Y-65236857D01*
X123025628Y-64810767D01*
X125649968Y-64810767D01*
X125649968Y-65089245D01*
X125756536Y-65346524D01*
X125953450Y-65543438D01*
X126210729Y-65650006D01*
X126489207Y-65650006D01*
X126746486Y-65543438D01*
X126939918Y-65350006D01*
X128310087Y-65350006D01*
X128503513Y-65543432D01*
X128760792Y-65650000D01*
X129039270Y-65650000D01*
X129296549Y-65543432D01*
X129493463Y-65346518D01*
X129600031Y-65089239D01*
X129600031Y-64860761D01*
X132100000Y-64860761D01*
X132100000Y-65139239D01*
X132206568Y-65396518D01*
X132403482Y-65593432D01*
X132660761Y-65700000D01*
X132863605Y-65700000D01*
X134700000Y-67536396D01*
X134700000Y-67639239D01*
X134806568Y-67896518D01*
X135003482Y-68093432D01*
X135260761Y-68200000D01*
X135539239Y-68200000D01*
X135796518Y-68093432D01*
X135993432Y-67896518D01*
X136100000Y-67639239D01*
X136100000Y-67360761D01*
X135993432Y-67103482D01*
X135810385Y-66920435D01*
X146650000Y-66920435D01*
X146650000Y-67500000D01*
X146750000Y-67600000D01*
X148550000Y-67600000D01*
X148550000Y-66700000D01*
X148450000Y-66600000D01*
X146970435Y-66600000D01*
X146823418Y-66660896D01*
X146710896Y-66773418D01*
X146650000Y-66920435D01*
X135810385Y-66920435D01*
X135796518Y-66906568D01*
X135539239Y-66800000D01*
X135260761Y-66800000D01*
X135243532Y-66807136D01*
X133500000Y-65063605D01*
X133500000Y-64860761D01*
X133393432Y-64603482D01*
X133196518Y-64406568D01*
X132939239Y-64300000D01*
X132660761Y-64300000D01*
X132403482Y-64406568D01*
X132206568Y-64603482D01*
X132100000Y-64860761D01*
X129600031Y-64860761D01*
X129600031Y-64810761D01*
X129493463Y-64553482D01*
X129296549Y-64356568D01*
X129039270Y-64250000D01*
X128760792Y-64250000D01*
X128503513Y-64356568D01*
X128310075Y-64550006D01*
X126939918Y-64550006D01*
X126746486Y-64356574D01*
X126489207Y-64250006D01*
X126210729Y-64250006D01*
X125953450Y-64356574D01*
X125756536Y-64553488D01*
X125649968Y-64810767D01*
X123025628Y-64810767D01*
X123736857Y-64099538D01*
X123774432Y-64074432D01*
X123873891Y-63925581D01*
X123900000Y-63794321D01*
X123900000Y-63794320D01*
X123908816Y-63750000D01*
X123900000Y-63705680D01*
X123900000Y-61274166D01*
X123974432Y-61224432D01*
X123999540Y-61186855D01*
X124736858Y-60449538D01*
X124774432Y-60424432D01*
X124873891Y-60275581D01*
X124900000Y-60144321D01*
X124900000Y-60144320D01*
X124908816Y-60100000D01*
X124900000Y-60055680D01*
X124900000Y-60039952D01*
X124946229Y-59993723D01*
X125004671Y-59954673D01*
X125043721Y-59896231D01*
X125093432Y-59846520D01*
X125120335Y-59781570D01*
X125134239Y-59760761D01*
X126450000Y-59760761D01*
X126450000Y-60039239D01*
X126556568Y-60296518D01*
X126753482Y-60493432D01*
X127010761Y-60600000D01*
X127289239Y-60600000D01*
X127530754Y-60499961D01*
X127551951Y-60551135D01*
X127748865Y-60748049D01*
X128006144Y-60854617D01*
X128284622Y-60854617D01*
X128541901Y-60748049D01*
X128738815Y-60551135D01*
X128845383Y-60293856D01*
X128845383Y-60015378D01*
X128773602Y-59842083D01*
X128915685Y-59700000D01*
X130669318Y-59700000D01*
X130910740Y-59800000D01*
X131189218Y-59800000D01*
X131446497Y-59693432D01*
X131643411Y-59496518D01*
X131749979Y-59239239D01*
X131749979Y-58960761D01*
X131643411Y-58703482D01*
X131446497Y-58506568D01*
X131189218Y-58400000D01*
X131009627Y-58400000D01*
X131009627Y-58351134D01*
X130905601Y-58099991D01*
X134984307Y-58099991D01*
X135650000Y-58765685D01*
X135650000Y-59039239D01*
X135756568Y-59296518D01*
X135953482Y-59493432D01*
X136210761Y-59600000D01*
X136489239Y-59600000D01*
X136746518Y-59493432D01*
X136943432Y-59296518D01*
X137050000Y-59039239D01*
X137050000Y-58760761D01*
X136943432Y-58503482D01*
X136746518Y-58306568D01*
X136489239Y-58200000D01*
X136215685Y-58200000D01*
X136051402Y-58035717D01*
X138100000Y-58035717D01*
X138100000Y-58314195D01*
X138206568Y-58571474D01*
X138403482Y-58768388D01*
X138660761Y-58874956D01*
X138673548Y-58874956D01*
X138673547Y-59585039D01*
X138480115Y-59778471D01*
X138373547Y-60035750D01*
X138373547Y-60314228D01*
X138480115Y-60571507D01*
X138677029Y-60768421D01*
X138934308Y-60874989D01*
X139212786Y-60874989D01*
X139470065Y-60768421D01*
X139666979Y-60571507D01*
X139773547Y-60314228D01*
X139773547Y-60035750D01*
X139666979Y-59778471D01*
X139473547Y-59585039D01*
X139473547Y-58487897D01*
X139481383Y-58448503D01*
X139469374Y-58388132D01*
X139500000Y-58314195D01*
X139500000Y-58035717D01*
X139393432Y-57778438D01*
X139196518Y-57581524D01*
X138939239Y-57474956D01*
X138660761Y-57474956D01*
X138403482Y-57581524D01*
X138206568Y-57778438D01*
X138100000Y-58035717D01*
X136051402Y-58035717D01*
X135460694Y-57445010D01*
X135438375Y-57411607D01*
X135306063Y-57323200D01*
X135189385Y-57299991D01*
X135149991Y-57292155D01*
X135110597Y-57299991D01*
X129656564Y-57299991D01*
X129617170Y-57292155D01*
X129463125Y-57322797D01*
X129461099Y-57323200D01*
X129346173Y-57399990D01*
X129077933Y-57399990D01*
X128820654Y-57506558D01*
X128623740Y-57703472D01*
X128517172Y-57960751D01*
X128517172Y-58239229D01*
X128623740Y-58496508D01*
X128628816Y-58501584D01*
X128187808Y-58501584D01*
X128148415Y-58493748D01*
X128109022Y-58501584D01*
X127992344Y-58524793D01*
X127860032Y-58613200D01*
X127837717Y-58646597D01*
X127295015Y-59189301D01*
X127295012Y-59189303D01*
X127284315Y-59200000D01*
X127010761Y-59200000D01*
X126753482Y-59306568D01*
X126556568Y-59503482D01*
X126450000Y-59760761D01*
X125134239Y-59760761D01*
X125159385Y-59723128D01*
X125173098Y-59654189D01*
X125200000Y-59589241D01*
X125200000Y-56560761D01*
X127550000Y-56560761D01*
X127550000Y-56839239D01*
X127656568Y-57096518D01*
X127853482Y-57293432D01*
X128110761Y-57400000D01*
X128389239Y-57400000D01*
X128646518Y-57293432D01*
X128843432Y-57096518D01*
X128950000Y-56839239D01*
X128950000Y-56650001D01*
X132784317Y-56650001D01*
X133189299Y-57054984D01*
X133211616Y-57088384D01*
X133299567Y-57147150D01*
X133343928Y-57176791D01*
X133499999Y-57207836D01*
X133539393Y-57200000D01*
X135510048Y-57200000D01*
X135553480Y-57243432D01*
X135810759Y-57350000D01*
X136089237Y-57350000D01*
X136346516Y-57243432D01*
X136543430Y-57046518D01*
X136649998Y-56789239D01*
X136649998Y-56510761D01*
X136543430Y-56253482D01*
X136346516Y-56056568D01*
X136089237Y-55950000D01*
X135810759Y-55950000D01*
X135553480Y-56056568D01*
X135356566Y-56253482D01*
X135295877Y-56400000D01*
X133665685Y-56400000D01*
X133260704Y-55995019D01*
X133238385Y-55961617D01*
X133106073Y-55873210D01*
X132989395Y-55850001D01*
X132950001Y-55842165D01*
X132910607Y-55850001D01*
X128739393Y-55850001D01*
X128699999Y-55842165D01*
X128660605Y-55850001D01*
X128543927Y-55873210D01*
X128411615Y-55961617D01*
X128389298Y-55995017D01*
X128384315Y-56000000D01*
X128110761Y-56000000D01*
X127853482Y-56106568D01*
X127656568Y-56303482D01*
X127550000Y-56560761D01*
X125200000Y-56560761D01*
X125200000Y-55700010D01*
X126571215Y-55700010D01*
X126649999Y-55715681D01*
X126728783Y-55700010D01*
X133675172Y-55700010D01*
X133756568Y-55896518D01*
X133953482Y-56093432D01*
X134210761Y-56200000D01*
X134489239Y-56200000D01*
X134746518Y-56093432D01*
X134943432Y-55896518D01*
X135024828Y-55700010D01*
X141954638Y-55700010D01*
X142954628Y-56700000D01*
X142421211Y-56700000D01*
X142187856Y-56746417D01*
X141923233Y-56923233D01*
X141746417Y-57187856D01*
X141684328Y-57500000D01*
X141746417Y-57812144D01*
X141923233Y-58076767D01*
X142187856Y-58253583D01*
X142421211Y-58300000D01*
X144435998Y-58300000D01*
X144435999Y-59656888D01*
X142642894Y-61449994D01*
X142510761Y-61449994D01*
X142253482Y-61556562D01*
X142056568Y-61753476D01*
X141950000Y-62010755D01*
X141950000Y-62289233D01*
X142056568Y-62546512D01*
X142253482Y-62743426D01*
X142510761Y-62849994D01*
X142789239Y-62849994D01*
X143046518Y-62743426D01*
X143243432Y-62546512D01*
X143350000Y-62289233D01*
X143350000Y-62157100D01*
X145254730Y-60252371D01*
X145296478Y-60224476D01*
X145406987Y-60059086D01*
X145435998Y-59913239D01*
X145435998Y-59913238D01*
X145445793Y-59863997D01*
X145435998Y-59814756D01*
X145435998Y-58350000D01*
X146754069Y-58350000D01*
X146767407Y-58417054D01*
X146833712Y-58516288D01*
X146932946Y-58582593D01*
X147050000Y-58605877D01*
X150250001Y-58605877D01*
X150250001Y-59044123D01*
X147050000Y-59044123D01*
X146940037Y-59065997D01*
X146893432Y-58953482D01*
X146696518Y-58756568D01*
X146439239Y-58650000D01*
X146160761Y-58650000D01*
X145903482Y-58756568D01*
X145706568Y-58953482D01*
X145600000Y-59210761D01*
X145600000Y-59489239D01*
X145706568Y-59746518D01*
X145903482Y-59943432D01*
X146160761Y-60050000D01*
X146434315Y-60050000D01*
X146739301Y-60354987D01*
X146744123Y-60362204D01*
X146744123Y-60455576D01*
X146489239Y-60350000D01*
X146210761Y-60350000D01*
X145953482Y-60456568D01*
X145756568Y-60653482D01*
X145650000Y-60910761D01*
X145650000Y-61189239D01*
X145756568Y-61446518D01*
X145953482Y-61643432D01*
X146210761Y-61750000D01*
X146484316Y-61750000D01*
X146744123Y-62009807D01*
X146744123Y-63400000D01*
X146767407Y-63517054D01*
X146833712Y-63616288D01*
X146932946Y-63682593D01*
X147050000Y-63705877D01*
X150250000Y-63705877D01*
X150250000Y-64144123D01*
X147050000Y-64144123D01*
X146932946Y-64167407D01*
X146833712Y-64233712D01*
X146767407Y-64332946D01*
X146744123Y-64450000D01*
X146744123Y-64800000D01*
X146389950Y-64800000D01*
X146346518Y-64756568D01*
X146089239Y-64650000D01*
X145810761Y-64650000D01*
X145553482Y-64756568D01*
X145356568Y-64953482D01*
X145250000Y-65210761D01*
X145250000Y-65489239D01*
X145356568Y-65746518D01*
X145553482Y-65943432D01*
X145810761Y-66050000D01*
X146089239Y-66050000D01*
X146346518Y-65943432D01*
X146543432Y-65746518D01*
X146604121Y-65600000D01*
X146744123Y-65600000D01*
X146744123Y-65950000D01*
X146767407Y-66067054D01*
X146833712Y-66166288D01*
X146932946Y-66232593D01*
X147050000Y-66255877D01*
X150250000Y-66255877D01*
X150250000Y-66600000D01*
X148950000Y-66600000D01*
X148850000Y-66700000D01*
X148850000Y-67600000D01*
X148870000Y-67600000D01*
X148870000Y-67900000D01*
X148850000Y-67900000D01*
X148850000Y-68800000D01*
X148950000Y-68900000D01*
X150250000Y-68900000D01*
X150250000Y-70750000D01*
X147662700Y-70750000D01*
X147750000Y-70539239D01*
X147750000Y-70260761D01*
X147643432Y-70003482D01*
X147446518Y-69806568D01*
X147189239Y-69700000D01*
X146910761Y-69700000D01*
X146653482Y-69806568D01*
X146456568Y-70003482D01*
X146350000Y-70260761D01*
X146350000Y-70399999D01*
X145439951Y-70399999D01*
X145443432Y-70396518D01*
X145550000Y-70139239D01*
X145550000Y-69860761D01*
X145443432Y-69603482D01*
X145246518Y-69406568D01*
X144989239Y-69300000D01*
X144710761Y-69300000D01*
X144453482Y-69406568D01*
X144256568Y-69603482D01*
X144150000Y-69860761D01*
X144150000Y-70000000D01*
X141015686Y-70000000D01*
X140650000Y-69634316D01*
X140650000Y-68439392D01*
X140657836Y-68399999D01*
X140642849Y-68324657D01*
X140626791Y-68243928D01*
X140538384Y-68111616D01*
X140504987Y-68089302D01*
X140415685Y-68000000D01*
X146650000Y-68000000D01*
X146650000Y-68579565D01*
X146710896Y-68726582D01*
X146823418Y-68839104D01*
X146970435Y-68900000D01*
X148450000Y-68900000D01*
X148550000Y-68800000D01*
X148550000Y-67900000D01*
X146750000Y-67900000D01*
X146650000Y-68000000D01*
X140415685Y-68000000D01*
X139879302Y-67463618D01*
X139856984Y-67430216D01*
X139724672Y-67341809D01*
X139607994Y-67318600D01*
X139568600Y-67310764D01*
X139529206Y-67318600D01*
X138830838Y-67318600D01*
X138791444Y-67310764D01*
X138752050Y-67318600D01*
X138635372Y-67341809D01*
X138503060Y-67430216D01*
X138480741Y-67463619D01*
X138475287Y-67469073D01*
X138411616Y-67511616D01*
X138389299Y-67545016D01*
X136734314Y-69200002D01*
X129665686Y-69200000D01*
X128310703Y-67845018D01*
X128288384Y-67811616D01*
X128156072Y-67723209D01*
X128039394Y-67700000D01*
X128000000Y-67692164D01*
X127960606Y-67700000D01*
X125189394Y-67700000D01*
X125150000Y-67692164D01*
X125110606Y-67700000D01*
X124993928Y-67723209D01*
X124861616Y-67811616D01*
X124839299Y-67845016D01*
X124184316Y-68500000D01*
X123910761Y-68500000D01*
X123653482Y-68606568D01*
X123456568Y-68803482D01*
X123350000Y-69060761D01*
X123350000Y-69339239D01*
X123456568Y-69596518D01*
X123653482Y-69793432D01*
X123910761Y-69900000D01*
X124189239Y-69900000D01*
X124446518Y-69793432D01*
X124525007Y-69714944D01*
X124613115Y-69803052D01*
X124870394Y-69909620D01*
X125148872Y-69909620D01*
X125406151Y-69803052D01*
X125603065Y-69606138D01*
X125672714Y-69437991D01*
X125696965Y-69496539D01*
X125893879Y-69693453D01*
X126151158Y-69800021D01*
X126424713Y-69800021D01*
X127374691Y-70750000D01*
X66050000Y-70750000D01*
X66050000Y-68071852D01*
X81511091Y-68071852D01*
X81511091Y-68350330D01*
X81617659Y-68607609D01*
X81644191Y-68634141D01*
X81584665Y-68723230D01*
X81573209Y-68740375D01*
X81542164Y-68896446D01*
X81550000Y-68935840D01*
X81550001Y-69464156D01*
X81542164Y-69503554D01*
X81573209Y-69659625D01*
X81573210Y-69659626D01*
X81661617Y-69791938D01*
X81695016Y-69814255D01*
X82385745Y-70504984D01*
X82408062Y-70538384D01*
X82540374Y-70626791D01*
X82696445Y-70657836D01*
X82735839Y-70650000D01*
X84064160Y-70650000D01*
X84103554Y-70657836D01*
X84142948Y-70650000D01*
X84259626Y-70626791D01*
X84391938Y-70538384D01*
X84414257Y-70504982D01*
X84664644Y-70254594D01*
X84692391Y-70282341D01*
X84949670Y-70388909D01*
X85228148Y-70388909D01*
X85485427Y-70282341D01*
X85682341Y-70085427D01*
X85788909Y-69828148D01*
X85788909Y-69549670D01*
X85682341Y-69292391D01*
X85485427Y-69095477D01*
X85228148Y-68988909D01*
X85011091Y-68988909D01*
X85011091Y-68771852D01*
X84904523Y-68514573D01*
X84707609Y-68317659D01*
X84450330Y-68211091D01*
X84171852Y-68211091D01*
X83914573Y-68317659D01*
X83717659Y-68514573D01*
X83633883Y-68716826D01*
X83582341Y-68592391D01*
X83385427Y-68395477D01*
X83128148Y-68288909D01*
X82911091Y-68288909D01*
X82911091Y-68071852D01*
X82804523Y-67814573D01*
X82607609Y-67617659D01*
X82350330Y-67511091D01*
X82071852Y-67511091D01*
X81814573Y-67617659D01*
X81617659Y-67814573D01*
X81511091Y-68071852D01*
X66050000Y-68071852D01*
X66050000Y-67399754D01*
X97482378Y-67399754D01*
X97577433Y-67582085D01*
X98050400Y-67735679D01*
X98546142Y-67696583D01*
X98822567Y-67582085D01*
X98917622Y-67399754D01*
X98200000Y-66682132D01*
X97482378Y-67399754D01*
X66050000Y-67399754D01*
X66050000Y-66320400D01*
X96934321Y-66320400D01*
X96973417Y-66816142D01*
X97087915Y-67092567D01*
X97270246Y-67187622D01*
X97987868Y-66470000D01*
X98412132Y-66470000D01*
X99129754Y-67187622D01*
X99312085Y-67092567D01*
X99338651Y-67010761D01*
X112150000Y-67010761D01*
X112150000Y-67289239D01*
X112256568Y-67546518D01*
X112453482Y-67743432D01*
X112710761Y-67850000D01*
X112989239Y-67850000D01*
X113246518Y-67743432D01*
X113389950Y-67600000D01*
X114510050Y-67600000D01*
X114653482Y-67743432D01*
X114910761Y-67850000D01*
X115189239Y-67850000D01*
X115446518Y-67743432D01*
X115643432Y-67546518D01*
X115750000Y-67289239D01*
X115750000Y-67010761D01*
X115643432Y-66753482D01*
X115446518Y-66556568D01*
X115189239Y-66450000D01*
X114910761Y-66450000D01*
X114653482Y-66556568D01*
X114510050Y-66700000D01*
X113389950Y-66700000D01*
X113246518Y-66556568D01*
X112989239Y-66450000D01*
X112710761Y-66450000D01*
X112453482Y-66556568D01*
X112256568Y-66753482D01*
X112150000Y-67010761D01*
X99338651Y-67010761D01*
X99465679Y-66619600D01*
X99426583Y-66123858D01*
X99312085Y-65847433D01*
X99129754Y-65752378D01*
X98412132Y-66470000D01*
X97987868Y-66470000D01*
X97270246Y-65752378D01*
X97087915Y-65847433D01*
X96934321Y-66320400D01*
X66050000Y-66320400D01*
X66050000Y-65540246D01*
X97482378Y-65540246D01*
X98200000Y-66257868D01*
X98917622Y-65540246D01*
X98822567Y-65357915D01*
X98349600Y-65204321D01*
X97853858Y-65243417D01*
X97577433Y-65357915D01*
X97482378Y-65540246D01*
X66050000Y-65540246D01*
X66050000Y-64405788D01*
X68550000Y-64405788D01*
X68550000Y-64694212D01*
X68660374Y-64960680D01*
X68864320Y-65164626D01*
X69130788Y-65275000D01*
X69419212Y-65275000D01*
X69685680Y-65164626D01*
X69889626Y-64960680D01*
X70000000Y-64694212D01*
X70000000Y-64405788D01*
X69889626Y-64139320D01*
X69685680Y-63935374D01*
X69419212Y-63825000D01*
X69130788Y-63825000D01*
X68864320Y-63935374D01*
X68660374Y-64139320D01*
X68550000Y-64405788D01*
X66050000Y-64405788D01*
X66050000Y-63691251D01*
X97050000Y-63691251D01*
X97050000Y-64148749D01*
X97225077Y-64571423D01*
X97548577Y-64894923D01*
X97971251Y-65070000D01*
X98428749Y-65070000D01*
X98851423Y-64894923D01*
X99174923Y-64571423D01*
X99350000Y-64148749D01*
X99350000Y-63691251D01*
X99174923Y-63268577D01*
X98851423Y-62945077D01*
X98428749Y-62770000D01*
X97971251Y-62770000D01*
X97548577Y-62945077D01*
X97225077Y-63268577D01*
X97050000Y-63691251D01*
X66050000Y-63691251D01*
X66050000Y-60605788D01*
X68550000Y-60605788D01*
X68550000Y-60894212D01*
X68660374Y-61160680D01*
X68864320Y-61364626D01*
X69130788Y-61475000D01*
X69419212Y-61475000D01*
X69685680Y-61364626D01*
X69889626Y-61160680D01*
X69893531Y-61151251D01*
X97050000Y-61151251D01*
X97050000Y-61608749D01*
X97225077Y-62031423D01*
X97548577Y-62354923D01*
X97971251Y-62530000D01*
X98428749Y-62530000D01*
X98851423Y-62354923D01*
X99174923Y-62031423D01*
X99350000Y-61608749D01*
X99350000Y-61151251D01*
X99174923Y-60728577D01*
X98851423Y-60405077D01*
X98428749Y-60230000D01*
X97971251Y-60230000D01*
X97548577Y-60405077D01*
X97225077Y-60728577D01*
X97050000Y-61151251D01*
X69893531Y-61151251D01*
X70000000Y-60894212D01*
X70000000Y-60605788D01*
X69889626Y-60339320D01*
X69685680Y-60135374D01*
X69419212Y-60025000D01*
X69130788Y-60025000D01*
X68864320Y-60135374D01*
X68660374Y-60339320D01*
X68550000Y-60605788D01*
X66050000Y-60605788D01*
X66050000Y-54550000D01*
X73518630Y-54550000D01*
X71278603Y-56790027D01*
G04 #@! TD*
M02*
