M48
;DRILL file {KiCad (5.0.0)} date 05/10/19 09:44:02
;FORMAT={-:-/ absolute / inch / decimal}
FMAT,2
INCH,TZ
T1C0.0157
T2C0.0394
%
G90
G05
M72
T1
X2.6398Y-2.2618
X2.6949Y-2.6457
X2.8071Y-2.5492
X2.8071Y-2.5177
X2.8307Y-2.2559
X2.8602Y-2.2264
X2.9354Y-2.6289
X2.9449Y-2.3091
X3.2367Y-2.6855
X3.2673Y-2.7161
X3.3193Y-2.713
X3.35Y-2.7437
X3.5945Y-2.625
X3.5984Y-2.311
X3.7165Y-2.2913
X4.1988Y-2.6693
X4.4429Y-2.6437
X4.4744Y-2.4803
X4.4744Y-2.5315
X4.5256Y-2.4803
X4.5256Y-2.5315
X4.5295Y-2.6437
X4.6093Y-2.2724
X4.6437Y-2.2579
X4.6683Y-2.2215
X4.7247Y-2.3268
X4.7972Y-2.5728
X4.8839Y-2.7244
X4.892Y-2.7609
X4.8937Y-2.5925
X4.9016Y-2.3406
X4.9216Y-2.7248
X4.9721Y-2.7205
X4.9744Y-2.5571
X5.0059Y-2.3583
X5.0102Y-2.7205
X5.0451Y-2.3683
X5.0492Y-2.2323
X5.0748Y-2.5571
X5.0873Y-2.2874
X5.101Y-2.6019
X5.1195Y-2.2421
X5.1303Y-2.3028
X5.1594Y-2.3268
X5.2239Y-2.4552
X5.2257Y-2.388
X5.2283Y-2.5591
X5.2894Y-2.185
X5.2918Y-2.3873
X5.2918Y-2.4552
X5.3228Y-2.7067
X5.3307Y-2.6575
X5.3524Y-2.2303
X5.3681Y-2.3189
X5.376Y-2.6457
X5.4094Y-2.2441
X5.4646Y-2.2904
X5.4705Y-2.4902
X5.4753Y-2.3691
X5.4807Y-2.7076
X5.4822Y-2.7756
X5.5453Y-2.3848
X5.5453Y-2.4183
X5.6102Y-2.2638
X5.6161Y-2.4469
X5.624Y-2.5276
X5.7028Y-2.7559
X5.7461Y-2.5728
X5.7598Y-2.3366
X5.7618Y-2.4035
X5.7894Y-2.7717
T2
X3.8661Y-2.3165
X3.8661Y-2.4165
X3.8661Y-2.5165
X3.8661Y-2.6169
T0
M30
