G04 #@! TF.GenerationSoftware,KiCad,Pcbnew,(5.0.0)*
G04 #@! TF.CreationDate,2019-05-10T09:44:01+02:00*
G04 #@! TF.ProjectId,3dsimo_kit,336473696D6F5F6B69742E6B69636164,200A*
G04 #@! TF.SameCoordinates,Original*
G04 #@! TF.FileFunction,Soldermask,Bot*
G04 #@! TF.FilePolarity,Negative*
%FSLAX46Y46*%
G04 Gerber Fmt 4.6, Leading zero omitted, Abs format (unit mm)*
G04 Created by KiCad (PCBNEW (5.0.0)) date 05/10/19 09:44:01*
%MOMM*%
%LPD*%
G01*
G04 APERTURE LIST*
%ADD10C,0.250000*%
%ADD11R,3.540000X1.740000*%
%ADD12C,1.027400*%
%ADD13C,1.230600*%
%ADD14C,1.090000*%
%ADD15C,1.940000*%
G04 APERTURE END LIST*
D10*
X78427380Y-56040476D02*
X78427380Y-56135714D01*
X78475000Y-56230952D01*
X78522619Y-56278571D01*
X78617857Y-56326190D01*
X78808333Y-56373809D01*
X79046428Y-56373809D01*
X79236904Y-56326190D01*
X79332142Y-56278571D01*
X79379761Y-56230952D01*
X79427380Y-56135714D01*
X79427380Y-56040476D01*
X79379761Y-55945238D01*
X79332142Y-55897619D01*
X79236904Y-55850000D01*
X79046428Y-55802380D01*
X78808333Y-55802380D01*
X78617857Y-55850000D01*
X78522619Y-55897619D01*
X78475000Y-55945238D01*
X78427380Y-56040476D01*
X79427380Y-57326190D02*
X79427380Y-56754761D01*
X79427380Y-57040476D02*
X78427380Y-57040476D01*
X78570238Y-56945238D01*
X78665476Y-56850000D01*
X78713095Y-56754761D01*
X78427380Y-58230952D02*
X78427380Y-57754761D01*
X78903571Y-57707142D01*
X78855952Y-57754761D01*
X78808333Y-57850000D01*
X78808333Y-58088095D01*
X78855952Y-58183333D01*
X78903571Y-58230952D01*
X78998809Y-58278571D01*
X79236904Y-58278571D01*
X79332142Y-58230952D01*
X79379761Y-58183333D01*
X79427380Y-58088095D01*
X79427380Y-57850000D01*
X79379761Y-57754761D01*
X79332142Y-57707142D01*
X79046428Y-58707142D02*
X79046428Y-59469047D01*
X78427380Y-59850000D02*
X78427380Y-60469047D01*
X78808333Y-60135714D01*
X78808333Y-60278571D01*
X78855952Y-60373809D01*
X78903571Y-60421428D01*
X78998809Y-60469047D01*
X79236904Y-60469047D01*
X79332142Y-60421428D01*
X79379761Y-60373809D01*
X79427380Y-60278571D01*
X79427380Y-59992857D01*
X79379761Y-59897619D01*
X79332142Y-59850000D01*
X79427380Y-60897619D02*
X78427380Y-60897619D01*
X78427380Y-61135714D01*
X78475000Y-61278571D01*
X78570238Y-61373809D01*
X78665476Y-61421428D01*
X78855952Y-61469047D01*
X78998809Y-61469047D01*
X79189285Y-61421428D01*
X79284523Y-61373809D01*
X79379761Y-61278571D01*
X79427380Y-61135714D01*
X79427380Y-60897619D01*
X79379761Y-61850000D02*
X79427380Y-61945238D01*
X79427380Y-62135714D01*
X79379761Y-62230952D01*
X79284523Y-62278571D01*
X79236904Y-62278571D01*
X79141666Y-62230952D01*
X79094047Y-62135714D01*
X79094047Y-61992857D01*
X79046428Y-61897619D01*
X78951190Y-61850000D01*
X78903571Y-61850000D01*
X78808333Y-61897619D01*
X78760714Y-61992857D01*
X78760714Y-62135714D01*
X78808333Y-62230952D01*
X79427380Y-62707142D02*
X78760714Y-62707142D01*
X78427380Y-62707142D02*
X78475000Y-62659523D01*
X78522619Y-62707142D01*
X78475000Y-62754761D01*
X78427380Y-62707142D01*
X78522619Y-62707142D01*
X79427380Y-63183333D02*
X78760714Y-63183333D01*
X78855952Y-63183333D02*
X78808333Y-63230952D01*
X78760714Y-63326190D01*
X78760714Y-63469047D01*
X78808333Y-63564285D01*
X78903571Y-63611904D01*
X79427380Y-63611904D01*
X78903571Y-63611904D02*
X78808333Y-63659523D01*
X78760714Y-63754761D01*
X78760714Y-63897619D01*
X78808333Y-63992857D01*
X78903571Y-64040476D01*
X79427380Y-64040476D01*
X79427380Y-64659523D02*
X79379761Y-64564285D01*
X79332142Y-64516666D01*
X79236904Y-64469047D01*
X78951190Y-64469047D01*
X78855952Y-64516666D01*
X78808333Y-64564285D01*
X78760714Y-64659523D01*
X78760714Y-64802380D01*
X78808333Y-64897619D01*
X78855952Y-64945238D01*
X78951190Y-64992857D01*
X79236904Y-64992857D01*
X79332142Y-64945238D01*
X79379761Y-64897619D01*
X79427380Y-64802380D01*
X79427380Y-64659523D01*
X79427380Y-65421428D02*
X78427380Y-65421428D01*
X79427380Y-65992857D02*
X78855952Y-65564285D01*
X78427380Y-65992857D02*
X78998809Y-65421428D01*
X79427380Y-66421428D02*
X78760714Y-66421428D01*
X78427380Y-66421428D02*
X78475000Y-66373809D01*
X78522619Y-66421428D01*
X78475000Y-66469047D01*
X78427380Y-66421428D01*
X78522619Y-66421428D01*
X78760714Y-66754761D02*
X78760714Y-67135714D01*
X78427380Y-66897619D02*
X79284523Y-66897619D01*
X79379761Y-66945238D01*
X79427380Y-67040476D01*
X79427380Y-67135714D01*
X78522619Y-67421428D02*
X78475000Y-67469047D01*
X78427380Y-67564285D01*
X78427380Y-67802380D01*
X78475000Y-67897619D01*
X78522619Y-67945238D01*
X78617857Y-67992857D01*
X78713095Y-67992857D01*
X78855952Y-67945238D01*
X79427380Y-67373809D01*
X79427380Y-67992857D01*
X78427380Y-68611904D02*
X78427380Y-68707142D01*
X78475000Y-68802380D01*
X78522619Y-68850000D01*
X78617857Y-68897619D01*
X78808333Y-68945238D01*
X79046428Y-68945238D01*
X79236904Y-68897619D01*
X79332142Y-68850000D01*
X79379761Y-68802380D01*
X79427380Y-68707142D01*
X79427380Y-68611904D01*
X79379761Y-68516666D01*
X79332142Y-68469047D01*
X79236904Y-68421428D01*
X79046428Y-68373809D01*
X78808333Y-68373809D01*
X78617857Y-68421428D01*
X78522619Y-68469047D01*
X78475000Y-68516666D01*
X78427380Y-68611904D01*
X79427380Y-69897619D02*
X79427380Y-69326190D01*
X79427380Y-69611904D02*
X78427380Y-69611904D01*
X78570238Y-69516666D01*
X78665476Y-69421428D01*
X78713095Y-69326190D01*
X80177380Y-56992857D02*
X80177380Y-57183333D01*
X80225000Y-57278571D01*
X80320238Y-57373809D01*
X80510714Y-57421428D01*
X80844047Y-57421428D01*
X81034523Y-57373809D01*
X81129761Y-57278571D01*
X81177380Y-57183333D01*
X81177380Y-56992857D01*
X81129761Y-56897619D01*
X81034523Y-56802380D01*
X80844047Y-56754761D01*
X80510714Y-56754761D01*
X80320238Y-56802380D01*
X80225000Y-56897619D01*
X80177380Y-56992857D01*
X81177380Y-57850000D02*
X80177380Y-57850000D01*
X81177380Y-58421428D01*
X80177380Y-58421428D01*
X81177380Y-60183333D02*
X81177380Y-59611904D01*
X81177380Y-59897619D02*
X80177380Y-59897619D01*
X80320238Y-59802380D01*
X80415476Y-59707142D01*
X80463095Y-59611904D01*
X80177380Y-60802380D02*
X80177380Y-60897619D01*
X80225000Y-60992857D01*
X80272619Y-61040476D01*
X80367857Y-61088095D01*
X80558333Y-61135714D01*
X80796428Y-61135714D01*
X80986904Y-61088095D01*
X81082142Y-61040476D01*
X81129761Y-60992857D01*
X81177380Y-60897619D01*
X81177380Y-60802380D01*
X81129761Y-60707142D01*
X81082142Y-60659523D01*
X80986904Y-60611904D01*
X80796428Y-60564285D01*
X80558333Y-60564285D01*
X80367857Y-60611904D01*
X80272619Y-60659523D01*
X80225000Y-60707142D01*
X80177380Y-60802380D01*
X80129761Y-62278571D02*
X81415476Y-61421428D01*
X80177380Y-62802380D02*
X80177380Y-62897619D01*
X80225000Y-62992857D01*
X80272619Y-63040476D01*
X80367857Y-63088095D01*
X80558333Y-63135714D01*
X80796428Y-63135714D01*
X80986904Y-63088095D01*
X81082142Y-63040476D01*
X81129761Y-62992857D01*
X81177380Y-62897619D01*
X81177380Y-62802380D01*
X81129761Y-62707142D01*
X81082142Y-62659523D01*
X80986904Y-62611904D01*
X80796428Y-62564285D01*
X80558333Y-62564285D01*
X80367857Y-62611904D01*
X80272619Y-62659523D01*
X80225000Y-62707142D01*
X80177380Y-62802380D01*
X80177380Y-64040476D02*
X80177380Y-63564285D01*
X80653571Y-63516666D01*
X80605952Y-63564285D01*
X80558333Y-63659523D01*
X80558333Y-63897619D01*
X80605952Y-63992857D01*
X80653571Y-64040476D01*
X80748809Y-64088095D01*
X80986904Y-64088095D01*
X81082142Y-64040476D01*
X81129761Y-63992857D01*
X81177380Y-63897619D01*
X81177380Y-63659523D01*
X81129761Y-63564285D01*
X81082142Y-63516666D01*
X80129761Y-65230952D02*
X81415476Y-64373809D01*
X80272619Y-65516666D02*
X80225000Y-65564285D01*
X80177380Y-65659523D01*
X80177380Y-65897619D01*
X80225000Y-65992857D01*
X80272619Y-66040476D01*
X80367857Y-66088095D01*
X80463095Y-66088095D01*
X80605952Y-66040476D01*
X81177380Y-65469047D01*
X81177380Y-66088095D01*
X80177380Y-66707142D02*
X80177380Y-66802380D01*
X80225000Y-66897619D01*
X80272619Y-66945238D01*
X80367857Y-66992857D01*
X80558333Y-67040476D01*
X80796428Y-67040476D01*
X80986904Y-66992857D01*
X81082142Y-66945238D01*
X81129761Y-66897619D01*
X81177380Y-66802380D01*
X81177380Y-66707142D01*
X81129761Y-66611904D01*
X81082142Y-66564285D01*
X80986904Y-66516666D01*
X80796428Y-66469047D01*
X80558333Y-66469047D01*
X80367857Y-66516666D01*
X80272619Y-66564285D01*
X80225000Y-66611904D01*
X80177380Y-66707142D01*
X81177380Y-67992857D02*
X81177380Y-67421428D01*
X81177380Y-67707142D02*
X80177380Y-67707142D01*
X80320238Y-67611904D01*
X80415476Y-67516666D01*
X80463095Y-67421428D01*
X81177380Y-68469047D02*
X81177380Y-68659523D01*
X81129761Y-68754761D01*
X81082142Y-68802380D01*
X80939285Y-68897619D01*
X80748809Y-68945238D01*
X80367857Y-68945238D01*
X80272619Y-68897619D01*
X80225000Y-68850000D01*
X80177380Y-68754761D01*
X80177380Y-68564285D01*
X80225000Y-68469047D01*
X80272619Y-68421428D01*
X80367857Y-68373809D01*
X80605952Y-68373809D01*
X80701190Y-68421428D01*
X80748809Y-68469047D01*
X80796428Y-68564285D01*
X80796428Y-68754761D01*
X80748809Y-68850000D01*
X80701190Y-68897619D01*
X80605952Y-68945238D01*
X86167857Y-56364285D02*
X86167857Y-57107142D01*
X86625000Y-56707142D01*
X86625000Y-56878571D01*
X86682142Y-56992857D01*
X86739285Y-57050000D01*
X86853571Y-57107142D01*
X87139285Y-57107142D01*
X87253571Y-57050000D01*
X87310714Y-56992857D01*
X87367857Y-56878571D01*
X87367857Y-56535714D01*
X87310714Y-56421428D01*
X87253571Y-56364285D01*
X87367857Y-57621428D02*
X86167857Y-57621428D01*
X86167857Y-57907142D01*
X86225000Y-58078571D01*
X86339285Y-58192857D01*
X86453571Y-58250000D01*
X86682142Y-58307142D01*
X86853571Y-58307142D01*
X87082142Y-58250000D01*
X87196428Y-58192857D01*
X87310714Y-58078571D01*
X87367857Y-57907142D01*
X87367857Y-57621428D01*
X87310714Y-58764285D02*
X87367857Y-58878571D01*
X87367857Y-59107142D01*
X87310714Y-59221428D01*
X87196428Y-59278571D01*
X87139285Y-59278571D01*
X87025000Y-59221428D01*
X86967857Y-59107142D01*
X86967857Y-58935714D01*
X86910714Y-58821428D01*
X86796428Y-58764285D01*
X86739285Y-58764285D01*
X86625000Y-58821428D01*
X86567857Y-58935714D01*
X86567857Y-59107142D01*
X86625000Y-59221428D01*
X87367857Y-59792857D02*
X86567857Y-59792857D01*
X86167857Y-59792857D02*
X86225000Y-59735714D01*
X86282142Y-59792857D01*
X86225000Y-59850000D01*
X86167857Y-59792857D01*
X86282142Y-59792857D01*
X87367857Y-60364285D02*
X86567857Y-60364285D01*
X86682142Y-60364285D02*
X86625000Y-60421428D01*
X86567857Y-60535714D01*
X86567857Y-60707142D01*
X86625000Y-60821428D01*
X86739285Y-60878571D01*
X87367857Y-60878571D01*
X86739285Y-60878571D02*
X86625000Y-60935714D01*
X86567857Y-61050000D01*
X86567857Y-61221428D01*
X86625000Y-61335714D01*
X86739285Y-61392857D01*
X87367857Y-61392857D01*
X87367857Y-62135714D02*
X87310714Y-62021428D01*
X87253571Y-61964285D01*
X87139285Y-61907142D01*
X86796428Y-61907142D01*
X86682142Y-61964285D01*
X86625000Y-62021428D01*
X86567857Y-62135714D01*
X86567857Y-62307142D01*
X86625000Y-62421428D01*
X86682142Y-62478571D01*
X86796428Y-62535714D01*
X87139285Y-62535714D01*
X87253571Y-62478571D01*
X87310714Y-62421428D01*
X87367857Y-62307142D01*
X87367857Y-62135714D01*
X87367857Y-63050000D02*
X86167857Y-63050000D01*
X87367857Y-63735714D02*
X86682142Y-63221428D01*
X86167857Y-63735714D02*
X86853571Y-63050000D01*
X87367857Y-64250000D02*
X86567857Y-64250000D01*
X86167857Y-64250000D02*
X86225000Y-64192857D01*
X86282142Y-64250000D01*
X86225000Y-64307142D01*
X86167857Y-64250000D01*
X86282142Y-64250000D01*
X86567857Y-64650000D02*
X86567857Y-65107142D01*
X86167857Y-64821428D02*
X87196428Y-64821428D01*
X87310714Y-64878571D01*
X87367857Y-64992857D01*
X87367857Y-65107142D01*
X87253571Y-65507142D02*
X87310714Y-65564285D01*
X87367857Y-65507142D01*
X87310714Y-65450000D01*
X87253571Y-65507142D01*
X87367857Y-65507142D01*
X87310714Y-66592857D02*
X87367857Y-66478571D01*
X87367857Y-66250000D01*
X87310714Y-66135714D01*
X87253571Y-66078571D01*
X87139285Y-66021428D01*
X86796428Y-66021428D01*
X86682142Y-66078571D01*
X86625000Y-66135714D01*
X86567857Y-66250000D01*
X86567857Y-66478571D01*
X86625000Y-66592857D01*
X87367857Y-67278571D02*
X87310714Y-67164285D01*
X87253571Y-67107142D01*
X87139285Y-67050000D01*
X86796428Y-67050000D01*
X86682142Y-67107142D01*
X86625000Y-67164285D01*
X86567857Y-67278571D01*
X86567857Y-67450000D01*
X86625000Y-67564285D01*
X86682142Y-67621428D01*
X86796428Y-67678571D01*
X87139285Y-67678571D01*
X87253571Y-67621428D01*
X87310714Y-67564285D01*
X87367857Y-67450000D01*
X87367857Y-67278571D01*
X87367857Y-68192857D02*
X86567857Y-68192857D01*
X86682142Y-68192857D02*
X86625000Y-68250000D01*
X86567857Y-68364285D01*
X86567857Y-68535714D01*
X86625000Y-68650000D01*
X86739285Y-68707142D01*
X87367857Y-68707142D01*
X86739285Y-68707142D02*
X86625000Y-68764285D01*
X86567857Y-68878571D01*
X86567857Y-69050000D01*
X86625000Y-69164285D01*
X86739285Y-69221428D01*
X87367857Y-69221428D01*
X88217857Y-57592857D02*
X88217857Y-58335714D01*
X88675000Y-57935714D01*
X88675000Y-58107142D01*
X88732142Y-58221428D01*
X88789285Y-58278571D01*
X88903571Y-58335714D01*
X89189285Y-58335714D01*
X89303571Y-58278571D01*
X89360714Y-58221428D01*
X89417857Y-58107142D01*
X89417857Y-57764285D01*
X89360714Y-57650000D01*
X89303571Y-57592857D01*
X89417857Y-58850000D02*
X88217857Y-58850000D01*
X88217857Y-59135714D01*
X88275000Y-59307142D01*
X88389285Y-59421428D01*
X88503571Y-59478571D01*
X88732142Y-59535714D01*
X88903571Y-59535714D01*
X89132142Y-59478571D01*
X89246428Y-59421428D01*
X89360714Y-59307142D01*
X89417857Y-59135714D01*
X89417857Y-58850000D01*
X89360714Y-59992857D02*
X89417857Y-60107142D01*
X89417857Y-60335714D01*
X89360714Y-60450000D01*
X89246428Y-60507142D01*
X89189285Y-60507142D01*
X89075000Y-60450000D01*
X89017857Y-60335714D01*
X89017857Y-60164285D01*
X88960714Y-60050000D01*
X88846428Y-59992857D01*
X88789285Y-59992857D01*
X88675000Y-60050000D01*
X88617857Y-60164285D01*
X88617857Y-60335714D01*
X88675000Y-60450000D01*
X89417857Y-61021428D02*
X88617857Y-61021428D01*
X88217857Y-61021428D02*
X88275000Y-60964285D01*
X88332142Y-61021428D01*
X88275000Y-61078571D01*
X88217857Y-61021428D01*
X88332142Y-61021428D01*
X89417857Y-61592857D02*
X88617857Y-61592857D01*
X88732142Y-61592857D02*
X88675000Y-61650000D01*
X88617857Y-61764285D01*
X88617857Y-61935714D01*
X88675000Y-62050000D01*
X88789285Y-62107142D01*
X89417857Y-62107142D01*
X88789285Y-62107142D02*
X88675000Y-62164285D01*
X88617857Y-62278571D01*
X88617857Y-62450000D01*
X88675000Y-62564285D01*
X88789285Y-62621428D01*
X89417857Y-62621428D01*
X89417857Y-63364285D02*
X89360714Y-63250000D01*
X89303571Y-63192857D01*
X89189285Y-63135714D01*
X88846428Y-63135714D01*
X88732142Y-63192857D01*
X88675000Y-63250000D01*
X88617857Y-63364285D01*
X88617857Y-63535714D01*
X88675000Y-63650000D01*
X88732142Y-63707142D01*
X88846428Y-63764285D01*
X89189285Y-63764285D01*
X89303571Y-63707142D01*
X89360714Y-63650000D01*
X89417857Y-63535714D01*
X89417857Y-63364285D01*
X89303571Y-64278571D02*
X89360714Y-64335714D01*
X89417857Y-64278571D01*
X89360714Y-64221428D01*
X89303571Y-64278571D01*
X89417857Y-64278571D01*
X89360714Y-65364285D02*
X89417857Y-65250000D01*
X89417857Y-65021428D01*
X89360714Y-64907142D01*
X89303571Y-64850000D01*
X89189285Y-64792857D01*
X88846428Y-64792857D01*
X88732142Y-64850000D01*
X88675000Y-64907142D01*
X88617857Y-65021428D01*
X88617857Y-65250000D01*
X88675000Y-65364285D01*
X89417857Y-66050000D02*
X89360714Y-65935714D01*
X89303571Y-65878571D01*
X89189285Y-65821428D01*
X88846428Y-65821428D01*
X88732142Y-65878571D01*
X88675000Y-65935714D01*
X88617857Y-66050000D01*
X88617857Y-66221428D01*
X88675000Y-66335714D01*
X88732142Y-66392857D01*
X88846428Y-66450000D01*
X89189285Y-66450000D01*
X89303571Y-66392857D01*
X89360714Y-66335714D01*
X89417857Y-66221428D01*
X89417857Y-66050000D01*
X89417857Y-66964285D02*
X88617857Y-66964285D01*
X88732142Y-66964285D02*
X88675000Y-67021428D01*
X88617857Y-67135714D01*
X88617857Y-67307142D01*
X88675000Y-67421428D01*
X88789285Y-67478571D01*
X89417857Y-67478571D01*
X88789285Y-67478571D02*
X88675000Y-67535714D01*
X88617857Y-67650000D01*
X88617857Y-67821428D01*
X88675000Y-67935714D01*
X88789285Y-67992857D01*
X89417857Y-67992857D01*
D11*
G04 #@! TO.C,J1*
X148700000Y-57550000D03*
X148700000Y-60100000D03*
X148700000Y-62650000D03*
X148700000Y-65200000D03*
X148700000Y-67750000D03*
G04 #@! TD*
D12*
G04 #@! TO.C,P2*
X122435000Y-59630000D03*
X121165000Y-59630000D03*
X122435000Y-60900000D03*
X121165000Y-60900000D03*
X122435000Y-62170000D03*
X121165000Y-62170000D03*
D13*
X121800000Y-63440000D03*
X120784000Y-58360000D03*
X122816000Y-58360000D03*
G04 #@! TD*
D14*
G04 #@! TO.C,J2*
X69275000Y-64550000D03*
X69275000Y-60750000D03*
G04 #@! TD*
D15*
G04 #@! TO.C,U2*
X98200000Y-66470000D03*
X98200000Y-63920000D03*
X98200000Y-61380000D03*
X98200000Y-58840000D03*
G04 #@! TD*
M02*
