G04 #@! TF.GenerationSoftware,KiCad,Pcbnew,(5.0.0)*
G04 #@! TF.CreationDate,2019-05-10T09:44:01+02:00*
G04 #@! TF.ProjectId,3dsimo_kit,336473696D6F5F6B69742E6B69636164,200A*
G04 #@! TF.SameCoordinates,Original*
G04 #@! TF.FileFunction,Soldermask,Top*
G04 #@! TF.FilePolarity,Negative*
%FSLAX46Y46*%
G04 Gerber Fmt 4.6, Leading zero omitted, Abs format (unit mm)*
G04 Created by KiCad (PCBNEW (5.0.0)) date 05/10/19 09:44:01*
%MOMM*%
%LPD*%
G01*
G04 APERTURE LIST*
%ADD10R,1.140000X0.740000*%
%ADD11R,0.990000X1.040000*%
%ADD12R,2.190000X2.740000*%
%ADD13R,2.740000X2.190000*%
%ADD14R,1.640000X1.440000*%
%ADD15R,1.040000X0.990000*%
%ADD16R,1.490000X1.240000*%
%ADD17R,3.540000X1.740000*%
%ADD18C,1.230600*%
%ADD19C,1.090000*%
%ADD20R,1.740000X2.040000*%
%ADD21R,1.690000X0.690000*%
%ADD22R,1.540000X1.540000*%
%ADD23R,0.540000X1.090000*%
%ADD24R,1.090000X0.540000*%
%ADD25R,1.965000X1.965000*%
%ADD26R,0.940000X0.490000*%
%ADD27R,0.490000X0.940000*%
%ADD28R,1.140000X1.140000*%
%ADD29R,1.340000X1.740000*%
%ADD30R,0.640000X0.890000*%
%ADD31R,1.240000X1.490000*%
%ADD32R,0.740000X1.140000*%
%ADD33C,2.500000*%
%ADD34C,1.940000*%
%ADD35R,1.540000X1.790000*%
%ADD36R,1.140000X1.090000*%
%ADD37R,0.890000X0.590000*%
%ADD38R,1.140000X1.040000*%
G04 APERTURE END LIST*
D10*
G04 #@! TO.C,R15*
X71500000Y-67550000D03*
X71500000Y-69050000D03*
G04 #@! TD*
G04 #@! TO.C,R8*
X119550000Y-60350000D03*
X119550000Y-61850000D03*
G04 #@! TD*
D11*
G04 #@! TO.C,C11*
X118200000Y-61850000D03*
X118200000Y-60350000D03*
G04 #@! TD*
D12*
G04 #@! TO.C,C13*
X144275000Y-65650000D03*
X141225000Y-65650000D03*
G04 #@! TD*
D13*
G04 #@! TO.C,C12*
X124300000Y-61225000D03*
X124300000Y-64275000D03*
G04 #@! TD*
D14*
G04 #@! TO.C,X2*
X129400000Y-69950000D03*
X131600000Y-69950000D03*
X131600000Y-68250000D03*
X129400000Y-68250000D03*
G04 #@! TD*
D15*
G04 #@! TO.C,C10*
X134900000Y-70100000D03*
X133400000Y-70100000D03*
G04 #@! TD*
G04 #@! TO.C,C9*
X125650000Y-70100000D03*
X127150000Y-70100000D03*
G04 #@! TD*
D16*
G04 #@! TO.C,C8*
X138600000Y-66650000D03*
X138600000Y-64650000D03*
G04 #@! TD*
D17*
G04 #@! TO.C,J1*
X148700000Y-57550000D03*
X148700000Y-60100000D03*
X148700000Y-62650000D03*
X148700000Y-65200000D03*
X148700000Y-67750000D03*
G04 #@! TD*
D18*
G04 #@! TO.C,P2*
X121800000Y-63440000D03*
X120784000Y-58360000D03*
X122816000Y-58360000D03*
G04 #@! TD*
D19*
G04 #@! TO.C,J2*
X69275000Y-64550000D03*
X69275000Y-60750000D03*
D20*
X67075000Y-66350000D03*
X67075000Y-63850000D03*
X67075000Y-61450000D03*
X67075000Y-58950000D03*
D21*
X69750000Y-63950000D03*
X69750000Y-63300000D03*
X69750000Y-62650000D03*
X69750000Y-62000000D03*
X69750000Y-61350000D03*
G04 #@! TD*
D22*
G04 #@! TO.C,U4*
X113650000Y-63000000D03*
X113650000Y-64300000D03*
X114950000Y-63000000D03*
X114950000Y-64300000D03*
D23*
X113050000Y-61700000D03*
X113550000Y-61700000D03*
X114050000Y-61700000D03*
X114550000Y-61700000D03*
X115050000Y-61700000D03*
X115550000Y-61700000D03*
D24*
X116250000Y-62400000D03*
X116250000Y-62900000D03*
X116250000Y-63400000D03*
X116250000Y-63900000D03*
X116250000Y-64400000D03*
X116250000Y-64900000D03*
D23*
X115550000Y-65600000D03*
X115050000Y-65600000D03*
X114550000Y-65600000D03*
X114050000Y-65600000D03*
X113550000Y-65600000D03*
X113050000Y-65600000D03*
D24*
X112350000Y-64900000D03*
X112350000Y-64400000D03*
X112350000Y-63900000D03*
X112350000Y-63400000D03*
X112350000Y-62900000D03*
X112350000Y-62400000D03*
G04 #@! TD*
D25*
G04 #@! TO.C,U3*
X132687500Y-62362500D03*
X134412500Y-62362500D03*
X132687500Y-60637500D03*
X134412500Y-60637500D03*
D26*
X131150000Y-63250000D03*
X131150000Y-62750000D03*
X131150000Y-62250000D03*
X131150000Y-61750000D03*
X131150000Y-61250000D03*
X131150000Y-60750000D03*
X131150000Y-60250000D03*
X131150000Y-59750000D03*
D27*
X131800000Y-59100000D03*
X132300000Y-59100000D03*
X132800000Y-59100000D03*
X133300000Y-59100000D03*
X133800000Y-59100000D03*
X134300000Y-59100000D03*
X134800000Y-59100000D03*
X135300000Y-59100000D03*
D26*
X135950000Y-59750000D03*
X135950000Y-60250000D03*
X135950000Y-60750000D03*
X135950000Y-61250000D03*
X135950000Y-61750000D03*
X135950000Y-62250000D03*
X135950000Y-62750000D03*
X135950000Y-63250000D03*
D27*
X135300000Y-63900000D03*
X134800000Y-63900000D03*
X134300000Y-63900000D03*
X133800000Y-63900000D03*
X133300000Y-63900000D03*
X132800000Y-63900000D03*
X132300000Y-63900000D03*
X131800000Y-63900000D03*
G04 #@! TD*
D28*
G04 #@! TO.C,D1*
X68300000Y-56550000D03*
D29*
X69800000Y-55900000D03*
X66800000Y-55900000D03*
G04 #@! TD*
D28*
G04 #@! TO.C,D2*
X68300000Y-68600000D03*
D29*
X66800000Y-69250000D03*
X69800000Y-69250000D03*
G04 #@! TD*
D30*
G04 #@! TO.C,Q2*
X141300000Y-70100000D03*
X142600000Y-70100000D03*
X141950000Y-68200000D03*
X141950000Y-70100000D03*
X142600000Y-68200000D03*
X141300000Y-68200000D03*
G04 #@! TD*
D15*
G04 #@! TO.C,C5*
X130650000Y-65850000D03*
X132150000Y-65850000D03*
G04 #@! TD*
D31*
G04 #@! TO.C,C4*
X133800000Y-65850000D03*
X135800000Y-65850000D03*
G04 #@! TD*
G04 #@! TO.C,C6*
X110050000Y-65800000D03*
X108050000Y-65800000D03*
G04 #@! TD*
G04 #@! TO.C,C7*
X108050000Y-67550000D03*
X110050000Y-67550000D03*
G04 #@! TD*
D32*
G04 #@! TO.C,R10*
X145550000Y-70000000D03*
X144050000Y-70000000D03*
G04 #@! TD*
D10*
G04 #@! TO.C,R14*
X75550000Y-56850000D03*
X75550000Y-55350000D03*
G04 #@! TD*
D32*
G04 #@! TO.C,R13*
X144250000Y-63100000D03*
X142750000Y-63100000D03*
G04 #@! TD*
G04 #@! TO.C,R11*
X108300000Y-69200000D03*
X109800000Y-69200000D03*
G04 #@! TD*
G04 #@! TO.C,R7*
X139950000Y-70000000D03*
X138450000Y-70000000D03*
G04 #@! TD*
G04 #@! TO.C,R6*
X126550000Y-63100000D03*
X128050000Y-63100000D03*
G04 #@! TD*
G04 #@! TO.C,R5*
X128050000Y-61700000D03*
X126550000Y-61700000D03*
G04 #@! TD*
G04 #@! TO.C,R12*
X138400000Y-68300000D03*
X139900000Y-68300000D03*
G04 #@! TD*
D15*
G04 #@! TO.C,C3*
X140100000Y-63100000D03*
X141600000Y-63100000D03*
G04 #@! TD*
D33*
G04 #@! TO.C,J4*
X74700000Y-69500000D03*
G04 #@! TD*
G04 #@! TO.C,J3*
X145800000Y-55750000D03*
G04 #@! TD*
D34*
G04 #@! TO.C,U2*
X98200000Y-66470000D03*
X98200000Y-63920000D03*
X98200000Y-61380000D03*
X98200000Y-58840000D03*
G04 #@! TD*
D35*
G04 #@! TO.C,SW2*
X85425000Y-58675000D03*
X89925000Y-58675000D03*
X85425000Y-66675000D03*
X89925000Y-66675000D03*
G04 #@! TD*
G04 #@! TO.C,SW1*
X77700000Y-66650000D03*
X73200000Y-66650000D03*
X77700000Y-58650000D03*
X73200000Y-58650000D03*
G04 #@! TD*
D36*
G04 #@! TO.C,U1*
X140850000Y-61425000D03*
X140850000Y-60575000D03*
D37*
X139850000Y-61750000D03*
X139850000Y-61250000D03*
X139850000Y-60750000D03*
X139850000Y-60250000D03*
X141850000Y-60250000D03*
X141850000Y-60750000D03*
X141850000Y-61250000D03*
X141850000Y-61750000D03*
G04 #@! TD*
D38*
G04 #@! TO.C,Q1*
X141450000Y-55600000D03*
X141450000Y-57500000D03*
X143450000Y-56550000D03*
G04 #@! TD*
D15*
G04 #@! TO.C,C2*
X131050000Y-57250000D03*
X132550000Y-57250000D03*
G04 #@! TD*
D11*
G04 #@! TO.C,C1*
X143850000Y-61600000D03*
X143850000Y-60100000D03*
G04 #@! TD*
D10*
G04 #@! TO.C,R3*
X139950000Y-55800000D03*
X139950000Y-57300000D03*
G04 #@! TD*
D32*
G04 #@! TO.C,R4*
X145550000Y-68300000D03*
X144050000Y-68300000D03*
G04 #@! TD*
D10*
G04 #@! TO.C,R1*
X96100000Y-62775000D03*
X96100000Y-61275000D03*
G04 #@! TD*
G04 #@! TO.C,R2*
X96100000Y-58175000D03*
X96100000Y-59675000D03*
G04 #@! TD*
M02*
