G04 #@! TF.GenerationSoftware,KiCad,Pcbnew,(5.0.0)*
G04 #@! TF.CreationDate,2019-05-10T09:44:01+02:00*
G04 #@! TF.ProjectId,3dsimo_kit,336473696D6F5F6B69742E6B69636164,200A*
G04 #@! TF.SameCoordinates,Original*
G04 #@! TF.FileFunction,Copper,L1,Top,Signal*
G04 #@! TF.FilePolarity,Positive*
%FSLAX46Y46*%
G04 Gerber Fmt 4.6, Leading zero omitted, Abs format (unit mm)*
G04 Created by KiCad (PCBNEW (5.0.0)) date 05/10/19 09:44:01*
%MOMM*%
%LPD*%
G01*
G04 APERTURE LIST*
G04 #@! TA.AperFunction,SMDPad,CuDef*
%ADD10R,0.900000X0.500000*%
G04 #@! TD*
G04 #@! TA.AperFunction,SMDPad,CuDef*
%ADD11R,0.750000X0.800000*%
G04 #@! TD*
G04 #@! TA.AperFunction,SMDPad,CuDef*
%ADD12R,1.950000X2.500000*%
G04 #@! TD*
G04 #@! TA.AperFunction,SMDPad,CuDef*
%ADD13R,2.500000X1.950000*%
G04 #@! TD*
G04 #@! TA.AperFunction,SMDPad,CuDef*
%ADD14R,1.400000X1.200000*%
G04 #@! TD*
G04 #@! TA.AperFunction,SMDPad,CuDef*
%ADD15R,0.800000X0.750000*%
G04 #@! TD*
G04 #@! TA.AperFunction,SMDPad,CuDef*
%ADD16R,1.250000X1.000000*%
G04 #@! TD*
G04 #@! TA.AperFunction,SMDPad,CuDef*
%ADD17R,3.300000X1.500000*%
G04 #@! TD*
G04 #@! TA.AperFunction,SMDPad,CuDef*
%ADD18R,1.500000X1.800000*%
G04 #@! TD*
G04 #@! TA.AperFunction,SMDPad,CuDef*
%ADD19R,1.450000X0.450000*%
G04 #@! TD*
G04 #@! TA.AperFunction,SMDPad,CuDef*
%ADD20R,1.300000X1.300000*%
G04 #@! TD*
G04 #@! TA.AperFunction,SMDPad,CuDef*
%ADD21R,0.300000X0.850000*%
G04 #@! TD*
G04 #@! TA.AperFunction,SMDPad,CuDef*
%ADD22R,0.850000X0.300000*%
G04 #@! TD*
G04 #@! TA.AperFunction,SMDPad,CuDef*
%ADD23R,1.725000X1.725000*%
G04 #@! TD*
G04 #@! TA.AperFunction,SMDPad,CuDef*
%ADD24R,0.700000X0.250000*%
G04 #@! TD*
G04 #@! TA.AperFunction,SMDPad,CuDef*
%ADD25R,0.250000X0.700000*%
G04 #@! TD*
G04 #@! TA.AperFunction,SMDPad,CuDef*
%ADD26R,0.900000X0.900000*%
G04 #@! TD*
G04 #@! TA.AperFunction,SMDPad,CuDef*
%ADD27R,1.100000X1.500000*%
G04 #@! TD*
G04 #@! TA.AperFunction,SMDPad,CuDef*
%ADD28R,0.400000X0.650000*%
G04 #@! TD*
G04 #@! TA.AperFunction,SMDPad,CuDef*
%ADD29R,1.000000X1.250000*%
G04 #@! TD*
G04 #@! TA.AperFunction,SMDPad,CuDef*
%ADD30R,0.500000X0.900000*%
G04 #@! TD*
G04 #@! TA.AperFunction,BGAPad,CuDef*
%ADD31C,1.000000*%
G04 #@! TD*
G04 #@! TA.AperFunction,ComponentPad*
%ADD32C,1.700000*%
G04 #@! TD*
G04 #@! TA.AperFunction,SMDPad,CuDef*
%ADD33R,1.300000X1.550000*%
G04 #@! TD*
G04 #@! TA.AperFunction,SMDPad,CuDef*
%ADD34R,0.900000X0.850000*%
G04 #@! TD*
G04 #@! TA.AperFunction,SMDPad,CuDef*
%ADD35R,0.650000X0.350000*%
G04 #@! TD*
G04 #@! TA.AperFunction,SMDPad,CuDef*
%ADD36R,0.900000X0.800000*%
G04 #@! TD*
G04 #@! TA.AperFunction,ViaPad*
%ADD37C,0.800000*%
G04 #@! TD*
G04 #@! TA.AperFunction,Conductor*
%ADD38C,0.200000*%
G04 #@! TD*
G04 #@! TA.AperFunction,Conductor*
%ADD39C,0.300000*%
G04 #@! TD*
G04 #@! TA.AperFunction,Conductor*
%ADD40C,0.800000*%
G04 #@! TD*
G04 #@! TA.AperFunction,Conductor*
%ADD41C,1.000000*%
G04 #@! TD*
G04 #@! TA.AperFunction,Conductor*
%ADD42C,0.400000*%
G04 #@! TD*
G04 APERTURE END LIST*
D10*
G04 #@! TO.P,R15,2*
G04 #@! TO.N,GND*
X71500000Y-67550000D03*
G04 #@! TO.P,R15,1*
G04 #@! TO.N,Net-(D2-Pad1)*
X71500000Y-69050000D03*
G04 #@! TD*
G04 #@! TO.P,R8,2*
G04 #@! TO.N,/RST*
X119550000Y-60350000D03*
G04 #@! TO.P,R8,1*
G04 #@! TO.N,VBUS*
X119550000Y-61850000D03*
G04 #@! TD*
D11*
G04 #@! TO.P,C11,1*
G04 #@! TO.N,Net-(C11-Pad1)*
X118200000Y-61850000D03*
G04 #@! TO.P,C11,2*
G04 #@! TO.N,/RST*
X118200000Y-60350000D03*
G04 #@! TD*
D12*
G04 #@! TO.P,C13,2*
G04 #@! TO.N,GND*
X144275000Y-65650000D03*
G04 #@! TO.P,C13,1*
G04 #@! TO.N,VBUS*
X141225000Y-65650000D03*
G04 #@! TD*
D13*
G04 #@! TO.P,C12,1*
G04 #@! TO.N,VBUS*
X124300000Y-61225000D03*
G04 #@! TO.P,C12,2*
G04 #@! TO.N,GND*
X124300000Y-64275000D03*
G04 #@! TD*
D14*
G04 #@! TO.P,X2,1*
G04 #@! TO.N,Net-(C9-Pad1)*
X129400000Y-69950000D03*
G04 #@! TO.P,X2,2*
G04 #@! TO.N,N/C*
X131600000Y-69950000D03*
G04 #@! TO.P,X2,3*
G04 #@! TO.N,Net-(C10-Pad1)*
X131600000Y-68250000D03*
G04 #@! TO.P,X2,4*
G04 #@! TO.N,N/C*
X129400000Y-68250000D03*
G04 #@! TD*
D15*
G04 #@! TO.P,C10,2*
G04 #@! TO.N,GND*
X134900000Y-70100000D03*
G04 #@! TO.P,C10,1*
G04 #@! TO.N,Net-(C10-Pad1)*
X133400000Y-70100000D03*
G04 #@! TD*
G04 #@! TO.P,C9,2*
G04 #@! TO.N,GND*
X125650000Y-70100000D03*
G04 #@! TO.P,C9,1*
G04 #@! TO.N,Net-(C9-Pad1)*
X127150000Y-70100000D03*
G04 #@! TD*
D16*
G04 #@! TO.P,C8,2*
G04 #@! TO.N,VBUS*
X138600000Y-66650000D03*
G04 #@! TO.P,C8,1*
G04 #@! TO.N,GND*
X138600000Y-64650000D03*
G04 #@! TD*
D17*
G04 #@! TO.P,J1,9*
G04 #@! TO.N,Net-(J1-Pad9)*
X148700000Y-57550000D03*
G04 #@! TO.P,J1,7*
G04 #@! TO.N,Net-(J1-Pad7)*
X148700000Y-60100000D03*
G04 #@! TO.P,J1,5*
G04 #@! TO.N,/MOTOR2*
X148700000Y-62650000D03*
G04 #@! TO.P,J1,3*
G04 #@! TO.N,/MOTOR1*
X148700000Y-65200000D03*
G04 #@! TO.P,J1,1*
G04 #@! TO.N,/ID*
X148700000Y-67750000D03*
G04 #@! TD*
D18*
G04 #@! TO.P,J2,6*
G04 #@! TO.N,GND*
X67075000Y-66350000D03*
X67075000Y-63850000D03*
X67075000Y-61450000D03*
X67075000Y-58950000D03*
D19*
G04 #@! TO.P,J2,5*
X69750000Y-63950000D03*
G04 #@! TO.P,J2,4*
G04 #@! TO.N,Net-(J2-Pad4)*
X69750000Y-63300000D03*
G04 #@! TO.P,J2,3*
G04 #@! TO.N,/D+*
X69750000Y-62650000D03*
G04 #@! TO.P,J2,2*
G04 #@! TO.N,/D-*
X69750000Y-62000000D03*
G04 #@! TO.P,J2,1*
G04 #@! TO.N,VBUS*
X69750000Y-61350000D03*
G04 #@! TD*
D20*
G04 #@! TO.P,U4,25*
G04 #@! TO.N,GND*
X113650000Y-63000000D03*
X113650000Y-64300000D03*
X114950000Y-63000000D03*
X114950000Y-64300000D03*
D21*
G04 #@! TO.P,U4,24*
G04 #@! TO.N,Net-(U4-Pad24)*
X113050000Y-61700000D03*
G04 #@! TO.P,U4,23*
G04 #@! TO.N,Net-(C11-Pad1)*
X113550000Y-61700000D03*
G04 #@! TO.P,U4,22*
G04 #@! TO.N,Net-(U4-Pad22)*
X114050000Y-61700000D03*
G04 #@! TO.P,U4,21*
G04 #@! TO.N,/CP_TxD*
X114550000Y-61700000D03*
G04 #@! TO.P,U4,20*
G04 #@! TO.N,/CP_RxD*
X115050000Y-61700000D03*
G04 #@! TO.P,U4,19*
G04 #@! TO.N,Net-(U4-Pad19)*
X115550000Y-61700000D03*
D22*
G04 #@! TO.P,U4,18*
G04 #@! TO.N,Net-(U4-Pad18)*
X116250000Y-62400000D03*
G04 #@! TO.P,U4,17*
G04 #@! TO.N,Net-(U4-Pad17)*
X116250000Y-62900000D03*
G04 #@! TO.P,U4,16*
G04 #@! TO.N,N/C*
X116250000Y-63400000D03*
G04 #@! TO.P,U4,15*
G04 #@! TO.N,GND*
X116250000Y-63900000D03*
G04 #@! TO.P,U4,14*
G04 #@! TO.N,Net-(U4-Pad14)*
X116250000Y-64400000D03*
G04 #@! TO.P,U4,13*
G04 #@! TO.N,Net-(U4-Pad13)*
X116250000Y-64900000D03*
D21*
G04 #@! TO.P,U4,12*
G04 #@! TO.N,Net-(U4-Pad12)*
X115550000Y-65600000D03*
G04 #@! TO.P,U4,11*
G04 #@! TO.N,Net-(U4-Pad11)*
X115050000Y-65600000D03*
G04 #@! TO.P,U4,10*
G04 #@! TO.N,N/C*
X114550000Y-65600000D03*
G04 #@! TO.P,U4,9*
G04 #@! TO.N,Net-(R11-Pad1)*
X114050000Y-65600000D03*
G04 #@! TO.P,U4,8*
G04 #@! TO.N,VBUS*
X113550000Y-65600000D03*
G04 #@! TO.P,U4,7*
X113050000Y-65600000D03*
D22*
G04 #@! TO.P,U4,6*
G04 #@! TO.N,VDD*
X112350000Y-64900000D03*
G04 #@! TO.P,U4,5*
X112350000Y-64400000D03*
G04 #@! TO.P,U4,4*
G04 #@! TO.N,/D-*
X112350000Y-63900000D03*
G04 #@! TO.P,U4,3*
G04 #@! TO.N,/D+*
X112350000Y-63400000D03*
G04 #@! TO.P,U4,2*
G04 #@! TO.N,GND*
X112350000Y-62900000D03*
G04 #@! TO.P,U4,1*
G04 #@! TO.N,Net-(U4-Pad1)*
X112350000Y-62400000D03*
G04 #@! TD*
D23*
G04 #@! TO.P,U3,33*
G04 #@! TO.N,GND*
X132687500Y-62362500D03*
X134412500Y-62362500D03*
X132687500Y-60637500D03*
X134412500Y-60637500D03*
D24*
G04 #@! TO.P,U3,32*
G04 #@! TO.N,/NTC_L_EN*
X131150000Y-63250000D03*
G04 #@! TO.P,U3,31*
G04 #@! TO.N,Net-(R6-Pad1)*
X131150000Y-62750000D03*
G04 #@! TO.P,U3,30*
G04 #@! TO.N,Net-(R5-Pad2)*
X131150000Y-62250000D03*
G04 #@! TO.P,U3,29*
G04 #@! TO.N,/RST*
X131150000Y-61750000D03*
G04 #@! TO.P,U3,28*
G04 #@! TO.N,/SCL*
X131150000Y-61250000D03*
G04 #@! TO.P,U3,27*
G04 #@! TO.N,/SDA*
X131150000Y-60750000D03*
G04 #@! TO.P,U3,26*
G04 #@! TO.N,Net-(U3-Pad26)*
X131150000Y-60250000D03*
G04 #@! TO.P,U3,25*
G04 #@! TO.N,/ID*
X131150000Y-59750000D03*
D25*
G04 #@! TO.P,U3,24*
G04 #@! TO.N,/ADC_IN*
X131800000Y-59100000D03*
G04 #@! TO.P,U3,23*
G04 #@! TO.N,/NTC*
X132300000Y-59100000D03*
G04 #@! TO.P,U3,22*
G04 #@! TO.N,Net-(U3-Pad22)*
X132800000Y-59100000D03*
G04 #@! TO.P,U3,21*
G04 #@! TO.N,GND*
X133300000Y-59100000D03*
G04 #@! TO.P,U3,20*
G04 #@! TO.N,Net-(C2-Pad1)*
X133800000Y-59100000D03*
G04 #@! TO.P,U3,19*
G04 #@! TO.N,Net-(U3-Pad19)*
X134300000Y-59100000D03*
G04 #@! TO.P,U3,18*
G04 #@! TO.N,VBUS*
X134800000Y-59100000D03*
G04 #@! TO.P,U3,17*
G04 #@! TO.N,Net-(D1-Pad2)*
X135300000Y-59100000D03*
D24*
G04 #@! TO.P,U3,16*
G04 #@! TO.N,/BTN_DOWN*
X135950000Y-59750000D03*
G04 #@! TO.P,U3,15*
G04 #@! TO.N,/BTN_UP*
X135950000Y-60250000D03*
G04 #@! TO.P,U3,14*
G04 #@! TO.N,/MOTOR_PWM*
X135950000Y-60750000D03*
G04 #@! TO.P,U3,13*
G04 #@! TO.N,/PWR_OUTPUT*
X135950000Y-61250000D03*
G04 #@! TO.P,U3,12*
G04 #@! TO.N,/BTN_EXTRUSION*
X135950000Y-61750000D03*
G04 #@! TO.P,U3,11*
G04 #@! TO.N,/BTN_REVERSE*
X135950000Y-62250000D03*
G04 #@! TO.P,U3,10*
G04 #@! TO.N,/MOTOR_DIR*
X135950000Y-62750000D03*
G04 #@! TO.P,U3,9*
G04 #@! TO.N,/MOTOR_SLEEP*
X135950000Y-63250000D03*
D25*
G04 #@! TO.P,U3,8*
G04 #@! TO.N,Net-(C10-Pad1)*
X135300000Y-63900000D03*
G04 #@! TO.P,U3,7*
G04 #@! TO.N,Net-(C9-Pad1)*
X134800000Y-63900000D03*
G04 #@! TO.P,U3,6*
G04 #@! TO.N,VBUS*
X134300000Y-63900000D03*
G04 #@! TO.P,U3,5*
G04 #@! TO.N,GND*
X133800000Y-63900000D03*
G04 #@! TO.P,U3,4*
G04 #@! TO.N,VBUS*
X133300000Y-63900000D03*
G04 #@! TO.P,U3,3*
G04 #@! TO.N,GND*
X132800000Y-63900000D03*
G04 #@! TO.P,U3,2*
G04 #@! TO.N,Net-(D2-Pad2)*
X132300000Y-63900000D03*
G04 #@! TO.P,U3,1*
G04 #@! TO.N,/NTC_H_EN*
X131800000Y-63900000D03*
G04 #@! TD*
D26*
G04 #@! TO.P,D1,3*
G04 #@! TO.N,N/C*
X68300000Y-56550000D03*
D27*
G04 #@! TO.P,D1,2*
G04 #@! TO.N,Net-(D1-Pad2)*
X69800000Y-55900000D03*
G04 #@! TO.P,D1,1*
G04 #@! TO.N,Net-(D1-Pad1)*
X66800000Y-55900000D03*
G04 #@! TD*
D26*
G04 #@! TO.P,D2,3*
G04 #@! TO.N,N/C*
X68300000Y-68600000D03*
D27*
G04 #@! TO.P,D2,2*
G04 #@! TO.N,Net-(D2-Pad2)*
X66800000Y-69250000D03*
G04 #@! TO.P,D2,1*
G04 #@! TO.N,Net-(D2-Pad1)*
X69800000Y-69250000D03*
G04 #@! TD*
D28*
G04 #@! TO.P,Q2,1*
G04 #@! TO.N,VBUS*
X141300000Y-70100000D03*
G04 #@! TO.P,Q2,3*
G04 #@! TO.N,Net-(Q2-Pad3)*
X142600000Y-70100000D03*
G04 #@! TO.P,Q2,5*
G04 #@! TO.N,/NTC_H_EN*
X141950000Y-68200000D03*
G04 #@! TO.P,Q2,2*
G04 #@! TO.N,/NTC_L_EN*
X141950000Y-70100000D03*
G04 #@! TO.P,Q2,4*
G04 #@! TO.N,VBUS*
X142600000Y-68200000D03*
G04 #@! TO.P,Q2,6*
G04 #@! TO.N,Net-(Q2-Pad6)*
X141300000Y-68200000D03*
G04 #@! TD*
D15*
G04 #@! TO.P,C5,2*
G04 #@! TO.N,GND*
X130650000Y-65850000D03*
G04 #@! TO.P,C5,1*
G04 #@! TO.N,VBUS*
X132150000Y-65850000D03*
G04 #@! TD*
D29*
G04 #@! TO.P,C4,2*
G04 #@! TO.N,VBUS*
X133800000Y-65850000D03*
G04 #@! TO.P,C4,1*
G04 #@! TO.N,GND*
X135800000Y-65850000D03*
G04 #@! TD*
G04 #@! TO.P,C6,2*
G04 #@! TO.N,VDD*
X110050000Y-65800000D03*
G04 #@! TO.P,C6,1*
G04 #@! TO.N,GND*
X108050000Y-65800000D03*
G04 #@! TD*
G04 #@! TO.P,C7,2*
G04 #@! TO.N,GND*
X108050000Y-67550000D03*
G04 #@! TO.P,C7,1*
G04 #@! TO.N,VBUS*
X110050000Y-67550000D03*
G04 #@! TD*
D30*
G04 #@! TO.P,R10,2*
G04 #@! TO.N,/NTC*
X145550000Y-70000000D03*
G04 #@! TO.P,R10,1*
G04 #@! TO.N,Net-(Q2-Pad3)*
X144050000Y-70000000D03*
G04 #@! TD*
D10*
G04 #@! TO.P,R14,2*
G04 #@! TO.N,GND*
X75550000Y-56850000D03*
G04 #@! TO.P,R14,1*
G04 #@! TO.N,Net-(D1-Pad1)*
X75550000Y-55350000D03*
G04 #@! TD*
D30*
G04 #@! TO.P,R13,2*
G04 #@! TO.N,/ID*
X144250000Y-63100000D03*
G04 #@! TO.P,R13,1*
G04 #@! TO.N,VBUS*
X142750000Y-63100000D03*
G04 #@! TD*
G04 #@! TO.P,R11,2*
G04 #@! TO.N,VDD*
X108300000Y-69200000D03*
G04 #@! TO.P,R11,1*
G04 #@! TO.N,Net-(R11-Pad1)*
X109800000Y-69200000D03*
G04 #@! TD*
G04 #@! TO.P,R7,2*
G04 #@! TO.N,/NTC_L_EN*
X139950000Y-70000000D03*
G04 #@! TO.P,R7,1*
G04 #@! TO.N,VBUS*
X138450000Y-70000000D03*
G04 #@! TD*
G04 #@! TO.P,R6,2*
G04 #@! TO.N,/CP_RxD*
X126550000Y-63100000D03*
G04 #@! TO.P,R6,1*
G04 #@! TO.N,Net-(R6-Pad1)*
X128050000Y-63100000D03*
G04 #@! TD*
G04 #@! TO.P,R5,2*
G04 #@! TO.N,Net-(R5-Pad2)*
X128050000Y-61700000D03*
G04 #@! TO.P,R5,1*
G04 #@! TO.N,/CP_TxD*
X126550000Y-61700000D03*
G04 #@! TD*
G04 #@! TO.P,R12,2*
G04 #@! TO.N,VBUS*
X138400000Y-68300000D03*
G04 #@! TO.P,R12,1*
G04 #@! TO.N,/NTC_H_EN*
X139900000Y-68300000D03*
G04 #@! TD*
D15*
G04 #@! TO.P,C3,2*
G04 #@! TO.N,GND*
X140100000Y-63100000D03*
G04 #@! TO.P,C3,1*
G04 #@! TO.N,VBUS*
X141600000Y-63100000D03*
G04 #@! TD*
D31*
G04 #@! TO.P,J4,1*
G04 #@! TO.N,N/C*
X74700000Y-69500000D03*
G04 #@! TD*
G04 #@! TO.P,J3,1*
G04 #@! TO.N,N/C*
X145800000Y-55750000D03*
G04 #@! TD*
D32*
G04 #@! TO.P,U2,4*
G04 #@! TO.N,GND*
X98200000Y-66470000D03*
G04 #@! TO.P,U2,3*
G04 #@! TO.N,VBUS*
X98200000Y-63920000D03*
G04 #@! TO.P,U2,2*
G04 #@! TO.N,/SCL*
X98200000Y-61380000D03*
G04 #@! TO.P,U2,1*
G04 #@! TO.N,/SDA*
X98200000Y-58840000D03*
G04 #@! TD*
D33*
G04 #@! TO.P,SW2,2*
G04 #@! TO.N,/BTN_UP*
X85425000Y-58675000D03*
G04 #@! TO.P,SW2,1*
G04 #@! TO.N,GND*
X89925000Y-58675000D03*
G04 #@! TO.P,SW2,2*
G04 #@! TO.N,/BTN_UP*
X85425000Y-66675000D03*
G04 #@! TO.P,SW2,1*
G04 #@! TO.N,GND*
X89925000Y-66675000D03*
G04 #@! TD*
G04 #@! TO.P,SW1,2*
G04 #@! TO.N,/BTN_DOWN*
X77700000Y-66650000D03*
G04 #@! TO.P,SW1,1*
G04 #@! TO.N,GND*
X73200000Y-66650000D03*
G04 #@! TO.P,SW1,2*
G04 #@! TO.N,/BTN_DOWN*
X77700000Y-58650000D03*
G04 #@! TO.P,SW1,1*
G04 #@! TO.N,GND*
X73200000Y-58650000D03*
G04 #@! TD*
D34*
G04 #@! TO.P,U1,9*
G04 #@! TO.N,GND*
X140850000Y-61425000D03*
X140850000Y-60575000D03*
D35*
G04 #@! TO.P,U1,8*
G04 #@! TO.N,VBUS*
X139850000Y-61750000D03*
G04 #@! TO.P,U1,7*
G04 #@! TO.N,/MOTOR_SLEEP*
X139850000Y-61250000D03*
G04 #@! TO.P,U1,6*
G04 #@! TO.N,/MOTOR_DIR*
X139850000Y-60750000D03*
G04 #@! TO.P,U1,5*
G04 #@! TO.N,/MOTOR_PWM*
X139850000Y-60250000D03*
G04 #@! TO.P,U1,4*
G04 #@! TO.N,GND*
X141850000Y-60250000D03*
G04 #@! TO.P,U1,3*
G04 #@! TO.N,/MOTOR2*
X141850000Y-60750000D03*
G04 #@! TO.P,U1,2*
G04 #@! TO.N,/MOTOR1*
X141850000Y-61250000D03*
G04 #@! TO.P,U1,1*
G04 #@! TO.N,VBUS*
X141850000Y-61750000D03*
G04 #@! TD*
D36*
G04 #@! TO.P,Q1,1*
G04 #@! TO.N,/PWR_OUTPUT*
X141450000Y-55600000D03*
G04 #@! TO.P,Q1,2*
G04 #@! TO.N,VBUS*
X141450000Y-57500000D03*
G04 #@! TO.P,Q1,3*
G04 #@! TO.N,Net-(J1-Pad9)*
X143450000Y-56550000D03*
G04 #@! TD*
D15*
G04 #@! TO.P,C2,2*
G04 #@! TO.N,GND*
X131050000Y-57250000D03*
G04 #@! TO.P,C2,1*
G04 #@! TO.N,Net-(C2-Pad1)*
X132550000Y-57250000D03*
G04 #@! TD*
D11*
G04 #@! TO.P,C1,2*
G04 #@! TO.N,/MOTOR1*
X143850000Y-61600000D03*
G04 #@! TO.P,C1,1*
G04 #@! TO.N,/MOTOR2*
X143850000Y-60100000D03*
G04 #@! TD*
D10*
G04 #@! TO.P,R3,2*
G04 #@! TO.N,/PWR_OUTPUT*
X139950000Y-55800000D03*
G04 #@! TO.P,R3,1*
G04 #@! TO.N,VBUS*
X139950000Y-57300000D03*
G04 #@! TD*
D30*
G04 #@! TO.P,R4,2*
G04 #@! TO.N,/NTC*
X145550000Y-68300000D03*
G04 #@! TO.P,R4,1*
G04 #@! TO.N,Net-(Q2-Pad6)*
X144050000Y-68300000D03*
G04 #@! TD*
D10*
G04 #@! TO.P,R1,2*
G04 #@! TO.N,/SCL*
X96100000Y-62775000D03*
G04 #@! TO.P,R1,1*
G04 #@! TO.N,VBUS*
X96100000Y-61275000D03*
G04 #@! TD*
G04 #@! TO.P,R2,2*
G04 #@! TO.N,/SDA*
X96100000Y-58175000D03*
G04 #@! TO.P,R2,1*
G04 #@! TO.N,VBUS*
X96100000Y-59675000D03*
G04 #@! TD*
D37*
G04 #@! TO.N,/NTC*
X124050000Y-69200000D03*
X144850000Y-70000000D03*
X130309627Y-58490373D03*
X145950000Y-65350000D03*
X127150000Y-59900000D03*
G04 #@! TO.N,GND*
X134412500Y-62362500D03*
X134412500Y-60637500D03*
X132687500Y-62362500D03*
X140850000Y-60575000D03*
X140850000Y-61425000D03*
G04 #@! TO.N,VBUS*
X142500000Y-57500000D03*
G04 #@! TO.N,GND*
X137399990Y-56999990D03*
X124256086Y-70127389D03*
X135200000Y-68750000D03*
X132732543Y-60655404D03*
X129564807Y-66089416D03*
X74800000Y-58650000D03*
X68450000Y-67200000D03*
X71300001Y-63950000D03*
X71300000Y-64750000D03*
X74558733Y-66773697D03*
X113650000Y-63000000D03*
X114950000Y-63000000D03*
X114950000Y-64300000D03*
X113650000Y-64300000D03*
X106650000Y-67800000D03*
X67050000Y-57450000D03*
X130034087Y-56950010D03*
X91300000Y-66675000D03*
X91400000Y-58700000D03*
X136550000Y-67200000D03*
X138950000Y-63250000D03*
X142850000Y-64200000D03*
X124300000Y-65850000D03*
G04 #@! TO.N,/BTN_DOWN*
X136350000Y-58900000D03*
X129217172Y-58099990D03*
X117075091Y-57719315D03*
G04 #@! TO.N,/BTN_UP*
X135949998Y-56650000D03*
X128250000Y-56700000D03*
X117950383Y-57350010D03*
G04 #@! TO.N,/BTN_REVERSE*
X146350000Y-61050000D03*
G04 #@! TO.N,/BTN_EXTRUSION*
X146300000Y-59350000D03*
G04 #@! TO.N,/MOTOR_PWM*
X139073547Y-60174989D03*
X138800000Y-58174956D03*
G04 #@! TO.N,/NTC_H_EN*
X127259049Y-69100021D03*
X139208665Y-68772908D03*
G04 #@! TO.N,VBUS*
X142650000Y-62149994D03*
X132800000Y-65000000D03*
X71900000Y-57300000D03*
X72650000Y-56549996D03*
X115050000Y-67150000D03*
X112850000Y-67150000D03*
X134350000Y-55500000D03*
X135400000Y-67500000D03*
X94400000Y-58200000D03*
X124500000Y-59450002D03*
X121850000Y-65350000D03*
G04 #@! TO.N,/NTC_L_EN*
X126290397Y-69100021D03*
X139247736Y-70499986D03*
G04 #@! TO.N,/RST*
X120006405Y-59099979D03*
G04 #@! TO.N,/ID*
X147050000Y-70400000D03*
X125009633Y-69209620D03*
X128145383Y-60154617D03*
X131049979Y-59100000D03*
G04 #@! TO.N,Net-(D2-Pad2)*
X126349968Y-64950006D03*
X128900031Y-64950000D03*
G04 #@! TO.N,Net-(D1-Pad2)*
X118575393Y-56425393D03*
G04 #@! TO.N,/D-*
X82211091Y-68211091D03*
X85088909Y-69688909D03*
G04 #@! TO.N,/D+*
X82988909Y-68988909D03*
X84311091Y-68911091D03*
G04 #@! TD*
D38*
G04 #@! TO.N,/NTC*
X145550000Y-70000000D02*
X145550000Y-68300000D01*
X144850000Y-70000000D02*
X145550000Y-70000000D01*
X132300000Y-58550000D02*
X131840374Y-58090374D01*
X130709626Y-58090374D02*
X130309627Y-58490373D01*
X131840374Y-58090374D02*
X130709626Y-58090374D01*
X132300000Y-59100000D02*
X132300000Y-58550000D01*
X146000000Y-65400000D02*
X145950000Y-65350000D01*
X146000000Y-67200000D02*
X146000000Y-65400000D01*
X145550000Y-68300000D02*
X145550000Y-67650000D01*
X145550000Y-67650000D02*
X146000000Y-67200000D01*
X127150000Y-66100000D02*
X127150000Y-60465685D01*
X127150000Y-60465685D02*
X127150000Y-59900000D01*
X124050000Y-69200000D02*
X127150000Y-66100000D01*
G04 #@! TO.N,GND*
X141175000Y-60250000D02*
X140850000Y-60575000D01*
X141850000Y-60250000D02*
X141175000Y-60250000D01*
D39*
G04 #@! TO.N,VBUS*
X140500000Y-57300000D02*
X140700000Y-57500000D01*
X139950000Y-57300000D02*
X140500000Y-57300000D01*
X141450000Y-57500000D02*
X140700000Y-57500000D01*
D40*
X141450000Y-57500000D02*
X142500000Y-57500000D01*
D38*
G04 #@! TO.N,GND*
X137149980Y-57250000D02*
X137399990Y-56999990D01*
X133300000Y-60025000D02*
X132687500Y-60637500D01*
X133300000Y-59100000D02*
X133300000Y-60025000D01*
X124283475Y-70100000D02*
X124256086Y-70127389D01*
X125650000Y-70100000D02*
X124283475Y-70100000D01*
X134900000Y-70100000D02*
X134900000Y-69050000D01*
X134900000Y-69050000D02*
X135200000Y-68750000D01*
X132800000Y-62475000D02*
X132687500Y-62362500D01*
X132800000Y-63900000D02*
X132800000Y-62475000D01*
X133800000Y-62975000D02*
X134412500Y-62362500D01*
X133800000Y-63900000D02*
X133800000Y-62975000D01*
X132687500Y-62362500D02*
X134412500Y-62362500D01*
X132687500Y-60637500D02*
X134412500Y-60637500D01*
X132687500Y-60637500D02*
X132687500Y-62362500D01*
X134412500Y-60637500D02*
X134412500Y-62362500D01*
X73200000Y-58650000D02*
X74800000Y-58650000D01*
D41*
X67075000Y-66350000D02*
X67075000Y-63850000D01*
X67075000Y-63850000D02*
X67075000Y-61450000D01*
X67075000Y-61450000D02*
X67075000Y-58950000D01*
X67075000Y-66350000D02*
X67600000Y-66350000D01*
X67600000Y-66350000D02*
X68450000Y-67200000D01*
D39*
X69750000Y-63950000D02*
X71300001Y-63950000D01*
D41*
X71300001Y-63950000D02*
X71300001Y-64749999D01*
X71300001Y-64749999D02*
X71300000Y-64750000D01*
X70350001Y-64349999D02*
X70649999Y-64349999D01*
X71300001Y-63950000D02*
X70900001Y-64350000D01*
X70900001Y-64350000D02*
X70350001Y-64349999D01*
D38*
X73200000Y-66650000D02*
X74435036Y-66650000D01*
X74435036Y-66650000D02*
X74558733Y-66773697D01*
D39*
X113550000Y-62900000D02*
X113650000Y-63000000D01*
X112350000Y-62900000D02*
X113550000Y-62900000D01*
X115350000Y-63900000D02*
X114950000Y-64300000D01*
X116250000Y-63900000D02*
X115350000Y-63900000D01*
X108050000Y-67550000D02*
X106900000Y-67550000D01*
X106900000Y-67550000D02*
X106650000Y-67800000D01*
D41*
X67075000Y-58950000D02*
X67050000Y-58925000D01*
X67050000Y-58925000D02*
X67050000Y-57450000D01*
D39*
X108050000Y-65800000D02*
X108050000Y-67550000D01*
D38*
X131050000Y-57250000D02*
X130334077Y-57250000D01*
X130334077Y-57250000D02*
X130034087Y-56950010D01*
D39*
X89925000Y-66675000D02*
X91300000Y-66675000D01*
X91375000Y-58675000D02*
X91400000Y-58700000D01*
X89925000Y-58675000D02*
X91375000Y-58675000D01*
D38*
X135800000Y-66450000D02*
X136150001Y-66800001D01*
X136150001Y-66800001D02*
X136550000Y-67200000D01*
X135800000Y-65550000D02*
X135800000Y-66450000D01*
D42*
X138600000Y-63600000D02*
X138950000Y-63250000D01*
X138600000Y-64650000D02*
X138600000Y-63600000D01*
X139100000Y-63100000D02*
X138950000Y-63250000D01*
X140100000Y-63100000D02*
X139100000Y-63100000D01*
X140850000Y-62350000D02*
X140100000Y-63100000D01*
X140850000Y-61425000D02*
X140850000Y-62350000D01*
X144275000Y-65650000D02*
X144275000Y-65625000D01*
X144275000Y-65625000D02*
X142850000Y-64200000D01*
D40*
X124300000Y-64275000D02*
X124300000Y-65850000D01*
D38*
X129754223Y-65900000D02*
X129564807Y-66089416D01*
X130450000Y-65900000D02*
X129754223Y-65900000D01*
X130650000Y-65700000D02*
X130450000Y-65900000D01*
X75550000Y-57900000D02*
X74800000Y-58650000D01*
X75550000Y-56850000D02*
X75550000Y-57900000D01*
X71500000Y-67500000D02*
X71500000Y-67550000D01*
X72350000Y-66650000D02*
X71500000Y-67500000D01*
X73200000Y-66650000D02*
X72350000Y-66650000D01*
G04 #@! TO.N,/PWR_OUTPUT*
X140150000Y-55600000D02*
X139950000Y-55800000D01*
X141450000Y-55600000D02*
X140150000Y-55600000D01*
X137700023Y-60049977D02*
X137700023Y-59596531D01*
X138471588Y-58824966D02*
X139337038Y-58824966D01*
X139337038Y-58824966D02*
X139550002Y-58612002D01*
X139550002Y-57987998D02*
X139212002Y-57649998D01*
X139212002Y-57649998D02*
X139212002Y-56337998D01*
X139550002Y-58612002D02*
X139550002Y-57987998D01*
X137700023Y-59596531D02*
X138471588Y-58824966D01*
X139212002Y-56337998D02*
X139750000Y-55800000D01*
X139750000Y-55800000D02*
X139950000Y-55800000D01*
X135950000Y-61250000D02*
X136500000Y-61250000D01*
X136500000Y-61250000D02*
X137700023Y-60049977D01*
G04 #@! TO.N,/BTN_DOWN*
X77700000Y-58650000D02*
X77700000Y-66650000D01*
X135950000Y-59300000D02*
X136350000Y-58900000D01*
X135950000Y-59750000D02*
X135950000Y-59300000D01*
X129317190Y-58099990D02*
X129217172Y-58099990D01*
X86275001Y-67700001D02*
X87600000Y-66375002D01*
X119915062Y-56499968D02*
X118365052Y-58049978D01*
X87600000Y-66375002D02*
X87600000Y-58800000D01*
X116509406Y-57719315D02*
X117075091Y-57719315D01*
X117405754Y-58049978D02*
X117075091Y-57719315D01*
X116290091Y-57500000D02*
X116509406Y-57719315D01*
X81612004Y-66650000D02*
X82662005Y-67700001D01*
X87600000Y-58800000D02*
X88900000Y-57500000D01*
X129217172Y-58099990D02*
X128494980Y-58099990D01*
X126894957Y-56499967D02*
X119915062Y-56499968D01*
X118365052Y-58049978D02*
X117405754Y-58049978D01*
X128494980Y-58099990D02*
X126894957Y-56499967D01*
X82662005Y-67700001D02*
X86275001Y-67700001D01*
X88900000Y-57500000D02*
X116290091Y-57500000D01*
X77700000Y-66650000D02*
X81612004Y-66650000D01*
G04 #@! TO.N,/BTN_UP*
X136500000Y-60250000D02*
X137000000Y-59750000D01*
X137000000Y-57700002D02*
X135949998Y-56650000D01*
X135950000Y-60250000D02*
X136500000Y-60250000D01*
X137000000Y-59750000D02*
X137000000Y-57700002D01*
X85425000Y-66675000D02*
X85425000Y-58675000D01*
X127039935Y-56149957D02*
X119770082Y-56149958D01*
X85425000Y-58675000D02*
X86275000Y-58675000D01*
X119770082Y-56149958D02*
X118570030Y-57350010D01*
X118516068Y-57350010D02*
X117950383Y-57350010D01*
X127589980Y-56700000D02*
X127039935Y-56149957D01*
X118570030Y-57350010D02*
X118516068Y-57350010D01*
X87899989Y-57050011D02*
X117650384Y-57050011D01*
X128250000Y-56700000D02*
X127589980Y-56700000D01*
X117650384Y-57050011D02*
X117950383Y-57350010D01*
X86275000Y-58675000D02*
X87899989Y-57050011D01*
G04 #@! TO.N,/BTN_REVERSE*
X144674996Y-59374996D02*
X146350000Y-61050000D01*
X138761546Y-59524988D02*
X139626996Y-59524988D01*
X139776988Y-59374996D02*
X144674996Y-59374996D01*
X139626996Y-59524988D02*
X139776988Y-59374996D01*
X138423546Y-59862988D02*
X138761546Y-59524988D01*
X138423546Y-60326454D02*
X138423546Y-59862988D01*
X136500000Y-62250000D02*
X138423546Y-60326454D01*
X135950000Y-62250000D02*
X136500000Y-62250000D01*
G04 #@! TO.N,/BTN_EXTRUSION*
X139706993Y-58950001D02*
X145900001Y-58950001D01*
X138073536Y-60176464D02*
X138073536Y-59718008D01*
X139482017Y-59174977D02*
X139706993Y-58950001D01*
X145900001Y-58950001D02*
X146300000Y-59350000D01*
X138616567Y-59174977D02*
X139482017Y-59174977D01*
X138073536Y-59718008D02*
X138616567Y-59174977D01*
X136500000Y-61750000D02*
X138073536Y-60176464D01*
X135950000Y-61750000D02*
X136500000Y-61750000D01*
G04 #@! TO.N,/MOTOR_PWM*
X138626608Y-58174956D02*
X138800000Y-58174956D01*
X136500000Y-60750000D02*
X137350012Y-59899988D01*
X135950000Y-60750000D02*
X136500000Y-60750000D01*
X139850000Y-60250000D02*
X139148558Y-60250000D01*
X137350012Y-59899988D02*
X137350012Y-59451552D01*
X137350012Y-59451552D02*
X138626608Y-58174956D01*
X139148558Y-60250000D02*
X139073547Y-60174989D01*
G04 #@! TO.N,/MOTOR_DIR*
X138669991Y-60824999D02*
X139775001Y-60824999D01*
X136744990Y-62750000D02*
X138669991Y-60824999D01*
X135950000Y-62750000D02*
X136744990Y-62750000D01*
X139775001Y-60824999D02*
X139850000Y-60750000D01*
G04 #@! TO.N,/MOTOR_SLEEP*
X136739980Y-63250000D02*
X138739980Y-61250000D01*
X135950000Y-63250000D02*
X136739980Y-63250000D01*
X138739980Y-61250000D02*
X139850000Y-61250000D01*
G04 #@! TO.N,Net-(Q2-Pad6)*
X141525000Y-68950000D02*
X143600000Y-68950000D01*
X144050000Y-68500000D02*
X144050000Y-68300000D01*
X143600000Y-68950000D02*
X144050000Y-68500000D01*
X141300000Y-68200000D02*
X141300000Y-68725000D01*
X141300000Y-68725000D02*
X141525000Y-68950000D01*
G04 #@! TO.N,/NTC_H_EN*
X141950000Y-67675000D02*
X141950000Y-68200000D01*
X141899999Y-67624999D02*
X141950000Y-67675000D01*
X140375001Y-67624999D02*
X141899999Y-67624999D01*
X139900000Y-68100000D02*
X140375001Y-67624999D01*
X139900000Y-68300000D02*
X139900000Y-68100000D01*
X139900000Y-68300000D02*
X139450000Y-68300000D01*
X139208665Y-68541335D02*
X139208665Y-68772908D01*
X139450000Y-68300000D02*
X139208665Y-68541335D01*
X128250021Y-68109049D02*
X127659048Y-68700022D01*
X131275002Y-64099998D02*
X128694993Y-64099999D01*
X128250021Y-64544971D02*
X128250021Y-68109049D01*
X127659048Y-68700022D02*
X127259049Y-69100021D01*
X131800000Y-63900000D02*
X131475000Y-63900000D01*
X131475000Y-63900000D02*
X131275002Y-64099998D01*
X128694993Y-64099999D02*
X128250021Y-64544971D01*
G04 #@! TO.N,VBUS*
X132150000Y-65550000D02*
X133800000Y-65550000D01*
X133600000Y-65350000D02*
X133800000Y-65550000D01*
X133600000Y-64800000D02*
X133600000Y-65350000D01*
X133300000Y-63900000D02*
X133300000Y-64500000D01*
X133300000Y-64500000D02*
X133600000Y-64800000D01*
X138400000Y-69950000D02*
X138450000Y-70000000D01*
X138400000Y-68300000D02*
X138400000Y-69950000D01*
D39*
X141850000Y-63350000D02*
X141600000Y-63100000D01*
X141850000Y-64800000D02*
X141850000Y-63350000D01*
X141600000Y-63100000D02*
X142750000Y-63100000D01*
X141850000Y-62850000D02*
X141600000Y-63100000D01*
X141850000Y-61750000D02*
X141850000Y-62850000D01*
D38*
X141850000Y-62100000D02*
X141899994Y-62149994D01*
X141899994Y-62149994D02*
X142650000Y-62149994D01*
D39*
X142249994Y-62149994D02*
X141850000Y-61750000D01*
X142650000Y-62149994D02*
X142249994Y-62149994D01*
X133000000Y-65550000D02*
X132800000Y-65350000D01*
X132800000Y-65350000D02*
X132800000Y-65000000D01*
X133800000Y-65550000D02*
X133000000Y-65550000D01*
X142600000Y-67575000D02*
X142600000Y-68200000D01*
X141850000Y-64800000D02*
X141850000Y-66825000D01*
X141850000Y-66825000D02*
X142600000Y-67575000D01*
X141775000Y-66900000D02*
X141850000Y-66825000D01*
X138400000Y-66900000D02*
X141775000Y-66900000D01*
X138400000Y-68300000D02*
X138400000Y-66900000D01*
D38*
X133800000Y-64955010D02*
X133800000Y-65550000D01*
X134300000Y-63900000D02*
X134300000Y-64455010D01*
X134300000Y-64455010D02*
X133800000Y-64955010D01*
D39*
X70200000Y-61350000D02*
X70500000Y-61050000D01*
X69750000Y-61350000D02*
X70200000Y-61350000D01*
X113550000Y-66450000D02*
X113550000Y-65600000D01*
X110050000Y-67550000D02*
X112450000Y-67550000D01*
X113300000Y-66575000D02*
X113300000Y-66700000D01*
X113050000Y-66325000D02*
X113300000Y-66575000D01*
X113050000Y-65600000D02*
X113050000Y-66325000D01*
X112450000Y-67550000D02*
X113300000Y-66700000D01*
X113300000Y-66700000D02*
X113550000Y-66450000D01*
D41*
X72650000Y-56550000D02*
X72650000Y-56549996D01*
X71900000Y-57300000D02*
X72650000Y-56550000D01*
D39*
X134800000Y-59100000D02*
X134800000Y-55950000D01*
X134800000Y-55950000D02*
X134350000Y-55500000D01*
X136200000Y-68300000D02*
X138400000Y-68300000D01*
X135400000Y-67500000D02*
X136200000Y-68300000D01*
D38*
X140624999Y-69299999D02*
X139590160Y-69299999D01*
X139040171Y-69849988D02*
X138600012Y-69849988D01*
X139590160Y-69299999D02*
X139040171Y-69849988D01*
X138600012Y-69849988D02*
X138450000Y-70000000D01*
X141300000Y-70100000D02*
X141300000Y-69975000D01*
X141300000Y-69975000D02*
X140624999Y-69299999D01*
D39*
X96100000Y-59675000D02*
X96100000Y-61275000D01*
X95875000Y-59675000D02*
X94400000Y-58200000D01*
X96100000Y-59675000D02*
X95875000Y-59675000D01*
X95900000Y-61275000D02*
X96100000Y-61275000D01*
X95200000Y-61975000D02*
X95900000Y-61275000D01*
X95200000Y-63115002D02*
X95200000Y-61975000D01*
X98200000Y-63920000D02*
X96004998Y-63920000D01*
X96004998Y-63920000D02*
X95200000Y-63115002D01*
D42*
X141600000Y-65275000D02*
X141225000Y-65650000D01*
X141600000Y-63100000D02*
X141600000Y-65275000D01*
D39*
X139225000Y-61750000D02*
X137674999Y-63300001D01*
D42*
X138850000Y-66650000D02*
X138600000Y-66650000D01*
D39*
X139850000Y-61750000D02*
X139225000Y-61750000D01*
D42*
X139850000Y-65650000D02*
X138850000Y-66650000D01*
D39*
X137674999Y-66174999D02*
X138400000Y-66900000D01*
X137674999Y-63300001D02*
X137674999Y-66174999D01*
D42*
X141225000Y-65650000D02*
X139850000Y-65650000D01*
D39*
X115050000Y-67150000D02*
X120050000Y-67150000D01*
X120050000Y-67150000D02*
X121450001Y-65749999D01*
X121450001Y-65749999D02*
X121850000Y-65350000D01*
D40*
X124300000Y-59650002D02*
X124500000Y-59450002D01*
X124300000Y-61225000D02*
X124300000Y-59650002D01*
D38*
X124100001Y-59850001D02*
X124500000Y-59450002D01*
X124100001Y-61549999D02*
X124100001Y-59850001D01*
X119550000Y-61850000D02*
X123800000Y-61850000D01*
X123800000Y-61850000D02*
X124100001Y-61549999D01*
D41*
X71300000Y-57900000D02*
X71900000Y-57300000D01*
X70600000Y-60900000D02*
X71300000Y-60200000D01*
X71300000Y-60200000D02*
X71300000Y-57900000D01*
D38*
G04 #@! TO.N,Net-(R5-Pad2)*
X130050000Y-62250000D02*
X131150000Y-62250000D01*
X127950000Y-61700000D02*
X129500000Y-61700000D01*
X129500000Y-61700000D02*
X130050000Y-62250000D01*
G04 #@! TO.N,/CP_TxD*
X117450000Y-62325002D02*
X117774998Y-62650000D01*
X114550000Y-61075000D02*
X114950011Y-60674989D01*
X114950011Y-60674989D02*
X116069980Y-60674990D01*
X122744991Y-62450001D02*
X125899999Y-62450001D01*
X125899999Y-62450001D02*
X126450000Y-61900000D01*
X126450000Y-61900000D02*
X126450000Y-61700000D01*
X117450000Y-62055010D02*
X117450000Y-62325002D01*
X114550000Y-61700000D02*
X114550000Y-61075000D01*
X120150000Y-62650000D02*
X120550011Y-62249989D01*
X122544980Y-62249990D02*
X122744991Y-62450001D01*
X116069980Y-60674990D02*
X117450000Y-62055010D01*
X117774998Y-62650000D02*
X120150000Y-62650000D01*
X120550011Y-62249989D02*
X122544980Y-62249990D01*
G04 #@! TO.N,Net-(R6-Pad1)*
X129700000Y-63100000D02*
X127950000Y-63100000D01*
X131150000Y-62750000D02*
X130050000Y-62750000D01*
X130050000Y-62750000D02*
X129700000Y-63100000D01*
G04 #@! TO.N,/CP_RxD*
X126000000Y-63100000D02*
X126450000Y-63100000D01*
X125850000Y-62950000D02*
X126000000Y-63100000D01*
X122750000Y-62950000D02*
X125850000Y-62950000D01*
X122400000Y-62600000D02*
X122750000Y-62950000D01*
X120694990Y-62600000D02*
X122400000Y-62600000D01*
X120294980Y-63000010D02*
X120694990Y-62600000D01*
X117630019Y-63000011D02*
X120294980Y-63000010D01*
X117099990Y-62469982D02*
X117630019Y-63000011D01*
X115925000Y-61025000D02*
X117099989Y-62199989D01*
X117099989Y-62199989D02*
X117099990Y-62469982D01*
X115100000Y-61025000D02*
X115925000Y-61025000D01*
X115050000Y-61700000D02*
X115050000Y-61075000D01*
X115050000Y-61075000D02*
X115100000Y-61025000D01*
G04 #@! TO.N,/NTC_L_EN*
X139500000Y-70000000D02*
X139247736Y-70252264D01*
X139950000Y-70000000D02*
X139500000Y-70000000D01*
X139247736Y-70252264D02*
X139247736Y-70499986D01*
X139247736Y-70547736D02*
X139247736Y-70499986D01*
X141950000Y-70100000D02*
X141950000Y-70625000D01*
X141950000Y-70625000D02*
X141775001Y-70799999D01*
X140549999Y-70799999D02*
X141775001Y-70799999D01*
X139950000Y-70200000D02*
X140549999Y-70799999D01*
X139950000Y-70000000D02*
X139950000Y-70200000D01*
X128550001Y-63749988D02*
X127900010Y-64399979D01*
X126690396Y-68700022D02*
X126290397Y-69100021D01*
X130600000Y-63250000D02*
X130100012Y-63749988D01*
X127900010Y-67490408D02*
X126690396Y-68700022D01*
X131150000Y-63250000D02*
X130600000Y-63250000D01*
X127900010Y-64399979D02*
X127900010Y-67490408D01*
X130100012Y-63749988D02*
X128550001Y-63749988D01*
G04 #@! TO.N,/RST*
X118200000Y-60350000D02*
X119550000Y-60350000D01*
X119550000Y-59556384D02*
X120006405Y-59099979D01*
X119550000Y-60350000D02*
X119550000Y-59556384D01*
X120006405Y-57893595D02*
X120006405Y-59099979D01*
X120350000Y-57550000D02*
X120006405Y-57893595D01*
X126460020Y-57550000D02*
X120350000Y-57550000D01*
X131150000Y-61750000D02*
X130660020Y-61750000D01*
X130660020Y-61750000D02*
X126460020Y-57550000D01*
D39*
G04 #@! TO.N,Net-(R11-Pad1)*
X114050000Y-65600000D02*
X114050000Y-68000000D01*
X112950000Y-69100000D02*
X109800000Y-69100000D01*
X114050000Y-68000000D02*
X112950000Y-69100000D01*
G04 #@! TO.N,VDD*
X112350000Y-64400000D02*
X111450000Y-64400000D01*
X111425000Y-64700000D02*
X111150000Y-64700000D01*
X111625000Y-64900000D02*
X111425000Y-64700000D01*
X112350000Y-64900000D02*
X111625000Y-64900000D01*
X111450000Y-64400000D02*
X111150000Y-64700000D01*
X111150000Y-64700000D02*
X110050000Y-65800000D01*
X109050000Y-68350000D02*
X108300000Y-69100000D01*
X109050000Y-66925000D02*
X109050000Y-68350000D01*
X110050000Y-65800000D02*
X110050000Y-65925000D01*
X110050000Y-65925000D02*
X109050000Y-66925000D01*
D38*
G04 #@! TO.N,/ID*
X148700000Y-68750000D02*
X148700000Y-67750000D01*
X147050000Y-70400000D02*
X148700000Y-68750000D01*
X131150000Y-59750000D02*
X131150000Y-59200021D01*
X131150000Y-59200021D02*
X131049979Y-59100000D01*
D39*
X146650001Y-64950001D02*
X144800000Y-63100000D01*
X144800000Y-63100000D02*
X144250000Y-63100000D01*
X148700000Y-67750000D02*
X147800000Y-67750000D01*
X147800000Y-67750000D02*
X146650001Y-66600001D01*
X146650001Y-66600001D02*
X146650001Y-64950001D01*
D38*
X127745384Y-60554616D02*
X128145383Y-60154617D01*
X127745384Y-60854614D02*
X127745384Y-60554616D01*
X127549999Y-61049999D02*
X127745384Y-60854614D01*
X127549999Y-66669254D02*
X127549999Y-61049999D01*
X125009633Y-69209620D02*
X127549999Y-66669254D01*
G04 #@! TO.N,Net-(D1-Pad1)*
X66800000Y-56100000D02*
X66800000Y-55150000D01*
X67550000Y-55900000D02*
X66800000Y-55900000D01*
X68550001Y-54899999D02*
X67550000Y-55900000D01*
X74449999Y-54899999D02*
X68550001Y-54899999D01*
X74900000Y-55350000D02*
X74449999Y-54899999D01*
X75550000Y-55350000D02*
X74900000Y-55350000D01*
G04 #@! TO.N,Net-(D2-Pad1)*
X70850000Y-69050000D02*
X70650000Y-69250000D01*
X71500000Y-69050000D02*
X70850000Y-69050000D01*
X69800000Y-69250000D02*
X70650000Y-69250000D01*
G04 #@! TO.N,Net-(Q2-Pad3)*
X143950000Y-70100000D02*
X144050000Y-70000000D01*
X142600000Y-70100000D02*
X143950000Y-70100000D01*
G04 #@! TO.N,Net-(C2-Pad1)*
X133800000Y-59100000D02*
X133800000Y-58712002D01*
X132550000Y-57462002D02*
X132550000Y-57250000D01*
X133800000Y-58712002D02*
X132550000Y-57462002D01*
D39*
G04 #@! TO.N,/MOTOR1*
X143500000Y-61250000D02*
X143850000Y-61600000D01*
X141850000Y-61250000D02*
X143500000Y-61250000D01*
X148000000Y-65200000D02*
X148700000Y-65200000D01*
X143850000Y-61600000D02*
X144400000Y-61600000D01*
X144400000Y-61600000D02*
X148000000Y-65200000D01*
G04 #@! TO.N,/MOTOR2*
X143200000Y-60750000D02*
X143850000Y-60100000D01*
X141850000Y-60750000D02*
X143200000Y-60750000D01*
X144200000Y-60100000D02*
X143850000Y-60100000D01*
X148700000Y-62650000D02*
X146750000Y-62650000D01*
X146750000Y-62650000D02*
X144200000Y-60100000D01*
D38*
G04 #@! TO.N,Net-(D2-Pad2)*
X131800000Y-64950000D02*
X129465716Y-64950000D01*
X132300000Y-63900000D02*
X132300000Y-64450000D01*
X132300000Y-64450000D02*
X131800000Y-64950000D01*
X129465716Y-64950000D02*
X128900031Y-64950000D01*
X67550000Y-69250000D02*
X66800000Y-69250000D01*
X68750000Y-70450000D02*
X67550000Y-69250000D01*
X120649974Y-70650000D02*
X78050000Y-70650000D01*
X126349968Y-64950006D02*
X120649974Y-70650000D01*
X78050000Y-70650000D02*
X75350000Y-67950000D01*
X75350000Y-67950000D02*
X74100000Y-67950000D01*
X74100000Y-67950000D02*
X71600000Y-70450000D01*
X71600000Y-70450000D02*
X68750000Y-70450000D01*
G04 #@! TO.N,Net-(D1-Pad2)*
X135249998Y-58499998D02*
X135249998Y-55449998D01*
X135300000Y-59100000D02*
X135300000Y-58550000D01*
X127184913Y-55799947D02*
X119300053Y-55799947D01*
X119300053Y-55799947D02*
X118650000Y-56450000D01*
X127234968Y-55850000D02*
X127184913Y-55799947D01*
X132800000Y-55850000D02*
X127234968Y-55850000D01*
X133800000Y-54850000D02*
X132800000Y-55850000D01*
X135300000Y-58550000D02*
X135249998Y-58499998D01*
X134650000Y-54850000D02*
X133800000Y-54850000D01*
X135249998Y-55449998D02*
X134650000Y-54850000D01*
X118600000Y-56450000D02*
X118575393Y-56425393D01*
X118650000Y-56450000D02*
X118600000Y-56450000D01*
X72239322Y-55900000D02*
X69800000Y-55900000D01*
X72339336Y-55799986D02*
X72239322Y-55900000D01*
X73749986Y-55799986D02*
X72339336Y-55799986D01*
X74200000Y-56250000D02*
X73749986Y-55799986D01*
X118450000Y-56250000D02*
X74200000Y-56250000D01*
X118650000Y-56450000D02*
X118450000Y-56250000D01*
G04 #@! TO.N,/SCL*
X96805000Y-62775000D02*
X98200000Y-61380000D01*
X96100000Y-62775000D02*
X96805000Y-62775000D01*
X130655010Y-61250000D02*
X131150000Y-61250000D01*
X120205021Y-57199989D02*
X126604999Y-57199989D01*
X118655010Y-58750000D02*
X120205021Y-57199989D01*
X100830000Y-58750000D02*
X118655010Y-58750000D01*
X98200000Y-61380000D02*
X100830000Y-58750000D01*
X126604999Y-57199989D02*
X130655010Y-61250000D01*
G04 #@! TO.N,/SDA*
X96100000Y-58625000D02*
X96100000Y-58175000D01*
X96315000Y-58840000D02*
X96100000Y-58625000D01*
X98200000Y-58840000D02*
X96315000Y-58840000D01*
X99049999Y-57990001D02*
X98200000Y-58840000D01*
X131150000Y-60750000D02*
X130650000Y-60750000D01*
X130650000Y-60750000D02*
X126749978Y-56849978D01*
X99090011Y-57949989D02*
X99049999Y-57990001D01*
X114830063Y-58399989D02*
X114380063Y-57949989D01*
X126749978Y-56849978D02*
X120060042Y-56849978D01*
X118510031Y-58399989D02*
X114830063Y-58399989D01*
X114380063Y-57949989D02*
X99090011Y-57949989D01*
X120060042Y-56849978D02*
X118510031Y-58399989D01*
G04 #@! TO.N,Net-(C9-Pad1)*
X129250000Y-70100000D02*
X129400000Y-69950000D01*
X127150000Y-70100000D02*
X129250000Y-70100000D01*
X134800000Y-64450000D02*
X134800000Y-63900000D01*
X134600000Y-64650000D02*
X134800000Y-64450000D01*
X134600000Y-66700000D02*
X134600000Y-64650000D01*
X129500000Y-69950000D02*
X130500000Y-68950000D01*
X129400000Y-69950000D02*
X129500000Y-69950000D01*
X130500000Y-68950000D02*
X130500000Y-67400000D01*
X130500000Y-67400000D02*
X130850000Y-67050000D01*
X130850000Y-67050000D02*
X134250000Y-67050000D01*
X134250000Y-67050000D02*
X134600000Y-66700000D01*
G04 #@! TO.N,Net-(C10-Pad1)*
X133544990Y-68250000D02*
X131600000Y-68250000D01*
X134950011Y-64799989D02*
X134950011Y-66844979D01*
X134950011Y-66844979D02*
X133544990Y-68250000D01*
X135300000Y-64450000D02*
X134950011Y-64799989D01*
X135300000Y-63900000D02*
X135300000Y-64450000D01*
X131850000Y-68250000D02*
X131600000Y-68250000D01*
X133400000Y-70100000D02*
X133400000Y-69800000D01*
X133400000Y-69800000D02*
X131850000Y-68250000D01*
D41*
G04 #@! TO.N,Net-(J1-Pad9)*
X144450000Y-57550000D02*
X143450000Y-56550000D01*
X148700000Y-57550000D02*
X144450000Y-57550000D01*
D38*
G04 #@! TO.N,/D-*
X85088909Y-69688909D02*
X85088909Y-69264645D01*
X85088909Y-69264645D02*
X85703554Y-68650000D01*
X85703554Y-68650000D02*
X101203554Y-68650000D01*
X101203554Y-68650000D02*
X105953554Y-63900000D01*
X105953554Y-63900000D02*
X112350000Y-63900000D01*
X70837501Y-62000000D02*
X69750000Y-62000000D01*
X70912501Y-62075000D02*
X70837501Y-62000000D01*
X82211091Y-68635355D02*
X81996446Y-68850000D01*
X73828554Y-62075000D02*
X70912501Y-62075000D01*
X82211091Y-68211091D02*
X82211091Y-68635355D01*
X81996446Y-68850000D02*
X77803554Y-68850000D01*
X77803554Y-68850000D02*
X76150000Y-67196446D01*
X76150000Y-67196446D02*
X76150000Y-64396446D01*
X76150000Y-64396446D02*
X73828554Y-62075000D01*
G04 #@! TO.N,/D+*
X105746446Y-63400000D02*
X112350000Y-63400000D01*
X102576839Y-65857008D02*
X102561891Y-65791514D01*
X102605987Y-65917534D02*
X102576839Y-65857008D01*
X102561891Y-65791514D02*
X102561892Y-65724334D01*
X102700000Y-66022182D02*
X102647873Y-65970055D01*
X102785981Y-66200726D02*
X102771033Y-66135231D01*
X102741885Y-66074706D02*
X102700000Y-66022182D01*
X103124265Y-65597920D02*
X103176788Y-65639804D01*
X102771033Y-66135231D02*
X102741885Y-66074706D01*
X102647873Y-65970055D02*
X102605987Y-65917534D01*
X102785982Y-66267904D02*
X102785981Y-66200726D01*
X102959089Y-65474759D02*
X103019614Y-65503907D01*
X102771032Y-66333399D02*
X102785982Y-66267904D01*
X84735355Y-68911091D02*
X85496446Y-68150000D01*
X84311091Y-68911091D02*
X84735355Y-68911091D01*
X103072137Y-65545792D02*
X103124265Y-65597920D01*
X85496446Y-68150000D02*
X100996446Y-68150000D01*
X100996446Y-68150000D02*
X102700000Y-66446446D01*
X102700000Y-66446446D02*
X102741886Y-66393924D01*
X102576840Y-65658840D02*
X102605988Y-65598314D01*
X102741886Y-66393924D02*
X102771032Y-66333399D01*
X102561892Y-65724334D02*
X102576840Y-65658840D01*
X103548528Y-65597919D02*
X103654592Y-65491854D01*
X102605988Y-65598314D02*
X102647873Y-65545791D01*
X102647873Y-65545791D02*
X102700396Y-65503906D01*
X102893594Y-65459811D02*
X102959089Y-65474759D01*
X102700396Y-65503906D02*
X102760921Y-65474760D01*
X102760921Y-65474760D02*
X102826416Y-65459810D01*
X103369986Y-65683901D02*
X103435480Y-65668953D01*
X102826416Y-65459810D02*
X102893594Y-65459811D01*
X103496006Y-65639805D02*
X103548528Y-65597919D01*
X103019614Y-65503907D02*
X103072137Y-65545792D01*
X103176788Y-65639804D02*
X103237314Y-65668952D01*
X103237314Y-65668952D02*
X103302808Y-65683900D01*
X103302808Y-65683900D02*
X103369986Y-65683901D01*
X103435480Y-65668953D02*
X103496006Y-65639805D01*
X103654592Y-65491854D02*
X105746446Y-63400000D01*
X82564645Y-68988909D02*
X82988909Y-68988909D01*
X82203554Y-69350000D02*
X82564645Y-68988909D01*
X77596446Y-69350000D02*
X82203554Y-69350000D01*
X70837501Y-62650000D02*
X70912501Y-62575000D01*
X69750000Y-62650000D02*
X70837501Y-62650000D01*
X70912501Y-62575000D02*
X73621446Y-62575000D01*
X73621446Y-62575000D02*
X75650000Y-64603554D01*
X75650000Y-64603554D02*
X75650000Y-67403554D01*
X75650000Y-67403554D02*
X77596446Y-69350000D01*
G04 #@! TO.N,Net-(C11-Pad1)*
X114300022Y-60324978D02*
X113550000Y-61075000D01*
X116699978Y-60324978D02*
X114300022Y-60324978D01*
X118200000Y-61825000D02*
X116699978Y-60324978D01*
X113550000Y-61075000D02*
X113550000Y-61700000D01*
X118200000Y-61850000D02*
X118200000Y-61825000D01*
G04 #@! TD*
M02*
