M48
;DRILL file {KiCad (5.0.0)} date 03/13/19 18:14:51
;FORMAT={-:-/ absolute / inch / decimal}
FMAT,2
INCH,TZ
T1C0.0157
T2C0.0354
%
G90
G05
M72
T1
X5.3366Y-3.4567
X5.3543Y-3.2795
X5.3543Y-3.6063
X5.5315Y-3.5246
X5.5315Y-3.5827
X5.6516Y-3.3583
X5.9055Y-3.2697
X5.935Y-3.3524
X5.939Y-3.6535
X6.0472Y-3.4242
X6.1024Y-3.374
X6.1555Y-3.7244
X6.1634Y-3.5315
X6.1693Y-3.4075
X6.187Y-3.2697
X6.1969Y-3.7244
X6.206Y-3.5437
X6.2215Y-3.5799
X6.2224Y-3.2795
T2
X5.7224Y-3.3091
X5.8209Y-3.3091
T0
M30
