G04 #@! TF.GenerationSoftware,KiCad,Pcbnew,(5.0.0)*
G04 #@! TF.CreationDate,2019-03-13T18:14:50+01:00*
G04 #@! TF.ProjectId,3d_extension,33645F657874656E73696F6E2E6B6963,100A*
G04 #@! TF.SameCoordinates,Original*
G04 #@! TF.FileFunction,Soldermask,Bot*
G04 #@! TF.FilePolarity,Negative*
%FSLAX46Y46*%
G04 Gerber Fmt 4.6, Leading zero omitted, Abs format (unit mm)*
G04 Created by KiCad (PCBNEW (5.0.0)) date 03/13/19 18:14:50*
%MOMM*%
%LPD*%
G01*
G04 APERTURE LIST*
%ADD10C,0.250000*%
%ADD11R,2.090000X2.090000*%
%ADD12C,2.090000*%
%ADD13R,3.240000X3.040000*%
%ADD14R,3.540000X1.740000*%
G04 APERTURE END LIST*
D10*
X150847619Y-90552380D02*
X150847619Y-89552380D01*
X150276190Y-90552380D02*
X150704761Y-89980952D01*
X150276190Y-89552380D02*
X150847619Y-90123809D01*
X149847619Y-90552380D02*
X149847619Y-89552380D01*
X149514285Y-89552380D02*
X148942857Y-89552380D01*
X149228571Y-90552380D02*
X149228571Y-89552380D01*
X148847619Y-90647619D02*
X148085714Y-90647619D01*
X147942857Y-89552380D02*
X147323809Y-89552380D01*
X147657142Y-89933333D01*
X147514285Y-89933333D01*
X147419047Y-89980952D01*
X147371428Y-90028571D01*
X147323809Y-90123809D01*
X147323809Y-90361904D01*
X147371428Y-90457142D01*
X147419047Y-90504761D01*
X147514285Y-90552380D01*
X147800000Y-90552380D01*
X147895238Y-90504761D01*
X147942857Y-90457142D01*
X146895238Y-90552380D02*
X146895238Y-89552380D01*
X146657142Y-89552380D01*
X146514285Y-89600000D01*
X146419047Y-89695238D01*
X146371428Y-89790476D01*
X146323809Y-89980952D01*
X146323809Y-90123809D01*
X146371428Y-90314285D01*
X146419047Y-90409523D01*
X146514285Y-90504761D01*
X146657142Y-90552380D01*
X146895238Y-90552380D01*
X146133333Y-90647619D02*
X145371428Y-90647619D01*
X144609523Y-90552380D02*
X145180952Y-90552380D01*
X144895238Y-90552380D02*
X144895238Y-89552380D01*
X144990476Y-89695238D01*
X145085714Y-89790476D01*
X145180952Y-89838095D01*
X143990476Y-89552380D02*
X143895238Y-89552380D01*
X143800000Y-89600000D01*
X143752380Y-89647619D01*
X143704761Y-89742857D01*
X143657142Y-89933333D01*
X143657142Y-90171428D01*
X143704761Y-90361904D01*
X143752380Y-90457142D01*
X143800000Y-90504761D01*
X143895238Y-90552380D01*
X143990476Y-90552380D01*
X144085714Y-90504761D01*
X144133333Y-90457142D01*
X144180952Y-90361904D01*
X144228571Y-90171428D01*
X144228571Y-89933333D01*
X144180952Y-89742857D01*
X144133333Y-89647619D01*
X144085714Y-89600000D01*
X143990476Y-89552380D01*
X143038095Y-89552380D02*
X142942857Y-89552380D01*
X142847619Y-89600000D01*
X142800000Y-89647619D01*
X142752380Y-89742857D01*
X142704761Y-89933333D01*
X142704761Y-90171428D01*
X142752380Y-90361904D01*
X142800000Y-90457142D01*
X142847619Y-90504761D01*
X142942857Y-90552380D01*
X143038095Y-90552380D01*
X143133333Y-90504761D01*
X143180952Y-90457142D01*
X143228571Y-90361904D01*
X143276190Y-90171428D01*
X143276190Y-89933333D01*
X143228571Y-89742857D01*
X143180952Y-89647619D01*
X143133333Y-89600000D01*
X143038095Y-89552380D01*
D11*
G04 #@! TO.C,P1*
X147850000Y-84050000D03*
D12*
X145350000Y-84050000D03*
G04 #@! TD*
D13*
G04 #@! TO.C,U2*
X133000000Y-85600000D03*
X133000000Y-92400000D03*
G04 #@! TD*
D14*
G04 #@! TO.C,J2*
X160350000Y-94150000D03*
X160350000Y-91600000D03*
X160350000Y-89050000D03*
X160350000Y-86500000D03*
X160350000Y-83950000D03*
G04 #@! TD*
M02*
